<?xml version="1.0" encoding="UTF-8"?>
<!-- Generator: Adobe Illustrator 24.3.0, SVG Export Plug-In . SVG Version: 6.00 Build 0)  -->
<svg xmlns="http://www.w3.org/2000/svg" xmlns:xlink="http://www.w3.org/1999/xlink" version="1.1" id="Layer_1" x="0px" y="0px" viewBox="0 0 510.24 255.12" style="enable-background:new 0 0 510.24 255.12;" xml:space="preserve">
<style type="text/css">
	.st0{fill:#FFFFFF;}
</style>
<g>
	<g>
		<g>
			<path class="st0" d="M171.07,103.1c-1.06,0.01-1.45,0.63-1.64,0.96c0,0-3.25,5.94-3.93,7.12c-0.38,0.67-0.63,0.86-1.44,0.86     h-7.09c-1.08,0-1.33,0.39-1.68,0.95c-0.34,0.56-1.48,3.08-1.9,4.07c-0.36,0.9-0.17,1.52,1.02,1.52h6.43     c0.52,0,0.64,0.41,0.48,0.74c-2.44,4.91-6.8,13.7-8.46,17.18c-1.65,3.46-1.9,5.79-0.87,7.28c1.28,1.86,3.93,2.37,9.03,2.45     c5.44,0.09,10.23,0.09,18.52,0c0.89,0,1.28-0.38,1.65-1.01c0.38-0.63,1.6-3.02,1.95-3.88c0.26-0.63,0.07-1.25-0.97-1.31     c-0.89-0.04-3.9-0.22-6.11-0.46c-2.6-0.27-4.17-0.88-4.81-1.86c-0.74-1.14-0.28-2.89,0.44-4.87c0.91-2.5,5.35-11.89,6.08-13.44     c0.26-0.56,0.53-0.82,1.38-0.82h12.98c1.14,0,1.52-0.31,2.02-1.31c0.52-1.02,1.51-3.2,1.78-3.89c0.28-0.67,0.04-1.33-0.91-1.35     c-1.01,0-11.85,0-12.89-0.01c-0.64,0-0.76-0.4-0.56-0.83c0.29-0.62,2.43-5.16,3.12-6.64c0.29-0.63,0.27-1.4-1-1.44     C182.56,103.07,174.75,103.07,171.07,103.1"></path>
			<path class="st0" d="M249.4,108.19c-1.01,0.01-1.42,0.5-1.62,0.93c-4.18,8.65-16.63,34.75-17.04,35.63     c-0.41,0.89,0.19,1.45,1.09,1.46c2,0.03,12.07,0.04,15.12,0.02c1.05-0.01,1.43-0.42,1.68-1.05c2.24-5.44,2.71-6.73,3.97-9.71     c1.97-4.64,4.13-9.71,8.56-13.22c3.74-2.96,8.29-4.5,13.36-5.34c0.83-0.14,1.23-0.39,1.58-1.04c0.34-0.61,1.62-3.42,1.9-4.17     c0.29-0.73,0.22-1.47-1.18-1.49c-1.7-0.02-7.44,0.22-13.86,2.2c-0.52,0.17-0.95-0.14-0.7-0.74c0.23-0.62,0.57-1.41,0.81-2.06     c0.3-0.78,0.05-1.38-0.95-1.42C261.33,108.16,252.98,108.16,249.4,108.19"></path>
			<path class="st0" d="M145.77,99.21c-3.78,0.39-8.29,1.2-12.39,2.71c-7.79,2.86-16.16,7.2-26.46,13.89     c-10.3,6.7-25.95,19.55-35.67,29.83c-0.74,0.79-0.35,1.74,0.66,1.78c1.03,0.04,7.46,0.07,8.59,0.01     c1.13-0.06,1.72-0.42,2.58-1.18c1.29-1.13,3.61-3.06,4.88-3.99c4.35-3.2,5.98-4.36,15.72-4.36h9.46c1.2,0,1.57-0.55,1.92-0.97     c0.78-0.95,2.41-3.58,2.72-4.19c0.32-0.63,0.17-1.37-0.86-1.37c-1.31,0-14.12,0.01-15.17,0c-0.8-0.01-0.98-0.49-0.2-1.15     c2.81-2.39,7.44-6.11,16.26-11.73c5.43-3.47,10.19-5.75,12.45-6.63c1.83-0.72,3.94-1.31,4.6-0.97c0.52,0.28,0.23,1.01-0.67,2.67     c-1.38,2.54-10.91,20.03-13.87,26.48c-0.69,1.53-1.25,3.2-0.55,4.33c0.63,1.02,2.03,1.45,4.15,1.49     c3.17,0.06,13.77,0.07,19.41-0.05c0.95-0.02,1.49-0.32,1.94-1.09c0.5-0.85,1.19-2.57,1.76-3.95c0.35-0.87,0.24-1.45-0.91-1.55     c-1.02-0.09-3.39-0.33-4.7-0.48c-1.15-0.13-2.54-0.44-2.58-1.86c-0.03-0.84,0.68-2.7,1.57-4.63c0,0,11.68-25.25,14.77-31.94     c0.45-0.95,0.12-1.72-1.14-1.69C152.62,98.64,148.66,98.92,145.77,99.21"></path>
			<path class="st0" d="M214.23,103.1c-1.06,0.01-1.45,0.63-1.64,0.96c0,0-3.27,5.94-3.93,7.12c-0.38,0.67-0.65,0.86-1.44,0.86h-7.1     c-1.07,0-1.34,0.39-1.68,0.95c-0.35,0.56-1.49,3.08-1.89,4.07c-0.36,0.9-0.17,1.52,1.02,1.52H204c0.52,0,0.65,0.41,0.48,0.74     c-2.45,4.91-6.8,13.7-8.46,17.18c-1.64,3.46-1.9,5.79-0.86,7.28c1.27,1.86,3.93,2.37,9.03,2.45c5.44,0.09,10.22,0.09,18.51,0     c0.88,0,1.29-0.38,1.66-1.01c0.38-0.63,1.58-3.02,1.93-3.88c0.27-0.63,0.08-1.24-0.96-1.31c-0.85-0.04-3.89-0.22-6.11-0.46     c-2.6-0.27-4.17-0.88-4.81-1.86c-0.72-1.14-0.27-2.89,0.45-4.87c0.91-2.5,5.36-11.89,6.08-13.44c0.26-0.56,0.53-0.82,1.39-0.82     h12.97c1.14,0,1.52-0.31,2.03-1.31c0.51-1.02,1.51-3.2,1.78-3.89c0.27-0.67,0.04-1.33-0.91-1.35c-1.01,0-11.85,0-12.89-0.01     c-0.63,0-0.77-0.4-0.57-0.83c0.28-0.62,2.44-5.16,3.11-6.64c0.3-0.63,0.28-1.4-0.99-1.44     C225.71,103.07,217.9,103.07,214.23,103.1"></path>
			<path class="st0" d="M282.43,109.98c-0.56,0.03-1.38,0.24-1.88,1c-0.53,0.8-1.56,3.03-1.93,3.97c-0.36,0.9-0.24,1.72,1.11,1.72     c2.96,0,15.83-0.02,23.29,0.31c2.43,0.1,5.47,0.3,6.61,2.38c0.68,1.26,0.28,3.15-0.71,5.88c-1.17,3.21-4.33,10.44-5.83,13.3     c-0.59,1.14-1.45,1.5-2.59,1.59c-1.93,0.16-13.5,0.08-15.33-0.04c-1.88-0.13-2.66-0.61-2.26-2.54c0.2-0.97,1.12-3.3,2.09-4.39     c1.18-1.35,3.14-2.06,5.93-2.23c2.79-0.18,7.25-0.24,8.64-0.26c0.86-0.01,1.49-0.27,2-1.24c0.47-0.9,1.5-3.24,1.81-4.1     c0.32-0.84-0.08-1.45-1.09-1.5c-1.13-0.06-6.92-0.21-13.74-0.01c-11.18,0.31-14.4,2.5-17.8,7.61c-1.42,2.13-3.23,6.71-3.72,8.81     c-0.4,1.69-0.94,5.12,4.16,5.94c3.62,0.58,18.19,0.71,23.77,0.71c6.53,0,19.01,0.01,20.8-0.09c1.4-0.07,1.88-0.34,2.39-1.3     c1.37-2.59,3.82-9.37,5.38-13.86c1.56-4.48,3.07-9.36,3.57-11.27c0.55-2.06,1.41-5.49-0.62-7.74c-1.6-1.76-3.7-2.23-8.77-2.52     c-2.93-0.18-9.72-0.26-14.36-0.26C294.55,109.84,284.42,109.86,282.43,109.98"></path>
			<path class="st0" d="M399.99,109.53c-4.07,0.49-9.01,1.55-12.53,6.12c-2.74,3.55-6.23,11.96-9.26,22.58     c-0.56,1.99-0.53,3.95,0.54,5.25c1.41,1.7,3.85,2.57,8.6,2.92c4.35,0.33,13.61,0.43,17.52,0.44c7.25,0.02,19.11-0.12,22.39-0.29     c0.6-0.03,1.37-0.25,1.85-1c0.46-0.74,1.57-3.23,1.76-3.78c0.29-0.79,0.1-1.7-1.22-1.7c-1.61-0.01-7.86,0.06-11.52,0.04     c-5.96-0.02-12.64-0.13-15.48-0.49c-2.8-0.37-4.3-0.9-5.05-2.14c-0.48-0.78-0.58-2.16-0.03-4.08c1.55-5.34,3.46-10.38,5.1-13.37     c1.64-3.04,4.45-3.87,8.16-4.17c1.97-0.17,7.38-0.08,9.81,0.05c2.04,0.1,2.96,0.43,3.48,1.06c0.46,0.53,0.48,1.42,0.22,2.23     c-0.37,1.21-1.34,3.2-2.34,3.98c-1.28,1.01-2.65,1.32-5.89,1.47c-2.28,0.11-5.52,0.15-7.77,0.19c-0.98,0.02-1.66,0.17-2.21,1.35     c-0.42,0.92-1.08,2.74-1.39,3.81c-0.34,1.11-0.04,1.76,1.33,1.84c1.51,0.08,8.18,0.13,11.88,0.12c3.71,0,8.95-0.21,11.36-0.86     c4.4-1.18,5.81-2.77,7.11-5.69c0.86-1.9,2.43-5.5,2.86-7.9c0.3-1.62-0.1-3.45-0.99-4.63c-1.25-1.68-3.32-2.7-6.61-3.08     c-4-0.46-11.58-0.67-17.36-0.72C411.57,109.07,404.27,109.02,399.99,109.53"></path>
			<path class="st0" d="M345.98,110.2c-8.82,0.91-12.5,4.45-15.31,9.49c-1.32,2.37-4.02,9.49-4.1,12.61     c-0.09,3.15,0.98,5.07,6.59,5.92c3.9,0.61,14.18,0.6,16.17,0.51c1.18-0.07,1.73-0.24,2.3-1.24c0.61-1.07,1.58-3.14,1.88-3.97     c0.36-0.91,0.16-1.7-1.2-1.77c-1.54-0.07-5.21-0.18-6.85-0.36c-3.33-0.4-3.44-2.13-3.21-3.5c0.2-1.22,0.94-3.82,1.8-5.45     c2.12-3.96,4.65-5.66,8.71-5.92c4.05-0.26,9.77-0.1,11.18,0.05c1.07,0.11,1.26,0.64,1.04,1.39c-0.43,1.47-4.65,12.13-6.87,17.29     c-1.66,3.87-3.35,7.9-5.27,10.14c-1.6,1.86-4.21,3.14-7.98,3.57c-1.86,0.21-5.91,0.39-11.73,0.4c-4.06,0.01-8.34,0.01-9.69,0.03     c-0.96,0.02-1.68,0.41-2.12,1.27c-0.45,0.85-1.47,3.25-1.67,3.99c-0.15,0.63-0.14,1.26,1.11,1.43c1.24,0.15,7.59,0.24,14.19,0.37     c6.59,0.11,20.42-0.01,23.99-0.58c6.39-1.01,10.66-3.49,13.21-10.07c2.4-6.18,10.13-29.93,10.89-32.55     c0.66-2.21,0.05-3.09-2.55-3.19c-4.79-0.2-15.12-0.33-21.28-0.36C354.2,109.7,350.25,109.77,345.98,110.2"></path>
		</g>
	</g>
</g>
</svg>
