<?xml version="1.0" encoding="UTF-8"?>
<!-- Generator: Adobe Illustrator 25.2.0, SVG Export Plug-In . SVG Version: 6.00 Build 0)  -->
<svg xmlns="http://www.w3.org/2000/svg" xmlns:xlink="http://www.w3.org/1999/xlink" version="1.1" id="Layer_1" x="0px" y="0px" viewBox="0 0 480 96" style="enable-background:new 0 0 480 96;" xml:space="preserve">
<style type="text/css">
	.st0{fill:#FFFFFF;}
</style>
<g>
	<g>
		<g>
			<g>
				<g>
					<path class="st0" d="M384.72,34.23c-2.53-3.27-6.77-4.92-12.61-4.92c-7.66,0.09-13.99,2.8-18.81,8.01l0,0       c-2.52,2.74-4.31,5.8-5.34,9.11c-0.72,2.3-0.97,4.53-0.77,6.63c0.22,2.43,1.03,4.57,2.41,6.34c2.52,3.26,6.75,4.93,12.55,4.93       c7.56,0,13.91-2.71,18.86-8.04c2.55-2.74,4.32-5.74,5.31-8.91C387.94,42.08,387.4,37.65,384.72,34.23z M376.92,46.59       c-0.41,1.32-1.08,2.63-1.97,3.88c-1,1.42-2.22,2.63-3.59,3.6c-2.29,1.62-4.84,2.45-7.57,2.45c-2.62,0-4.49-0.73-5.69-2.21       c-1.42-1.78-1.67-4.11-0.74-7.13c0.97-3.17,2.8-5.66,5.59-7.62c2.34-1.64,4.81-2.45,7.55-2.45c2.63,0.03,4.5,0.76,5.72,2.23       h0.01C377.66,41.05,377.89,43.42,376.92,46.59z"></path>
				</g>
				<g>
					<path class="st0" d="M470.7,30.07h-33.93l-2.33,7.37c0,0,9.06,0,11.45,0c-0.89,2.87-8.34,26.75-8.34,26.75h11.4       c0,0,7.83-25.09,8.34-26.75c1.55,0,11.09,0,11.09,0L470.7,30.07z"></path>
				</g>
				<g>
					<path class="st0" d="M306.16,30.08l-2.3,7.4c0,0-19.83,0-21.37,0c-1.54,0-2.74,2.93-1.08,3.77c1.65,0.81,13.33,5.62,14.66,6.31       c1.33,0.68,3.07,2.46,3.19,5.56c0.11,3.12-0.98,6.14-5.3,8.88c-2.86,1.82-6.95,2.3-8.75,2.16c-1.82-0.14-22.89,0-22.89,0       l2.55-7.83c0,0,20.62,0,21.1,0c0.49,0,1.64-0.26,2.01-1.65c0.26-0.98,0-1.79-1.46-2.41c-1.47-0.62-11.49-4.92-13.84-5.89       c-2.33-0.96-3.84-2.98-3.52-5.59c0.33-2.61,1.44-5.25,3.03-6.98c1.58-1.72,3.05-3.47,8.5-3.75c1.97-0.09,5.6,0.01,9.73,0       C297.75,30.06,306.16,30.08,306.16,30.08z"></path>
				</g>
				<g>
					<path class="st0" d="M135.1,30.07h29.79l-2.66,7.89H143.1l-1.89,5.62h18.9L157.67,51h-18.7l-1.77,5.52h20.41l-2.37,7.67h-31.14       L135.1,30.07z"></path>
				</g>
				<g>
					<path class="st0" d="M429.75,36.28c-0.22-1.7-1.04-2.85-2.25-3.85c-0.75-0.62-1.92-1.23-3.81-1.6       c-1.37-0.26-3.62-0.76-8.47-0.76c-4.18,0.03-12.02-0.03-17.49,0.04c0.03,0.01-2.23,7.38-2.24,7.38       c6.31,0,20.54,0.07,20.54,0.07c2.32,0,4.59,0.07,3.96,2.48c-0.32,1.26-0.85,1.75-1.76,2.24c-0.49,0.26-1.23,0.54-1.76,0.62       c-0.59,0.08-1.84,0.33-3.32,0.33c0,0-13.28-0.07-19.51-0.05l-6.83,21.02h11.32c0,0,3.29-12.15,3.78-13.7       c1.23,0,4.83,0.02,5.98,0.02c0.55,1.44,4.8,13.68,4.8,13.68h10.51c0,0-4.43-11.93-5.31-14.2c6.48-0.98,9.82-3.85,11.38-8.93       c0.38-1.21,0.56-2.49,0.56-3.62C429.82,37.04,429.8,36.65,429.75,36.28z"></path>
				</g>
				<g>
					<path class="st0" d="M205.85,36.62c-0.22-1.67-1.04-2.84-2.24-3.84c-0.76-0.62-1.94-1.22-3.83-1.6       c-1.37-0.27-4.45-1.11-10.75-1.11c-4.37,0-10.36-0.05-14.95,0c0.03,0.01-2.59,7.94-2.59,7.94c4.88-0.01,14.53,0.04,18.62,0.05       c1.19,0.01,2.64,0.01,2.64,0.01c2.89,0.04,3.84,0.72,3.24,2.49c-0.4,1.24-0.74,1.58-1.66,2.07c-0.48,0.27-1.24,0.54-1.77,0.62       c-0.59,0.09-1.83,0.33-3.31,0.33c0,0-13.29-0.07-19.51-0.05l-6.67,20.66h11.15c0,0,3.57-11.65,4.06-13.21       c1.23,0,4.06,0.02,5.21,0.02c0.56,1.44,4.82,13.19,4.82,13.19h10.99c0,0-4.69-11.51-5.57-13.78       c6.48-0.97,10.08-3.92,11.64-8.99c0.37-1.22,0.56-2.49,0.56-3.63C205.92,37.41,205.89,37.01,205.85,36.62z"></path>
				</g>
				<g>
					<path class="st0" d="M113.17,30.07h11.33c0,0-4.37,13.65-7.4,22.66c-1.02,3.04-1.98,5.59-2.6,6.99c-1.16,2.6-3.23,4.8-7.98,7       c-2.34,1.08-5.16,1.77-7.18,2.34c-5.11,1.45-7.82,1.51-7.82,1.51l-1.45-1.54c0,0,3.25-1.22,6.21-2.82       c1.66-0.9,3.44-2.08,4.96-4.05c0.98-1.27,2.33-3.72,3.19-5.95C107.86,47.38,113.17,30.07,113.17,30.07z"></path>
				</g>
				<g>
					<path class="st0" d="M20.44,43.54l-6.73,20.66h11.21c0,0,3.67-11.73,4.15-13.29c1.22,0,4.25,0,5.4,0       c7.41,0,9.23-0.33,10.89-0.62c5.48-1.22,8.65-3.55,10.22-8.61c0.38-1.22,0.6-2.44,0.6-3.57c0-0.39-0.03-0.79-0.08-1.17       c-0.22-1.69-0.99-2.91-2.25-3.85c-1.7-1.28-4.81-3.07-12.13-3.01c-0.81,0.01-1.74,0-2.78,0c-4.34-0.02-9.74-0.04-14.16,0       c0.03,0.01-2.43,7.82-2.5,7.82c4.69,0,20.29,0.02,20.29,0.02c2.33,0,4.54,0.44,3.89,2.32c-0.45,1.32-1.19,2.03-2.21,2.65       c-0.66,0.41-2.79,0.65-3.41,0.65C39.28,43.53,20.44,43.54,20.44,43.54z"></path>
				</g>
				<g>
					<path class="st0" d="M69.6,56.35l-6.66,7.84h27.31V30.07H75.34L45.61,64.19h11.18l22.62-26.18L79.4,56.35H69.6z"></path>
				</g>
				<g>
					<path class="st0" d="M246.26,34.79c-2.53-3.27-6.79-4.95-12.64-4.95c-7.68,0.1-14.01,2.81-18.86,8.08l0,0       c-2.54,2.75-4.34,5.85-5.36,9.18c-0.71,2.31-0.97,4.57-0.77,6.67c0.23,2.45,1.04,4.61,2.42,6.39       c2.52,3.29,6.76,4.96,12.57,4.96c7.57,0,13.94-2.73,18.91-8.1c2.55-2.75,4.34-5.78,5.32-8.98       C249.49,42.72,248.95,38.26,246.26,34.79z M238.44,47.26c-0.41,1.34-1.07,2.66-1.96,3.91c-1.01,1.43-2.23,2.65-3.61,3.62       c-2.29,1.64-4.85,2.47-7.58,2.47c-2.64,0-4.5-0.72-5.7-2.22c-1.43-1.79-1.69-4.14-0.76-7.18c0.99-3.19,2.82-5.7,5.61-7.69       c2.34-1.65,4.81-2.46,7.56-2.46c2.63,0.03,4.51,0.76,5.73,2.25h0.01C239.19,41.68,239.42,44.07,238.44,47.26z"></path>
				</g>
				<g>
					<path class="st0" d="M310.1,43.09l-6.85,21.11h11.45c0,0,3.96-12.19,4.46-13.75c1.23,0,4.26,0,5.4,0       c7.4,0,9.24-0.34,10.87-0.61c5.5-1.22,8.67-3.55,10.24-8.62c0.37-1.21,0.59-2.43,0.59-3.56c0-0.4-0.03-0.79-0.07-1.17       c-0.23-1.69-1.04-2.85-2.26-3.84c-0.75-0.62-1.75-1.53-3.63-1.89c-1.38-0.27-3.65-0.62-8.49-0.62       c-4.19,0.02-12.05-0.13-17.53-0.07c0.03,0.01-2.33,7.4-2.33,7.39c4.68,0,20.7,0.01,20.7,0.01c2.34,0,4.64-0.11,3.89,2.33       c-0.22,0.77-1.18,2.03-2.2,2.64c-0.66,0.4-2.8,0.65-3.41,0.65C329.35,43.09,310.1,43.09,310.1,43.09z"></path>
				</g>
			</g>
		</g>
	</g>
</g>
</svg>
