<svg width="40" height="37" viewBox="0 0 40 37" fill="none" xmlns="http://www.w3.org/2000/svg">
<path d="M19.9999 0C8.95431 0 0 7.07693 0 15.8068C0 21.4508 3.74338 26.403 9.37457 29.1995C9.06812 30.2585 7.40598 36.0126 7.33971 36.4647C7.33971 36.4647 7.2999 36.8042 7.51941 36.9338C7.73891 37.0633 7.99687 36.9628 7.99687 36.9628C8.62601 36.8747 15.2935 32.1803 16.4476 31.3649C17.6006 31.5285 18.7876 31.6136 19.9999 31.6136C31.0455 31.6136 39.9998 24.5368 39.9998 15.8068C39.9998 7.07674 31.0457 0 19.9999 0Z" fill="white"/>
<circle cx="11.9333" cy="15.9333" r="2.93333" fill="#D03532"/>
<circle cx="20.0036" cy="15.9333" r="2.93333" fill="#D03532"/>
<circle cx="28.0661" cy="15.9333" r="2.93333" fill="#D03532"/>
</svg>
