<?xml version="1.0" standalone="no"?>
<!DOCTYPE svg PUBLIC "-//W3C//DTD SVG 1.1//EN" "http://www.w3.org/Graphics/SVG/1.1/DTD/svg11.dtd" >
<svg xmlns="http://www.w3.org/2000/svg" xmlns:xlink="http://www.w3.org/1999/xlink" version="1.1">
<metadata>
Created by FontForge 20170731 at Thu Mar  8 17:06:02 2018
 By Aleksey,,,
Copyright 2018 Mitsubishi Motors Corporation
</metadata>
<defs>
<font id="MMC-Bold" horiz-adv-x="684" >
  <font-face 
    font-family="MMC"
    font-weight="700"
    font-stretch="normal"
    units-per-em="1000"
    panose-1="0 0 8 0 0 0 0 0 0 0"
    ascent="800"
    descent="-200"
    x-height="530"
    cap-height="680"
    bbox="-737 -210 1164 1140"
    underline-thickness="50"
    underline-position="-250"
    unicode-range="U+000D-F8FF"
  />
<missing-glyph horiz-adv-x="561" 
 />
    <glyph glyph-name=".notdef" horiz-adv-x="561" 
 />
    <glyph glyph-name=".null" horiz-adv-x="12" 
 />
    <glyph glyph-name="nonmarkingreturn" horiz-adv-x="333" 
 />
    <glyph glyph-name="CR" unicode="&#xd;" horiz-adv-x="173" 
 />
    <glyph glyph-name="space" unicode=" " horiz-adv-x="230" 
 />
    <glyph glyph-name="exclam" unicode="!" horiz-adv-x="314" 
d="M90 231l-20 449h174l-20 -449h-134zM73 0v169h168v-169h-168z" />
    <glyph glyph-name="quotedbl" unicode="&#x22;" horiz-adv-x="487" 
d="M64 461l-24 259h180l-24 -259h-132zM291 461l-24 259h180l-24 -259h-132z" />
    <glyph glyph-name="numbersign" unicode="#" horiz-adv-x="731" 
d="M96 0l22 108h-92v131h120l25 121h-124v130h156l22 100h141l-23 -100h119l24 100h141l-22 -100h98v-130h-127l-25 -121h136v-131h-168l-23 -108h-140l24 108h-121l-23 -108h-140zM291 239h114l25 121h-114z" />
    <glyph glyph-name="dollar" unicode="$" horiz-adv-x="556" 
d="M519 213q0 -86 -37.5 -130.5t-121.5 -58.5v-114h-164v108q-74 4 -149 28v155q111 -36 200 -36q63 0 85 8t22 36q0 21 -14 32t-55 27l-126 50q-64 25 -93 63t-29 106q0 78 35 120t124 55v108h164v-104q78 -7 129 -22v-152q-85 30 -193 30q-59 0 -76.5 -7.5t-17.5 -25.5
q0 -20 15.5 -32t62.5 -29l86 -31q89 -32 121 -72t32 -112z" />
    <glyph glyph-name="percent" unicode="%" horiz-adv-x="770" 
d="M185 390q-80 0 -110 32.5t-30 117.5t30 117.5t110 32.5t110 -32.5t30 -117.5t-30 -117.5t-110 -32.5zM140 0l367 680h120l-364 -680h-123zM185 478q24 0 32.5 13.5t8.5 48.5t-8.5 48.5t-32.5 13.5t-32.5 -13.5t-8.5 -48.5t8.5 -48.5t32.5 -13.5zM585 -10q-80 0 -110 32.5
t-30 117.5t30 117.5t110 32.5t110 -32.5t30 -117.5t-30 -117.5t-110 -32.5zM585 78q24 0 32.5 13.5t8.5 48.5t-8.5 48.5t-32.5 13.5t-32.5 -13.5t-8.5 -48.5t8.5 -48.5t32.5 -13.5z" />
    <glyph glyph-name="ampersand" unicode="&#x26;" horiz-adv-x="770" 
d="M271 -10q-228 0 -228 183q0 64 30.5 106t93.5 81q-34 34 -48.5 50.5t-29 48t-14.5 67.5q0 78 56 121t164 43q224 0 224 -164q0 -54 -31.5 -96t-96.5 -89l82 -74l151 159l111 -103l-150 -153l184 -171h-201l-78 75q-86 -84 -219 -84zM289 425q35 22 51 41.5t16 45.5
q0 54 -62 54q-67 0 -67 -54q0 -26 14.5 -44t47.5 -43zM289 133q51 0 90 43l-110 97q-54 -37 -54 -77q0 -63 74 -63z" />
    <glyph glyph-name="quotesingle" unicode="'" horiz-adv-x="260" 
d="M64 461l-24 259h180l-24 -259h-132z" />
    <glyph glyph-name="parenleft" unicode="(" horiz-adv-x="360" 
d="M149 -124q-104 219 -104 423q0 202 104 421h166q-111 -229 -111 -421q0 -196 111 -423h-166z" />
    <glyph glyph-name="parenright" unicode=")" horiz-adv-x="360" 
d="M211 -124h-166q111 227 111 423q0 192 -111 421h166q104 -219 104 -421q0 -204 -104 -423z" />
    <glyph glyph-name="asterisk" unicode="*" horiz-adv-x="474" 
d="M185 354l-108 78l84 83l-116 17l40 124l105 -55l-19 119h134l-22 -121l105 58l41 -125l-117 -17l85 -82l-108 -78l-53 104z" />
    <glyph glyph-name="plus" unicode="+" horiz-adv-x="544" 
d="M197 75v156h-157v150h157v156h150v-156h157v-150h-157v-156h-150z" />
    <glyph glyph-name="comma" unicode="," horiz-adv-x="293" 
d="M26 -166l51 335h171l-75 -335h-147z" />
    <glyph glyph-name="hyphen" unicode="-" horiz-adv-x="497" 
d="M60 231v151h377v-151h-377z" />
    <glyph glyph-name="period" unicode="." horiz-adv-x="258" 
d="M45 0v169h168v-169h-168z" />
    <glyph glyph-name="slash" unicode="/" horiz-adv-x="530" 
d="M5 -124l351 844h169l-353 -844h-167z" />
    <glyph glyph-name="zero" unicode="0" horiz-adv-x="620" 
d="M310 -10q-145 0 -205 74.5t-60 275.5t60 275.5t205 74.5t205 -74.5t60 -275.5t-60 -275.5t-205 -74.5zM310 142q59 0 79 39.5t20 158.5t-20 158.5t-79 39.5t-79 -39.5t-20 -158.5t20 -158.5t79 -39.5z" />
    <glyph glyph-name="one" unicode="1" horiz-adv-x="433" 
d="M179 0v512l-159 -22v146l323 54v-690h-164z" />
    <glyph glyph-name="two" unicode="2" horiz-adv-x="574" 
d="M45 0v132l258 238q29 27 40 45t11 52q0 42 -25.5 55t-99.5 13q-101 0 -181 -25v153q91 27 231 27q133 0 187 -49.5t54 -147.5q0 -78 -19.5 -116.5t-69.5 -86.5l-143 -138h254l-33 -152h-464z" />
    <glyph glyph-name="three" unicode="3" horiz-adv-x="563" 
d="M353 397q84 0 129.5 -47.5t45.5 -141.5q0 -123 -66.5 -170.5t-221.5 -47.5q-102 0 -210 22v152q130 -24 213 -24q67 0 93 14.5t26 58.5q0 40 -22.5 55.5t-82.5 15.5q-51 0 -109 -6l-32 113l182 141h-263v148h422l56 -145l-180 -139q3 0 10 0.5t10 0.5z" />
    <glyph glyph-name="four" unicode="4" horiz-adv-x="586" 
d="M379 389h164v-389h-164v122h-349v135l235 423h182l-229 -418h161v127z" />
    <glyph glyph-name="five" unicode="5" horiz-adv-x="572" 
d="M324 426q208 0 208 -213q0 -115 -62.5 -169t-204.5 -54q-89 0 -215 21v153q126 -24 216 -24q57 0 78.5 16.5t21.5 55.5q0 42 -21.5 58.5t-77.5 16.5q-88 0 -205 -9v402h436v-148h-272v-109q36 3 98 3z" />
    <glyph glyph-name="six" unicode="6" horiz-adv-x="588" 
d="M289 -10q-249 0 -249 280q0 170 95 271.5t298 148.5l43 -140q-128 -36 -185.5 -67.5t-76.5 -78.5q54 23 124 23q102 0 157.5 -55t55.5 -156q0 -115 -64 -170.5t-198 -55.5zM295 133q49 0 69.5 18.5t20.5 63.5q0 88 -86 88q-62 0 -96 -17q-1 -8 -1 -25q0 -71 21 -99.5
t72 -28.5z" />
    <glyph glyph-name="seven" unicode="7" horiz-adv-x="556" 
d="M30 680h486v-191q0 -44 -23 -81.5t-55.5 -64.5t-65 -53.5t-55.5 -61.5t-23 -76v-152h-164v152q0 63 23 113.5t55.5 81t64.5 54.5t55 47t23 46v38h-321v148z" />
    <glyph glyph-name="eight" unicode="8" horiz-adv-x="608" 
d="M304 -10q-138 0 -200.5 45t-62.5 151q0 70 27.5 111t91.5 57q-57 25 -79 59t-22 97q0 99 64 139.5t181 40.5t181 -40.5t64 -139.5q0 -63 -22 -97.5t-79 -58.5q64 -16 91.5 -57t27.5 -111q0 -106 -62.5 -151t-200.5 -45zM304 417q43 0 62.5 15.5t19.5 56.5q0 37 -19 51.5
t-63 14.5t-63 -14.5t-19 -51.5q0 -41 19.5 -56.5t62.5 -15.5zM304 132q51 0 74 16t23 57q0 42 -21.5 58t-75.5 16t-75.5 -16t-21.5 -58q0 -41 23.5 -57t73.5 -16z" />
    <glyph glyph-name="nine" unicode="9" horiz-adv-x="593" 
d="M307 690q249 0 249 -280q0 -170 -95 -271.5t-298 -148.5l-43 140q128 36 185.5 67.5t76.5 78.5q-54 -23 -124 -23q-102 0 -157.5 55t-55.5 156q0 115 64 170.5t198 55.5zM301 547q-49 0 -69.5 -18.5t-20.5 -63.5q0 -88 86 -88q62 0 96 17q1 8 1 25q0 71 -21 99.5
t-72 28.5z" />
    <glyph glyph-name="colon" unicode=":" horiz-adv-x="258" 
d="M45 361v169h168v-169h-168zM45 0v169h168v-169h-168z" />
    <glyph glyph-name="semicolon" unicode=";" horiz-adv-x="293" 
d="M77 361v169h168v-169h-168zM26 -166l51 335h171l-75 -335h-147z" />
    <glyph glyph-name="less" unicode="&#x3c;" horiz-adv-x="520" 
d="M460 539v-139l-238 -57l238 -57v-139l-400 126v140z" />
    <glyph glyph-name="equal" unicode="=" horiz-adv-x="546" 
d="M60 345v145h426v-145h-426zM60 124v145h426v-145h-426z" />
    <glyph glyph-name="greater" unicode="&#x3e;" horiz-adv-x="520" 
d="M60 539l400 -126v-140l-400 -126v139l238 57l-238 57v139z" />
    <glyph glyph-name="question" unicode="?" horiz-adv-x="554" 
d="M154 231v45q0 47 17.5 74.5t56.5 47.5l70 37q26 14 36 26.5t10 35.5q0 28 -17.5 37t-72.5 9q-116 0 -209 -31v152q80 26 208 26q147 0 201.5 -41t54.5 -139q0 -64 -21.5 -96t-66.5 -58l-56 -32q-27 -16 -37 -29t-10 -40v-24h-164zM152 0v169h168v-169h-168z" />
    <glyph glyph-name="at" unicode="@" horiz-adv-x="892" 
d="M451 469q80 0 165 -21v-233q62 9 83.5 38t21.5 96q0 48 -5.5 80t-21 61t-44 45t-75.5 25.5t-115 9.5q-90 0 -145.5 -14.5t-88 -51.5t-44 -90.5t-11.5 -140.5q0 -85 18.5 -139t61 -83.5t98 -40t141.5 -10.5q83 0 149 11v-116q-69 -15 -149 -15q-119 0 -198 17.5t-137 61
t-84 120.5t-26 194q0 119 19.5 196t67.5 128t127 72t201 21q117 0 192.5 -19.5t118.5 -63.5t59.5 -104.5t16.5 -153.5q0 -143 -83.5 -196.5t-271.5 -53.5q-123 0 -170.5 40t-47.5 151q0 102 40.5 140.5t136.5 38.5zM471 209h32v153q-24 4 -54 4q-35 0 -47.5 -16.5
t-12.5 -59.5q0 -50 15 -65.5t67 -15.5z" />
    <glyph glyph-name="A" unicode="A" 
d="M507 0l-42 131h-248l-42 -131h-170l235 680h205l234 -680h-172zM262 271h158l-79 248z" />
    <glyph glyph-name="B" unicode="B" horiz-adv-x="649" 
d="M495 354q61 -14 87.5 -51.5t26.5 -112.5q0 -109 -56 -149.5t-187 -40.5h-296v680h294q119 0 172.5 -37.5t53.5 -137.5q0 -65 -21.5 -99.5t-73.5 -51.5zM330 540h-94v-129h95q58 0 76 14.5t18 53.5q0 37 -18.5 49t-76.5 12zM343 140q58 0 78 14t20 55q0 43 -19 56.5
t-78 13.5h-108v-139h107z" />
    <glyph glyph-name="C" unicode="C" horiz-adv-x="593" 
d="M364 -10q-79 0 -134.5 15.5t-99 53.5t-64.5 107.5t-21 173.5t21 173.5t64.5 107.5t99 53.5t134.5 15.5q92 0 179 -21v-158q-83 23 -168 23q-87 0 -124.5 -40.5t-37.5 -153.5t37.5 -153.5t124.5 -40.5q85 0 168 23v-158q-87 -21 -179 -21z" />
    <glyph glyph-name="D" unicode="D" horiz-adv-x="671" 
d="M318 680q75 0 128 -14.5t95.5 -51.5t63.5 -105t21 -169t-21 -169t-63.5 -105t-95.5 -51.5t-128 -14.5h-248v680h248zM320 152q81 0 109.5 44.5t28.5 143.5t-28.5 143.5t-109.5 44.5h-84v-376h84z" />
    <glyph glyph-name="E" unicode="E" horiz-adv-x="596" 
d="M236 152h316l-32 -152h-450v680h465v-152h-299v-111h282v-146h-282v-119z" />
    <glyph glyph-name="F" unicode="F" horiz-adv-x="579" 
d="M535 528h-299v-144h275l-30 -152h-245v-232h-166v680h465v-152z" />
    <glyph glyph-name="G" unicode="G" horiz-adv-x="654" 
d="M367 -10q-168 0 -245 77.5t-77 273.5q0 195 76.5 272t248.5 77q105 0 205 -20v-158q-91 22 -179 22q-107 0 -145 -40.5t-38 -152.5t33.5 -153t113.5 -41q48 0 80 9v194l164 42v-366q-140 -36 -237 -36z" />
    <glyph glyph-name="H" unicode="H" horiz-adv-x="697" 
d="M461 680h166v-680h-166v264h-225v-264h-166v680h166v-264h225v264z" />
    <glyph glyph-name="I" unicode="I" horiz-adv-x="306" 
d="M70 0v680h166v-680h-166z" />
    <glyph glyph-name="J" unicode="J" horiz-adv-x="543" 
d="M480 680v-458q0 -129 -57.5 -180.5t-210.5 -51.5q-98 0 -173 20v159q79 -23 153 -23q71 0 96.5 18t25.5 79v285h-260l30 152h396z" />
    <glyph glyph-name="K" unicode="K" horiz-adv-x="663" 
d="M666 0h-204l-226 308v-308h-166v680h166v-315l209 315h203l-243 -342z" />
    <glyph glyph-name="L" unicode="L" horiz-adv-x="549" 
d="M70 0v680h166v-528h295l-30 -152h-431z" />
    <glyph glyph-name="M" unicode="M" horiz-adv-x="876" 
d="M70 0v680h212l157 -251l152 251h215v-680h-166v475l-201 -308l-203 308v-475h-166z" />
    <glyph glyph-name="N" unicode="N" horiz-adv-x="700" 
d="M70 0v680h144l250 -390v390h166v-680h-141l-253 387v-387h-166z" />
    <glyph glyph-name="O" unicode="O" 
d="M342 -10q-161 0 -229 78t-68 272t68 272t229 78q162 0 229.5 -78t67.5 -272t-68 -272t-229 -78zM342 145q76 0 102.5 44t26.5 151t-26 150.5t-103 43.5q-76 0 -102.5 -43.5t-26.5 -150.5t26.5 -151t102.5 -44z" />
    <glyph glyph-name="P" unicode="P" horiz-adv-x="635" 
d="M373 680q115 0 176 -53.5t61 -190.5t-61 -190.5t-176 -53.5h-137v-192h-166v680h303zM347 344q53 0 74 20.5t21 71.5t-21 71.5t-74 20.5h-111v-184h111z" />
    <glyph glyph-name="Q" unicode="Q" 
d="M639 340q0 -154 -41.5 -233t-134.5 -104l67 -161h-166l-62 149q-138 8 -197.5 87.5t-59.5 261.5q0 194 68 272t229 78q162 0 229.5 -78t67.5 -272zM342 145q76 0 102.5 44t26.5 151t-26 150.5t-103 43.5q-76 0 -102.5 -43.5t-26.5 -150.5t26.5 -151t102.5 -44z" />
    <glyph glyph-name="R" unicode="R" horiz-adv-x="660" 
d="M479 248l165 -248h-189l-137 220h-82v-220h-166v680h277q64 0 106.5 -8t79.5 -30.5t54.5 -68.5t17.5 -117q0 -93 -33.5 -140.5t-92.5 -67.5zM340 367q57 0 77 15t20 64t-20.5 65.5t-76.5 16.5h-104v-161h104z" />
    <glyph glyph-name="S" unicode="S" horiz-adv-x="569" 
d="M257 -10q-112 0 -210 32v155q111 -38 207 -38q64 0 88.5 11.5t24.5 43.5q0 26 -15 39t-57 31l-131 54q-67 28 -97 68t-30 113q0 102 56.5 146.5t208.5 44.5q119 0 199 -26v-152q-83 31 -198 31q-63 0 -82 -9.5t-19 -33.5q0 -23 16.5 -36.5t66.5 -33.5l90 -36
q91 -36 124 -78t33 -118q0 -113 -63.5 -160.5t-211.5 -47.5z" />
    <glyph glyph-name="T" unicode="T" horiz-adv-x="583" 
d="M206 0v528h-191v152h563l-28 -152h-178v-528h-166z" />
    <glyph glyph-name="U" unicode="U" 
d="M342 -10q-139 0 -209 52.5t-70 188.5v449h166v-420q0 -67 23.5 -90.5t89.5 -23.5t89.5 23.5t23.5 90.5v420h166v-449q0 -136 -70 -188.5t-209 -52.5z" />
    <glyph glyph-name="V" unicode="V" horiz-adv-x="637" 
d="M210 0l-205 680h177l137 -511l136 511h177l-205 -680h-217z" />
    <glyph glyph-name="W" unicode="W" horiz-adv-x="928" 
d="M185 0l-170 680h164l103 -458l115 458h134l115 -458l103 458h164l-170 -680h-177l-102 378l-102 -378h-177z" />
    <glyph glyph-name="X" unicode="X" horiz-adv-x="646" 
d="M20 0l198 337l-206 343h187l124 -217l124 217h187l-206 -343l198 -337h-189l-114 209l-114 -209h-189z" />
    <glyph glyph-name="Y" unicode="Y" horiz-adv-x="632" 
d="M233 0v243l-225 437h182l126 -264l125 264h183l-225 -437v-243h-166z" />
    <glyph glyph-name="Z" unicode="Z" horiz-adv-x="559" 
d="M41 0v129l277 399h-280v152h483v-129l-282 -399h277v-152h-475z" />
    <glyph glyph-name="bracketleft" unicode="[" horiz-adv-x="441" 
d="M70 -124v844h326v-160h-162v-524h162v-160h-326z" />
    <glyph glyph-name="backslash" unicode="\" horiz-adv-x="530" 
d="M525 -124h-167l-353 844h169z" />
    <glyph glyph-name="bracketright" unicode="]" horiz-adv-x="441" 
d="M371 -124h-326v160h162v524h-162v160h326v-844z" />
    <glyph glyph-name="asciicircum" unicode="^" horiz-adv-x="599" 
d="M40 265l200 415h120l199 -415h-170l-91 200l-91 -200h-167z" />
    <glyph glyph-name="underscore" unicode="_" horiz-adv-x="428" 
d="M-1 0v142h430v-142h-430z" />
    <glyph glyph-name="grave" unicode="`" horiz-adv-x="399" 
d="M329 590h-135l-114 150h168z" />
    <glyph glyph-name="a" unicode="a" horiz-adv-x="565" 
d="M217 -10q-98 0 -140 43t-42 134q0 87 46 119.5t148 32.5q64 0 117 -17v38q0 33 -24 48t-79 15q-86 0 -157 -17v135q85 19 180 19q119 0 181.5 -38.5t62.5 -132.5v-369h-128l-18 44q-53 -54 -147 -54zM262 115q55 0 84 12v81q-40 9 -84 9q-34 0 -47 -12t-13 -38
q0 -29 13 -40.5t47 -11.5z" />
    <glyph glyph-name="b" unicode="b" horiz-adv-x="624" 
d="M362 540q119 0 170.5 -69t51.5 -206q0 -153 -57 -214t-166 -61q-91 0 -144 53l-20 -43h-137v720h164v-228q60 48 138 48zM316 132q59 0 80.5 28t21.5 105q0 76 -21.5 104t-80.5 28q-55 0 -92 -20v-227q36 -18 92 -18z" />
    <glyph glyph-name="c" unicode="c" horiz-adv-x="512" 
d="M315 -10q-140 0 -207.5 61t-67.5 214t67.5 214t207.5 61q78 0 151 -19v-147q-62 20 -128 20q-70 0 -101 -26.5t-31 -102.5t31 -102.5t101 -26.5q66 0 128 20v-147q-73 -19 -151 -19z" />
    <glyph glyph-name="d" unicode="d" horiz-adv-x="624" 
d="M400 720h164v-720h-137l-20 43q-53 -53 -144 -53q-109 0 -166 61t-57 214q0 137 51.5 206t170.5 69q78 0 138 -48v228zM400 150v227q-37 20 -92 20q-59 0 -80.5 -28t-21.5 -104q0 -77 21.5 -105t80.5 -28q56 0 92 18z" />
    <glyph glyph-name="e" unicode="e" horiz-adv-x="565" 
d="M298 -10q-134 0 -196 63.5t-62 213.5q0 149 63.5 211t187.5 62q122 0 178 -61t56 -205q0 -39 -4 -61h-321q1 -50 30 -69t97 -19q79 0 167 35v-136q-66 -34 -196 -34zM200 318h170q-1 50 -19 72t-61 22q-48 0 -68 -22t-22 -72z" />
    <glyph glyph-name="f" unicode="f" horiz-adv-x="442" 
d="M281 541v-11h135v-140h-135v-390h-164v390h-94v140h94v23q0 68 31.5 112t118.5 82l93 41l57 -137l-67 -27q-41 -17 -55 -35.5t-14 -47.5z" />
    <glyph glyph-name="g" unicode="g" horiz-adv-x="623" 
d="M107 -210v141q144 6 214 24q49 12 67.5 31t18.5 52v19q-63 -34 -145 -34q-108 0 -165 59t-57 199q0 125 51.5 192t169.5 67q44 0 81 -15t57 -33v38h164v-456q0 -65 -11.5 -107t-43.5 -76t-90 -54.5t-150 -32.5q-90 -12 -161 -14zM307 162q50 0 92 18v198q-44 19 -92 19
q-58 0 -80 -26.5t-22 -89.5q0 -67 23 -93t79 -26z" />
    <glyph glyph-name="h" unicode="h" horiz-adv-x="613" 
d="M393 540q165 0 165 -151v-389h-164v334q0 30 -16.5 46t-60.5 16q-56 0 -93 -20v-376h-164v720h164v-234q65 54 169 54z" />
    <glyph glyph-name="i" unicode="i" horiz-adv-x="278" 
d="M53 580v140h172v-140h-172zM57 0v530h164v-530h-164z" />
    <glyph glyph-name="j" unicode="j" horiz-adv-x="277" 
d="M52 580v140h172v-140h-172zM66 -210l-117 107q72 79 89.5 121.5t17.5 119.5v392h164v-402q0 -99 -28 -169t-126 -169z" />
    <glyph glyph-name="k" unicode="k" horiz-adv-x="586" 
d="M582 0h-194l-164 259v-259h-164v720h164v-445l153 255h193l-174 -259z" />
    <glyph glyph-name="l" unicode="l" horiz-adv-x="284" 
d="M60 0v720h164v-720h-164z" />
    <glyph glyph-name="m" unicode="m" horiz-adv-x="927" 
d="M707 540q165 0 165 -151v-389h-164v334q0 30 -16.5 46t-60.5 16q-40 0 -83 -16v-380h-164v334q0 30 -16.5 46t-60.5 16q-40 0 -83 -16v-380h-164v530h157v-50q64 60 166 60q107 0 143 -61q66 61 181 61z" />
    <glyph glyph-name="n" unicode="n" horiz-adv-x="613" 
d="M60 0v530h157v-50q64 60 176 60q165 0 165 -151v-389h-164v334q0 30 -16.5 46t-60.5 16q-56 0 -93 -20v-376h-164z" />
    <glyph glyph-name="o" unicode="o" horiz-adv-x="608" 
d="M304 -10q-130 0 -197 60.5t-67 214.5q0 151 67.5 213t196.5 62t196.5 -62t67.5 -213q0 -154 -67 -214.5t-197 -60.5zM304 134q51 0 74.5 26.5t23.5 104.5q0 77 -23.5 104t-74.5 27t-74.5 -27t-23.5 -104q0 -78 23.5 -104.5t74.5 -26.5z" />
    <glyph glyph-name="p" unicode="p" horiz-adv-x="624" 
d="M361 540q109 0 166 -61t57 -214q0 -137 -51.5 -206t-170.5 -69q-79 0 -138 33v-223h-164v730h164v-37q53 47 137 47zM316 133q59 0 80.5 28t21.5 104q0 77 -21.5 105t-80.5 28q-56 0 -92 -18v-228q35 -19 92 -19z" />
    <glyph glyph-name="q" unicode="q" horiz-adv-x="624" 
d="M263 540q84 0 137 -47v37h164v-730h-164v223q-59 -33 -138 -33q-119 0 -170.5 69t-51.5 206q0 153 57 214t166 61zM308 133q57 0 92 19v228q-36 18 -92 18q-59 0 -80.5 -28t-21.5 -105q0 -76 21.5 -104t80.5 -28z" />
    <glyph glyph-name="r" unicode="r" horiz-adv-x="426" 
d="M60 0v530h157v-69q58 69 189 79v-153q-117 -5 -182 -34v-353h-164z" />
    <glyph glyph-name="s" unicode="s" horiz-adv-x="508" 
d="M243 -10q-105 0 -192 25v148q117 -35 198 -35q44 0 59 6t15 22q0 14 -9.5 21.5t-36.5 15.5l-104 29q-72 20 -102.5 55.5t-30.5 108.5q0 87 54.5 120.5t176.5 33.5q109 0 176 -20v-145q-85 29 -174 29q-45 0 -59.5 -5.5t-14.5 -19.5q0 -13 9 -20t34 -14l96 -27
q75 -21 107.5 -55.5t32.5 -106.5q0 -94 -53.5 -130t-181.5 -36z" />
    <glyph glyph-name="t" unicode="t" horiz-adv-x="456" 
d="M279 -10q-84 0 -132 38.5t-48 118.5v243h-89v140h89v113l162 47v-160h157v-140h-157v-207q0 -27 14 -37t49 -10q46 0 95 14v-142q-48 -18 -140 -18z" />
    <glyph glyph-name="u" unicode="u" horiz-adv-x="609" 
d="M228 -10q-87 0 -130 40t-43 111v389h164v-334q0 -30 16 -46t59 -16q49 0 91 24v372h164v-530h-140l-13 46q-70 -56 -168 -56z" />
    <glyph glyph-name="v" unicode="v" horiz-adv-x="566" 
d="M188 0l-180 530h170l105 -364l105 364h170l-180 -530h-190z" />
    <glyph glyph-name="w" unicode="w" horiz-adv-x="831" 
d="M140 0l-132 530h159l77 -360l87 360h170l87 -360l76 360h159l-132 -530h-189l-86 322l-87 -322h-189z" />
    <glyph glyph-name="x" unicode="x" horiz-adv-x="572" 
d="M8 0l181 273l-177 257h188l87 -148l90 148h183l-175 -260l179 -270h-189l-88 149l-90 -149h-189z" />
    <glyph glyph-name="y" unicode="y" horiz-adv-x="556" 
d="M373 530h175l-148 -422q-21 -60 -41.5 -102t-54 -86.5t-83 -76.5t-116.5 -53l-59 130q112 47 151 107l-189 503h171l102 -334z" />
    <glyph glyph-name="z" unicode="z" horiz-adv-x="499" 
d="M32 0v98l232 289h-222v143h425v-113l-223 -274h216v-143h-428z" />
    <glyph glyph-name="braceleft" unicode="{" horiz-adv-x="472" 
d="M302 -124q-82 0 -121 35t-39 114v146q0 57 -59 57h-38v146h38q59 0 59 57v140q0 79 39 114t121 35h130v-140h-82q-35 0 -44.5 -11t-9.5 -52v-85q0 -48 -19.5 -77t-61.5 -54q42 -25 61.5 -54t19.5 -77v-91q0 -42 8.5 -52.5t45.5 -10.5h82v-140h-130z" />
    <glyph glyph-name="bar" unicode="|" horiz-adv-x="284" 
d="M60 -124v844h164v-844h-164z" />
    <glyph glyph-name="braceright" unicode="}" horiz-adv-x="472" 
d="M170 -124h-130v140h82q37 0 45.5 10.5t8.5 52.5v91q0 48 19.5 77t61.5 54q-42 25 -61.5 54t-19.5 77v85q0 41 -9.5 52t-44.5 11h-82v140h130q82 0 121 -35t39 -114v-140q0 -57 59 -57h38v-146h-38q-59 0 -59 -57v-146q0 -79 -39 -114t-121 -35z" />
    <glyph glyph-name="asciitilde" unicode="~" horiz-adv-x="436" 
d="M299 375h97q0 -82 -26.5 -112t-83.5 -30q-36 0 -76 22.5t-49 22.5q-13 0 -17.5 -7t-6.5 -30h-97q0 82 26.5 112t83.5 30q36 0 76 -22.5t49 -22.5q13 0 17.5 7t6.5 30z" />
    <glyph glyph-name="uni00A0" unicode="&#xa0;" horiz-adv-x="173" 
 />
    <glyph glyph-name="exclamdown" unicode="&#xa1;" horiz-adv-x="314" 
d="M73 570h168v-169h-168v169zM90 339h134l20 -449h-174z" />
    <glyph glyph-name="cent" unicode="&#xa2;" horiz-adv-x="512" 
d="M338 418q-70 0 -101 -26.5t-31 -102.5t31 -102.5t101 -26.5q66 0 128 20v-147q-43 -11 -93 -16v-107h-162v114q-86 19 -128.5 81t-42.5 184t42.5 184t128.5 81v115h162v-108q50 -5 93 -16v-147q-62 20 -128 20z" />
    <glyph glyph-name="sterling" unicode="&#xa3;" horiz-adv-x="640" 
d="M279 152h317l-30 -152h-529v152h76v119h-76v146h76v69q0 204 271 204q89 0 188 -18v-155q-90 20 -175 20q-61 0 -89.5 -21t-28.5 -65v-34h197v-146h-197v-119z" />
    <glyph glyph-name="currency" unicode="&#xa4;" horiz-adv-x="606" 
d="M513 347q0 -55 -12 -94l97 -97l-92 -92l-87 87q-44 -22 -116 -22t-116 22l-87 -87l-92 92l97 97q-12 39 -12 94t12 94l-97 97l92 92l87 -87q44 22 116 22t116 -22l87 87l92 -92l-97 -97q12 -39 12 -94zM303 255q38 0 55.5 19.5t17.5 72.5q0 52 -17.5 71.5t-55.5 19.5
t-55.5 -19.5t-17.5 -71.5q0 -53 17.5 -72.5t55.5 -19.5z" />
    <glyph glyph-name="yen" unicode="&#xa5;" horiz-adv-x="632" 
d="M624 680l-192 -372h122v-80h-155v-50h155v-80h-155v-98h-166v98h-155v80h155v50h-155v80h122l-192 372h182l126 -264l125 264h183z" />
    <glyph glyph-name="brokenbar" unicode="&#xa6;" horiz-adv-x="285" 
d="M60 390v330h165v-330h-165zM60 -124v331h165v-331h-165z" />
    <glyph glyph-name="section" unicode="&#xa7;" horiz-adv-x="593" 
d="M548 254q0 -78 -80 -131q43 -46 43 -112q0 -87 -54.5 -120.5t-176.5 -33.5q-87 0 -176 20v145q85 -29 173 -29q45 0 60 6t15 20q0 13 -9 22t-34 21l-120 58q-42 20 -61 31t-42.5 31.5t-32 46.5t-8.5 64q0 78 80 131q-43 46 -43 112q0 87 54.5 120.5t176.5 33.5
q87 0 176 -20v-145q-85 29 -173 29q-45 0 -60 -6t-15 -20q0 -13 9 -22t34 -21l120 -58q42 -20 61 -31t42.5 -31.5t32 -46.5t8.5 -64zM253 244l105 -52q33 25 33 52q0 21 -11.5 33t-39.5 26l-105 52q-33 -25 -33 -52q0 -21 11.5 -33t39.5 -26z" />
    <glyph glyph-name="dieresis" unicode="&#xa8;" horiz-adv-x="464" 
d="M83 581v139h142v-139h-142zM279 581v139h142v-139h-142z" />
    <glyph glyph-name="copyright" unicode="&#xa9;" horiz-adv-x="576" 
d="M288 206q-129 0 -188.5 55t-59.5 186t62 187t186 56t186 -56t62 -187t-60 -186t-188 -55zM288 268q102 0 141 41.5t39 137.5q0 95 -42.5 138.5t-137.5 43.5q-96 0 -138.5 -43t-42.5 -139t39 -137.5t142 -41.5zM298 344q-55 0 -80 23t-25 80t25.5 80.5t79.5 23.5
q29 0 59 -7v-56q-26 6 -55 6q-21 0 -31.5 -10t-10.5 -37t10 -36.5t32 -9.5q29 0 55 6v-56q-30 -7 -59 -7z" />
    <glyph glyph-name="ordfeminine" unicode="&#xaa;" horiz-adv-x="354" 
d="M139 379q-51 0 -75 23.5t-24 73.5q0 49 25.5 68t78.5 19q50 0 78 -8v14q0 25 -14.5 34t-54.5 9q-42 0 -82 -10v77q48 11 99 11q82 0 113 -27t31 -88v-190h-70l-13 31q-29 -37 -92 -37zM172 450q33 0 50 4v46q-30 5 -53 5q-36 0 -36 -26q0 -18 9.5 -23.5t29.5 -5.5z" />
    <glyph glyph-name="guillemotleft" unicode="&#xab;" horiz-adv-x="631" 
d="M145 59l-105 253l120 253h163l-105 -253l92 -253h-165zM413 59l-105 253l120 253h163l-105 -253l92 -253h-165z" />
    <glyph glyph-name="logicalnot" unicode="&#xac;" horiz-adv-x="680" 
d="M455 0v231h-395v155h560v-386h-165z" />
    <glyph glyph-name="uni00AD" unicode="&#xad;" horiz-adv-x="497" 
d="M60 231v151h377v-151h-377z" />
    <glyph glyph-name="registered" unicode="&#xae;" horiz-adv-x="576" 
d="M288 206q-127 0 -187.5 57.5t-60.5 183.5t63 184.5t185 58.5t185 -58.5t63 -184.5t-60.5 -183.5t-187.5 -57.5zM288 262q105 0 145.5 43t40.5 142q0 98 -44 142.5t-142 44.5q-99 0 -142.5 -44t-43.5 -143t40 -142t146 -43zM328 347l-49 77h-19v-77h-61v222h99
q46 0 65.5 -17t19.5 -54q0 -51 -43 -68l56 -83h-68zM260 472h26q18 0 24.5 4t6.5 20q0 15 -6 19t-23 4h-28v-47z" />
    <glyph glyph-name="macron" unicode="&#xaf;" horiz-adv-x="464" 
d="M70 600v120h324v-120h-324z" />
    <glyph glyph-name="degree" unicode="&#xb0;" horiz-adv-x="454" 
d="M227 730q187 0 187 -181q0 -91 -48.5 -136t-138.5 -45t-138.5 45t-48.5 136q0 181 187 181zM227 485q61 0 61 64q0 65 -61 65t-61 -65q0 -64 61 -64z" />
    <glyph glyph-name="plusminus" unicode="&#xb1;" horiz-adv-x="557" 
d="M197 198v156h-157v150h157v156h150v-156h157v-150h-157v-156h-150zM53 0v135h464v-135h-464z" />
    <glyph glyph-name="uni00B2" unicode="&#xb2;" horiz-adv-x="352" 
d="M39 293v71l144 136q13 12 19 18.5t11 17.5t5 24q0 18 -13.5 25.5t-49.5 7.5q-45 0 -115 -19v98q70 19 139 19q78 0 110 -26.5t32 -82.5q0 -45 -14.5 -71t-50.5 -62l-59 -58h125l-17 -98h-266z" />
    <glyph glyph-name="uni00B3" unicode="&#xb3;" horiz-adv-x="352" 
d="M218 517q106 0 106 -109q0 -72 -37.5 -99t-125.5 -27q-62 0 -122 12v96q74 -14 122 -14q32 0 46 7t14 27t-12 29t-40 9q-33 0 -64 -4l-18 74l96 65h-140v97h246l31 -83l-108 -80h6z" />
    <glyph glyph-name="acute" unicode="&#xb4;" horiz-adv-x="399" 
d="M70 590l81 150h168l-114 -150h-135z" />
    <glyph glyph-name="uni00B5" unicode="&#xb5;" horiz-adv-x="614" 
d="M390 530h164v-530h-140l-13 46q-45 -56 -108 -56q-50 0 -69 21v-211h-164v730h164v-330q0 -66 78 -66q44 0 88 30v366z" />
    <glyph glyph-name="paragraph" unicode="&#xb6;" horiz-adv-x="571" 
d="M236 -124v407h-18q-95 0 -136.5 51.5t-41.5 148.5q0 96 45 146.5t156 50.5h101v-804h-106zM395 -124v804h106v-804h-106z" />
    <glyph glyph-name="periodcentered" unicode="&#xb7;" horiz-adv-x="258" 
d="M45 222v169h168v-169h-168z" />
    <glyph glyph-name="cedilla" unicode="&#xb8;" horiz-adv-x="370" 
d="M70 -204v80q27 -6 67 -6q44 0 44 21q0 13 -18 17t-75 4l24 88h88l-10 -40q60 0 85 -19.5t25 -59.5q0 -91 -142 -91q-54 0 -88 6z" />
    <glyph glyph-name="uni00B9" unicode="&#xb9;" horiz-adv-x="352" 
d="M239 385h77v-92h-264v92h84v188l-82 -12v97l185 33v-306z" />
    <glyph glyph-name="ordmasculine" unicode="&#xba;" horiz-adv-x="376" 
d="M188 379q-76 0 -112 35t-36 121q0 84 36.5 119.5t111.5 35.5t111.5 -35.5t36.5 -119.5q0 -86 -36 -121t-112 -35zM188 460q29 0 41.5 15t12.5 60q0 44 -12.5 59t-41.5 15t-41.5 -15t-12.5 -59q0 -45 12.5 -60t41.5 -15z" />
    <glyph glyph-name="guillemotright" unicode="&#xbb;" horiz-adv-x="631" 
d="M218 59h-165l92 253l-105 253h163l120 -253zM486 59h-165l92 253l-105 253h163l120 -253z" />
    <glyph glyph-name="onequarter" unicode="&#xbc;" horiz-adv-x="932" 
d="M364 293h-264v92h84v188l-82 -12v97l185 33v-306h77v-92zM678 680h108l-461 -680h-113zM734 203h103v-203h-103v63h-188v83l126 242h107l-120 -238h75v53z" />
    <glyph glyph-name="onehalf" unicode="&#xbd;" horiz-adv-x="932" 
d="M326 293h-264v92h84v188l-82 -12v97l185 33v-306h77v-92zM640 680h108l-461 -680h-113zM744 98h125l-17 -98h-266v71l144 136q13 12 19 18.5t11 17.5t5 24q0 18 -13.5 25.5t-49.5 7.5q-45 0 -115 -19v98q70 19 139 19q78 0 110 -26.5t32 -82.5q0 -45 -14.5 -71t-50.5 -62
z" />
    <glyph glyph-name="threequarters" unicode="&#xbe;" horiz-adv-x="932" 
d="M367 408q0 -72 -37.5 -99t-125.5 -27q-62 0 -122 12v96q74 -14 122 -14q32 0 46 7t14 27t-12 29t-40 9q-33 0 -64 -4l-18 74l96 65h-140v97h246l31 -83l-108 -80h6q106 0 106 -109zM657 680h108l-461 -680h-113zM720 203h103v-203h-103v63h-188v83l126 242h107l-120 -238
h75v53z" />
    <glyph glyph-name="questiondown" unicode="&#xbf;" horiz-adv-x="524" 
d="M412 480v-169h-168v169h168zM410 249v-45q0 -47 -17.5 -74.5t-56.5 -47.5l-70 -37q-26 -14 -36 -26.5t-10 -35.5q0 -28 17.5 -37t72.5 -9q116 0 209 31v-152q-80 -26 -208 -26q-147 0 -201.5 41t-54.5 139q0 64 21.5 96t66.5 58l56 32q27 16 37 29t10 40v24h164z" />
    <glyph glyph-name="Agrave" unicode="&#xc0;" 
d="M428 740h-135l-114 150h168zM509 0l-42 131h-248l-42 -131h-172l234 680h205l235 -680h-170zM264 271h158l-79 248z" />
    <glyph glyph-name="Aacute" unicode="&#xc1;" 
d="M505 890l-114 -150h-135l81 150h168zM507 0l-42 131h-248l-42 -131h-170l235 680h205l234 -680h-172zM262 271h158l-79 248z" />
    <glyph glyph-name="Acircumflex" unicode="&#xc2;" 
d="M344 796l-48 -56h-154l137 150h130l133 -150h-155zM507 0l-42 131h-248l-42 -131h-170l235 680h205l234 -680h-172zM262 271h158l-79 248z" />
    <glyph glyph-name="Atilde" unicode="&#xc3;" 
d="M285 789q-13 0 -17.5 -7t-6.5 -30h-97q0 82 26.5 112t83.5 30q36 0 76 -22.5t49 -22.5q13 0 17.5 7t6.5 30h97q0 -82 -26.5 -112t-83.5 -30q-36 0 -76 22.5t-49 22.5zM507 0l-42 131h-248l-42 -131h-170l235 680h205l234 -680h-172zM262 271h158l-79 248z" />
    <glyph glyph-name="Adieresis" unicode="&#xc4;" 
d="M315 870v-139h-142v139h142zM511 870v-139h-142v139h142zM507 0l-42 131h-248l-42 -131h-170l235 680h205l234 -680h-172zM262 271h158l-79 248z" />
    <glyph glyph-name="Aring" unicode="&#xc5;" 
d="M342 730q-74 0 -104.5 26.5t-30.5 83.5t30.5 83.5t104.5 26.5t104.5 -26.5t30.5 -83.5t-30.5 -83.5t-104.5 -26.5zM342 883q-31 0 -43 -10t-12 -32t12 -32.5t43 -10.5t43 10.5t12 32.5t-12 32t-43 10zM507 0l-42 131h-248l-42 -131h-170l235 680h205l234 -680h-172z
M262 271h158l-79 248z" />
    <glyph glyph-name="AE" unicode="&#xc6;" horiz-adv-x="910" 
d="M580 152h286l-32 -152h-420v134h-196l-40 -134h-173l213 680h631v-152h-269v-111h252v-146h-252v-119zM264 286h150v242h-77z" />
    <glyph glyph-name="Ccedilla" unicode="&#xc7;" horiz-adv-x="593" 
d="M375 534q-87 0 -124.5 -40.5t-37.5 -153.5t37.5 -153.5t124.5 -40.5q85 0 168 23v-158q-75 -17 -157 -21l-8 -30q60 0 85 -19.5t25 -59.5q0 -91 -142 -91q-54 0 -88 6v80q27 -6 67 -6q44 0 44 21q0 13 -18 17t-75 4l22 81q-127 12 -190 90t-63 257q0 104 21 173.5
t64.5 107.5t99 53.5t134.5 15.5q92 0 179 -21v-158q-83 23 -168 23z" />
    <glyph glyph-name="Egrave" unicode="&#xc8;" horiz-adv-x="596" 
d="M391 740h-135l-114 150h168zM236 152h316l-32 -152h-450v680h465v-152h-299v-111h282v-146h-282v-119z" />
    <glyph glyph-name="Eacute" unicode="&#xc9;" horiz-adv-x="596" 
d="M461 890l-114 -150h-135l81 150h168zM236 152h316l-32 -152h-450v680h465v-152h-299v-111h282v-146h-282v-119z" />
    <glyph glyph-name="Ecircumflex" unicode="&#xca;" horiz-adv-x="596" 
d="M314 796l-48 -56h-154l137 150h130l133 -150h-155zM236 152h316l-32 -152h-450v680h465v-152h-299v-111h282v-146h-282v-119z" />
    <glyph glyph-name="Edieresis" unicode="&#xcb;" horiz-adv-x="596" 
d="M284 870v-139h-142v139h142zM480 870v-139h-142v139h142zM236 152h316l-32 -152h-450v680h465v-152h-299v-111h282v-146h-282v-119z" />
    <glyph glyph-name="Igrave" unicode="&#xcc;" horiz-adv-x="306" 
d="M236 740h-135l-114 150h168zM236 0h-166v680h166v-680z" />
    <glyph glyph-name="Iacute" unicode="&#xcd;" horiz-adv-x="306" 
d="M70 740l81 150h168l-114 -150h-135zM70 0v680h166v-680h-166z" />
    <glyph glyph-name="Icircumflex" unicode="&#xce;" horiz-adv-x="306" 
d="M-47 740l137 150h130l133 -150h-155l-43 56l-48 -56h-154zM70 0v680h166v-680h-166z" />
    <glyph glyph-name="Idieresis" unicode="&#xcf;" horiz-adv-x="306" 
d="M-16 731v139h142v-139h-142zM180 731v139h142v-139h-142zM70 0v680h166v-680h-166z" />
    <glyph glyph-name="Eth" unicode="&#xd0;" horiz-adv-x="671" 
d="M318 680q75 0 128 -14.5t95.5 -51.5t63.5 -105t21 -169t-21 -169t-63.5 -105t-95.5 -51.5t-128 -14.5h-248v297h-63v86h63v297h248zM320 152q81 0 109.5 44.5t28.5 143.5t-28.5 143.5t-109.5 44.5h-84v-145h128v-86h-128v-145h84z" />
    <glyph glyph-name="Ntilde" unicode="&#xd1;" horiz-adv-x="700" 
d="M431 886h97q0 -82 -26.5 -112t-83.5 -30q-36 0 -76 22.5t-49 22.5q-13 0 -17.5 -7t-6.5 -30h-97q0 82 26.5 112t83.5 30q36 0 76 -22.5t49 -22.5q13 0 17.5 7t6.5 30zM70 0v680h144l250 -390v390h166v-680h-141l-253 387v-387h-166z" />
    <glyph glyph-name="Ograve" unicode="&#xd2;" 
d="M414 740h-135l-114 150h168zM342 -10q-161 0 -229 78t-68 272t67.5 272t229.5 78q161 0 229 -78t68 -272t-68 -272t-229 -78zM342 145q76 0 102.5 44t26.5 151t-26.5 150.5t-102.5 43.5q-77 0 -103 -43.5t-26 -150.5t26.5 -151t102.5 -44z" />
    <glyph glyph-name="Oacute" unicode="&#xd3;" 
d="M270 740l81 150h168l-114 -150h-135zM342 -10q-161 0 -229 78t-68 272t68 272t229 78q162 0 229.5 -78t67.5 -272t-68 -272t-229 -78zM342 145q76 0 102.5 44t26.5 151t-26 150.5t-103 43.5q-76 0 -102.5 -43.5t-26.5 -150.5t26.5 -151t102.5 -44z" />
    <glyph glyph-name="Ocircumflex" unicode="&#xd4;" 
d="M142 740l137 150h130l133 -150h-155l-43 56l-48 -56h-154zM342 -10q-161 0 -229 78t-68 272t68 272t229 78q162 0 229.5 -78t67.5 -272t-68 -272t-229 -78zM342 145q76 0 102.5 44t26.5 151t-26 150.5t-103 43.5q-76 0 -102.5 -43.5t-26.5 -150.5t26.5 -151t102.5 -44z
" />
    <glyph glyph-name="Otilde" unicode="&#xd5;" 
d="M423 886h97q0 -82 -26.5 -112t-83.5 -30q-36 0 -76 22.5t-49 22.5q-13 0 -17.5 -7t-6.5 -30h-97q0 82 26.5 112t83.5 30q36 0 76 -22.5t49 -22.5q13 0 17.5 7t6.5 30zM342 -10q-161 0 -229 78t-68 272t68 272t229 78q162 0 229.5 -78t67.5 -272t-68 -272t-229 -78z
M342 145q76 0 102.5 44t26.5 151t-26 150.5t-103 43.5q-76 0 -102.5 -43.5t-26.5 -150.5t26.5 -151t102.5 -44z" />
    <glyph glyph-name="Odieresis" unicode="&#xd6;" 
d="M173 731v139h142v-139h-142zM369 731v139h142v-139h-142zM342 -10q-161 0 -229 78t-68 272t68 272t229 78q162 0 229.5 -78t67.5 -272t-68 -272t-229 -78zM342 145q76 0 102.5 44t26.5 151t-26 150.5t-103 43.5q-76 0 -102.5 -43.5t-26.5 -150.5t26.5 -151t102.5 -44z
" />
    <glyph glyph-name="multiply" unicode="&#xd7;" horiz-adv-x="514" 
d="M40 185l111 110l-111 111l106 106l111 -111l110 110l106 -106l-110 -110l111 -111l-106 -106l-111 111l-111 -110z" />
    <glyph glyph-name="Oslash" unicode="&#xd8;" 
d="M342 690q162 0 229.5 -78t67.5 -272t-68 -272t-229 -78t-229 78t-68 272t68 272t229 78zM342 534q-76 0 -102.5 -43.5t-26.5 -150.5q0 -66 8 -102l184 286q-24 10 -63 10zM342 145q76 0 102.5 44t26.5 151q0 67 -8 104l-188 -286q25 -13 67 -13z" />
    <glyph glyph-name="Ugrave" unicode="&#xd9;" 
d="M422 740h-135l-114 150h168zM342 -10q-139 0 -209 52.5t-70 188.5v449h166v-420q0 -67 23.5 -90.5t89.5 -23.5t89.5 23.5t23.5 90.5v420h166v-449q0 -136 -70 -188.5t-209 -52.5z" />
    <glyph glyph-name="Uacute" unicode="&#xda;" 
d="M262 740l81 150h168l-114 -150h-135zM342 -10q-139 0 -209 52.5t-70 188.5v449h166v-420q0 -67 23.5 -90.5t89.5 -23.5t89.5 23.5t23.5 90.5v420h166v-449q0 -136 -70 -188.5t-209 -52.5z" />
    <glyph glyph-name="Ucircumflex" unicode="&#xdb;" 
d="M142 740l137 150h130l133 -150h-155l-43 56l-48 -56h-154zM342 -10q-139 0 -209 52.5t-70 188.5v449h166v-420q0 -67 23.5 -90.5t89.5 -23.5t89.5 23.5t23.5 90.5v420h166v-449q0 -136 -70 -188.5t-209 -52.5z" />
    <glyph glyph-name="Udieresis" unicode="&#xdc;" 
d="M173 731v139h142v-139h-142zM369 731v139h142v-139h-142zM342 -10q-139 0 -209 52.5t-70 188.5v449h166v-420q0 -67 23.5 -90.5t89.5 -23.5t89.5 23.5t23.5 90.5v420h166v-449q0 -136 -70 -188.5t-209 -52.5z" />
    <glyph glyph-name="Yacute" unicode="&#xdd;" horiz-adv-x="632" 
d="M240 740l81 150h168l-114 -150h-135zM233 0v243l-225 437h182l126 -264l125 264h183l-225 -437v-243h-166z" />
    <glyph glyph-name="Thorn" unicode="&#xde;" horiz-adv-x="655" 
d="M373 590q115 0 176 -54t61 -190q0 -134 -66 -189t-185 -55h-123v-102h-166v680h166v-90h137zM347 254q59 0 76 19.5t17 72.5q0 51 -20 71.5t-73 20.5h-111v-184h111z" />
    <glyph glyph-name="germandbls" unicode="&#xdf;" horiz-adv-x="615" 
d="M60 0v495q0 123 58.5 179t193.5 56q242 0 242 -202q0 -124 -93 -166q60 -18 89.5 -54.5t29.5 -114.5q0 -104 -56.5 -148.5t-176.5 -44.5h-66v141h37q51 0 72.5 17t21.5 60q0 41 -21 59.5t-72 18.5h-38v140h31q45 0 64.5 17.5t19.5 59.5q0 38 -20 55.5t-66 17.5t-66 -23.5
t-20 -80.5v-482h-164z" />
    <glyph glyph-name="agrave" unicode="&#xe0;" horiz-adv-x="565" 
d="M375 590h-135l-114 150h168zM217 -10q-98 0 -140 43t-42 134q0 87 46 119.5t148 32.5q64 0 117 -17v38q0 33 -24 48t-79 15q-86 0 -157 -17v135q85 19 180 19q119 0 181.5 -38.5t62.5 -132.5v-369h-128l-18 44q-53 -54 -147 -54zM262 115q55 0 84 12v81q-40 9 -84 9
q-34 0 -47 -12t-13 -38q0 -29 13 -40.5t47 -11.5z" />
    <glyph glyph-name="aacute" unicode="&#xe1;" horiz-adv-x="565" 
d="M198 590l81 150h168l-114 -150h-135zM217 -10q-98 0 -140 43t-42 134q0 87 46 119.5t148 32.5q64 0 117 -17v38q0 33 -24 48t-79 15q-86 0 -157 -17v135q85 19 180 19q119 0 181.5 -38.5t62.5 -132.5v-369h-128l-18 44q-53 -54 -147 -54zM262 115q55 0 84 12v81
q-40 9 -84 9q-34 0 -47 -12t-13 -38q0 -29 13 -40.5t47 -11.5z" />
    <glyph glyph-name="acircumflex" unicode="&#xe2;" horiz-adv-x="565" 
d="M85 590l137 150h130l133 -150h-155l-43 56l-48 -56h-154zM217 -10q-98 0 -140 43t-42 134q0 87 46 119.5t148 32.5q64 0 117 -17v38q0 33 -24 48t-79 15q-86 0 -157 -17v135q85 19 180 19q119 0 181.5 -38.5t62.5 -132.5v-369h-128l-18 44q-53 -54 -147 -54zM262 115
q55 0 84 12v81q-40 9 -84 9q-34 0 -47 -12t-13 -38q0 -29 13 -40.5t47 -11.5z" />
    <glyph glyph-name="atilde" unicode="&#xe3;" horiz-adv-x="565" 
d="M364 736h97q0 -82 -26.5 -112t-83.5 -30q-37 0 -76 22.5t-49 22.5q-13 0 -17.5 -7t-6.5 -30h-97q0 82 26.5 112t83.5 30q37 0 76 -22.5t49 -22.5q13 0 17.5 7t6.5 30zM217 -10q-98 0 -140 43t-42 134q0 87 46 119.5t148 32.5q64 0 117 -17v38q0 33 -24 48t-79 15
q-86 0 -157 -17v135q85 19 180 19q119 0 181.5 -38.5t62.5 -132.5v-369h-128l-18 44q-53 -54 -147 -54zM262 115q55 0 84 12v81q-40 9 -84 9q-34 0 -47 -12t-13 -38q0 -29 13 -40.5t47 -11.5z" />
    <glyph glyph-name="adieresis" unicode="&#xe4;" horiz-adv-x="565" 
d="M115 581v139h142v-139h-142zM311 581v139h142v-139h-142zM217 -10q-98 0 -140 43t-42 134q0 87 46 119.5t148 32.5q64 0 117 -17v38q0 33 -24 48t-79 15q-86 0 -157 -17v135q85 19 180 19q119 0 181.5 -38.5t62.5 -132.5v-369h-128l-18 44q-53 -54 -147 -54zM262 115
q55 0 84 12v81q-40 9 -84 9q-34 0 -47 -12t-13 -38q0 -29 13 -40.5t47 -11.5z" />
    <glyph glyph-name="aring" unicode="&#xe5;" horiz-adv-x="565" 
d="M294 820q74 0 104.5 -26.5t30.5 -83.5t-30.5 -83.5t-104.5 -26.5t-104.5 26.5t-30.5 83.5t30.5 83.5t104.5 26.5zM294 668q31 0 43 10.5t12 32.5t-12 32t-43 10t-43 -10t-12 -32t12 -32.5t43 -10.5zM217 -10q-98 0 -140 43t-42 134q0 87 46 119.5t148 32.5q64 0 117 -17
v38q0 33 -24 48t-79 15q-86 0 -157 -17v135q85 19 180 19q119 0 181.5 -38.5t62.5 -132.5v-369h-128l-18 44q-53 -54 -147 -54zM262 115q55 0 84 12v81q-40 9 -84 9q-34 0 -47 -12t-13 -38q0 -29 13 -40.5t47 -11.5z" />
    <glyph glyph-name="ae" unicode="&#xe6;" horiz-adv-x="854" 
d="M814 274q0 -39 -4 -61h-300q1 -50 28 -69t89 -19q72 0 157 35v-136q-66 -34 -178 -34q-129 0 -190 65q-76 -65 -199 -65q-94 0 -138 44t-44 133q0 86 48 118.5t148 32.5h119v17q0 68 -114 68q-85 0 -153 -17v135q81 19 161 19q136 0 181 -74q43 74 165 74q120 0 172 -59
t52 -207zM510 318h149q-1 53 -15.5 73.5t-54.5 20.5q-42 0 -60.5 -20t-18.5 -66v-8zM260 115q45 0 105 30q-10 30 -13 72h-81q-69 0 -69 -50q0 -28 13.5 -40t44.5 -12z" />
    <glyph glyph-name="ccedilla" unicode="&#xe7;" horiz-adv-x="512" 
d="M338 394q-70 0 -101 -26.5t-31 -102.5t31 -102.5t101 -26.5q66 0 128 20v-147q-60 -16 -132 -19l-8 -30q60 0 85 -19.5t25 -59.5q0 -91 -142 -91q-54 0 -88 6v80q27 -6 67 -6q44 0 44 21q0 13 -18 17t-75 4l22 82q-104 13 -155 75.5t-51 195.5q0 153 67.5 214t207.5 61
q78 0 151 -19v-147q-62 20 -128 20z" />
    <glyph glyph-name="egrave" unicode="&#xe8;" horiz-adv-x="565" 
d="M357 590h-135l-114 150h168zM298 -10q-134 0 -196 63.5t-62 213.5q0 149 63.5 211t187.5 62q122 0 178 -61t56 -205q0 -39 -4 -61h-321q1 -50 30 -69t97 -19q79 0 167 35v-136q-66 -34 -196 -34zM200 318h170q-1 50 -19 72t-61 22q-48 0 -68 -22t-22 -72z" />
    <glyph glyph-name="eacute" unicode="&#xe9;" horiz-adv-x="565" 
d="M195 590l81 150h168l-114 -150h-135zM298 -10q-134 0 -196 63.5t-62 213.5q0 149 63.5 211t187.5 62q122 0 178 -61t56 -205q0 -39 -4 -61h-321q1 -50 30 -69t97 -19q79 0 167 35v-136q-66 -34 -196 -34zM200 318h170q-1 50 -19 72t-61 22q-48 0 -68 -22t-22 -72z" />
    <glyph glyph-name="ecircumflex" unicode="&#xea;" horiz-adv-x="565" 
d="M83 590l137 150h130l133 -150h-155l-43 56l-48 -56h-154zM298 -10q-134 0 -196 63.5t-62 213.5q0 149 63.5 211t187.5 62q122 0 178 -61t56 -205q0 -39 -4 -61h-321q1 -50 30 -69t97 -19q79 0 167 35v-136q-66 -34 -196 -34zM200 318h170q-1 50 -19 72t-61 22
q-48 0 -68 -22t-22 -72z" />
    <glyph glyph-name="edieresis" unicode="&#xeb;" horiz-adv-x="565" 
d="M114 581v139h142v-139h-142zM310 581v139h142v-139h-142zM298 -10q-134 0 -196 63.5t-62 213.5q0 149 63.5 211t187.5 62q122 0 178 -61t56 -205q0 -39 -4 -61h-321q1 -50 30 -69t97 -19q79 0 167 35v-136q-66 -34 -196 -34zM200 318h170q-1 50 -19 72t-61 22
q-48 0 -68 -22t-22 -72z" />
    <glyph glyph-name="igrave" unicode="&#xec;" horiz-adv-x="276" 
d="M218 590h-135l-114 150h168zM223 0h-164v530h164v-530z" />
    <glyph glyph-name="iacute" unicode="&#xed;" horiz-adv-x="276" 
d="M58 590l81 150h168l-114 -150h-135zM53 0v530h164v-530h-164z" />
    <glyph glyph-name="icircumflex" unicode="&#xee;" horiz-adv-x="276" 
d="M-62 590l137 150h130l133 -150h-155l-43 56l-48 -56h-154zM56 0v530h164v-530h-164z" />
    <glyph glyph-name="idieresis" unicode="&#xef;" horiz-adv-x="276" 
d="M-31 581v139h142v-139h-142zM165 581v139h142v-139h-142zM56 0v530h164v-530h-164z" />
    <glyph glyph-name="eth" unicode="&#xf0;" horiz-adv-x="588" 
d="M328 654q220 -127 220 -385q0 -135 -65.5 -207t-188.5 -72q-254 0 -254 242q0 110 53.5 172.5t147.5 62.5q69 0 121 -28q-13 37 -41.5 63.5t-82.5 50.5l-48 -53l-44 42l31 35q-54 19 -89 29l43 124q80 -20 141 -47l62 70l46 -41zM301 134q47 0 66 28t19 91q0 41 -10 65
q-37 23 -93 23q-77 0 -77 -104q0 -57 20.5 -80t74.5 -23z" />
    <glyph glyph-name="ntilde" unicode="&#xf1;" horiz-adv-x="613" 
d="M399 736h97q0 -82 -26.5 -112t-83.5 -30q-36 0 -76 22.5t-49 22.5q-13 0 -17.5 -7t-6.5 -30h-97q0 82 26.5 112t83.5 30q36 0 76 -22.5t49 -22.5q13 0 17.5 7t6.5 30zM60 0v530h157v-50q64 60 176 60q165 0 165 -151v-389h-164v334q0 30 -16.5 46t-60.5 16q-56 0 -93 -20
v-376h-164z" />
    <glyph glyph-name="ograve" unicode="&#xf2;" horiz-adv-x="608" 
d="M387 590h-135l-114 150h168zM304 -10q-130 0 -197 60.5t-67 214.5q0 151 67.5 213t196.5 62t196.5 -62t67.5 -213q0 -154 -67 -214.5t-197 -60.5zM304 134q51 0 74.5 26.5t23.5 104.5q0 77 -23.5 104t-74.5 27t-74.5 -27t-23.5 -104q0 -78 23.5 -104.5t74.5 -26.5z" />
    <glyph glyph-name="oacute" unicode="&#xf3;" horiz-adv-x="608" 
d="M221 590l81 150h168l-114 -150h-135zM304 -10q-130 0 -197 60.5t-67 214.5q0 151 67.5 213t196.5 62t196.5 -62t67.5 -213q0 -154 -67 -214.5t-197 -60.5zM304 134q51 0 74.5 26.5t23.5 104.5q0 77 -23.5 104t-74.5 27t-74.5 -27t-23.5 -104q0 -78 23.5 -104.5
t74.5 -26.5z" />
    <glyph glyph-name="ocircumflex" unicode="&#xf4;" horiz-adv-x="608" 
d="M104 590l137 150h130l133 -150h-155l-43 56l-48 -56h-154zM304 -10q-130 0 -197 60.5t-67 214.5q0 151 67.5 213t196.5 62t196.5 -62t67.5 -213q0 -154 -67 -214.5t-197 -60.5zM304 134q51 0 74.5 26.5t23.5 104.5q0 77 -23.5 104t-74.5 27t-74.5 -27t-23.5 -104
q0 -78 23.5 -104.5t74.5 -26.5z" />
    <glyph glyph-name="otilde" unicode="&#xf5;" horiz-adv-x="608" 
d="M385 736h97q0 -82 -26.5 -112t-83.5 -30q-36 0 -76 22.5t-49 22.5q-13 0 -17.5 -7t-6.5 -30h-97q0 82 26.5 112t83.5 30q36 0 76 -22.5t49 -22.5q13 0 17.5 7t6.5 30zM304 -10q-130 0 -197 60.5t-67 214.5q0 151 67.5 213t196.5 62t196.5 -62t67.5 -213
q0 -154 -67 -214.5t-197 -60.5zM304 134q51 0 74.5 26.5t23.5 104.5q0 77 -23.5 104t-74.5 27t-74.5 -27t-23.5 -104q0 -78 23.5 -104.5t74.5 -26.5z" />
    <glyph glyph-name="odieresis" unicode="&#xf6;" horiz-adv-x="608" 
d="M135 581v139h142v-139h-142zM331 581v139h142v-139h-142zM304 -10q-130 0 -197 60.5t-67 214.5q0 151 67.5 213t196.5 62t196.5 -62t67.5 -213q0 -154 -67 -214.5t-197 -60.5zM304 134q51 0 74.5 26.5t23.5 104.5q0 77 -23.5 104t-74.5 27t-74.5 -27t-23.5 -104
q0 -78 23.5 -104.5t74.5 -26.5z" />
    <glyph glyph-name="divide" unicode="&#xf7;" horiz-adv-x="522" 
d="M194 441v135h134v-135h-134zM40 231v150h442v-150h-442zM194 36v135h134v-135h-134z" />
    <glyph glyph-name="oslash" unicode="&#xf8;" horiz-adv-x="608" 
d="M304 540q129 0 196.5 -62t67.5 -213q0 -154 -67 -214.5t-197 -60.5t-197 60.5t-67 214.5q0 151 67.5 213t196.5 62zM304 396q-51 0 -74.5 -27t-23.5 -104q0 -42 8 -71l142 193q-18 9 -52 9zM304 134q51 0 74.5 26.5t23.5 104.5q0 42 -7 66l-141 -189q19 -8 50 -8z" />
    <glyph glyph-name="ugrave" unicode="&#xf9;" horiz-adv-x="609" 
d="M383 590h-135l-114 150h168zM228 -10q-87 0 -130 40t-43 111v389h164v-334q0 -30 16 -46t59 -16q49 0 91 24v372h164v-530h-140l-13 46q-70 -56 -168 -56z" />
    <glyph glyph-name="uacute" unicode="&#xfa;" horiz-adv-x="609" 
d="M229 590l81 150h168l-114 -150h-135zM228 -10q-87 0 -130 40t-43 111v389h164v-334q0 -30 16 -46t59 -16q49 0 91 24v372h164v-530h-140l-13 46q-70 -56 -168 -56z" />
    <glyph glyph-name="ucircumflex" unicode="&#xfb;" horiz-adv-x="609" 
d="M102 590l137 150h130l133 -150h-155l-43 56l-48 -56h-154zM228 -10q-87 0 -130 40t-43 111v389h164v-334q0 -30 16 -46t59 -16q49 0 91 24v372h164v-530h-140l-13 46q-70 -56 -168 -56z" />
    <glyph glyph-name="udieresis" unicode="&#xfc;" horiz-adv-x="609" 
d="M133 581v139h142v-139h-142zM329 581v139h142v-139h-142zM228 -10q-87 0 -130 40t-43 111v389h164v-334q0 -30 16 -46t59 -16q49 0 91 24v372h164v-530h-140l-13 46q-70 -56 -168 -56z" />
    <glyph glyph-name="yacute" unicode="&#xfd;" horiz-adv-x="556" 
d="M444 740l-114 -150h-135l81 150h168zM373 530h175l-148 -422q-21 -60 -41.5 -102t-54 -86.5t-83 -76.5t-116.5 -53l-59 130q112 47 151 107l-189 503h171l102 -334z" />
    <glyph glyph-name="thorn" unicode="&#xfe;" horiz-adv-x="624" 
d="M361 540q109 0 166 -61t57 -214q0 -137 -51.5 -206t-170.5 -69q-79 0 -138 33v-223h-164v920h164v-227q53 47 137 47zM316 133q59 0 80.5 28t21.5 104q0 77 -21.5 105t-80.5 28q-56 0 -92 -18v-228q35 -19 92 -19z" />
    <glyph glyph-name="ydieresis" unicode="&#xff;" horiz-adv-x="556" 
d="M251 720v-139h-142v139h142zM447 720v-139h-142v139h142zM373 530h175l-148 -422q-21 -60 -41.5 -102t-54 -86.5t-83 -76.5t-116.5 -53l-59 130q112 47 151 107l-189 503h171l102 -334z" />
    <glyph glyph-name="Amacron" unicode="&#x100;" 
d="M504 870v-120h-324v120h324zM507 0l-42 131h-248l-42 -131h-170l235 680h205l234 -680h-172zM262 271h158l-79 248z" />
    <glyph glyph-name="amacron" unicode="&#x101;" horiz-adv-x="565" 
d="M132 600v120h324v-120h-324zM217 -10q-98 0 -140 43t-42 134q0 87 46 119.5t148 32.5q64 0 117 -17v38q0 33 -24 48t-79 15q-86 0 -157 -17v135q85 19 180 19q119 0 181.5 -38.5t62.5 -132.5v-369h-128l-18 44q-53 -54 -147 -54zM262 115q55 0 84 12v81q-40 9 -84 9
q-34 0 -47 -12t-13 -38q0 -29 13 -40.5t47 -11.5z" />
    <glyph glyph-name="Abreve" unicode="&#x102;" 
d="M342 730q-95 0 -139 32.5t-45 112.5h123q1 -28 15.5 -39.5t45.5 -11.5t45.5 11.5t15.5 39.5h123q-1 -80 -45 -112.5t-139 -32.5zM507 0l-42 131h-248l-42 -131h-170l235 680h205l234 -680h-172zM262 271h158l-79 248z" />
    <glyph glyph-name="abreve" unicode="&#x103;" horiz-adv-x="565" 
d="M288 580q-95 0 -139 32.5t-45 112.5h123q1 -28 15.5 -39.5t45.5 -11.5t45.5 11.5t15.5 39.5h123q-1 -80 -45 -112.5t-139 -32.5zM217 -10q-98 0 -140 43t-42 134q0 87 46 119.5t148 32.5q64 0 117 -17v38q0 33 -24 48t-79 15q-86 0 -157 -17v135q85 19 180 19
q119 0 181.5 -38.5t62.5 -132.5v-369h-128l-18 44q-53 -54 -147 -54zM262 115q55 0 84 12v81q-40 9 -84 9q-34 0 -47 -12t-13 -38q0 -29 13 -40.5t47 -11.5z" />
    <glyph glyph-name="Aogonek" unicode="&#x104;" 
d="M586 -84q0 -12 8 -17t33 -5q29 0 52 5v-100q-40 -9 -83 -9q-78 0 -106.5 22.5t-28.5 65.5q0 35 21.5 63.5t67.5 58.5h-43l-42 131h-248l-42 -131h-170l235 680h205l234 -680q-52 -31 -72.5 -49t-20.5 -35zM262 271h158l-79 248z" />
    <glyph glyph-name="aogonek" unicode="&#x105;" horiz-adv-x="565" 
d="M510 0q-52 -31 -72.5 -49t-20.5 -35q0 -12 8 -17t33 -5q29 0 52 5v-100q-40 -9 -83 -9q-78 0 -106.5 22.5t-28.5 65.5q0 35 21 62.5t69 60.5l-18 43q-53 -54 -147 -54q-98 0 -140 43t-42 134q0 87 46 119.5t148 32.5q64 0 117 -17v38q0 33 -24 48t-79 15q-86 0 -157 -17
v135q85 19 180 19q119 0 181.5 -38.5t62.5 -132.5v-369zM346 127v81q-40 9 -84 9q-34 0 -47 -12t-13 -38q0 -29 13 -40.5t47 -11.5q55 0 84 12z" />
    <glyph glyph-name="Cacute" unicode="&#x106;" horiz-adv-x="593" 
d="M261 740l81 150h168l-114 -150h-135zM364 -10q-79 0 -134.5 15.5t-99 53.5t-64.5 107.5t-21 173.5t21 173.5t64.5 107.5t99 53.5t134.5 15.5q92 0 179 -21v-158q-83 23 -168 23q-87 0 -124.5 -40.5t-37.5 -153.5t37.5 -153.5t124.5 -40.5q85 0 168 23v-158
q-87 -21 -179 -21z" />
    <glyph glyph-name="cacute" unicode="&#x107;" horiz-adv-x="512" 
d="M205 590l81 150h168l-114 -150h-135zM315 -10q-140 0 -207.5 61t-67.5 214t67.5 214t207.5 61q78 0 151 -19v-147q-62 20 -128 20q-70 0 -101 -26.5t-31 -102.5t31 -102.5t101 -26.5q66 0 128 20v-147q-73 -19 -151 -19z" />
    <glyph glyph-name="Ccircumflex" unicode="&#x108;" horiz-adv-x="593" 
d="M132 740l137 150h130l133 -150h-155l-43 56l-48 -56h-154zM364 -10q-79 0 -134.5 15.5t-99 53.5t-64.5 107.5t-21 173.5t21 173.5t64.5 107.5t99 53.5t134.5 15.5q92 0 179 -21v-158q-83 23 -168 23q-87 0 -124.5 -40.5t-37.5 -153.5t37.5 -153.5t124.5 -40.5
q85 0 168 23v-158q-87 -21 -179 -21z" />
    <glyph glyph-name="ccircumflex" unicode="&#x109;" horiz-adv-x="512" 
d="M79 590l137 150h130l133 -150h-155l-43 56l-48 -56h-154zM315 -10q-140 0 -207.5 61t-67.5 214t67.5 214t207.5 61q78 0 151 -19v-147q-62 20 -128 20q-70 0 -101 -26.5t-31 -102.5t31 -102.5t101 -26.5q66 0 128 20v-147q-73 -19 -151 -19z" />
    <glyph glyph-name="Cdotaccent" unicode="&#x10a;" horiz-adv-x="593" 
d="M258 730v140h170v-140h-170zM364 -10q-79 0 -134.5 15.5t-99 53.5t-64.5 107.5t-21 173.5t21 173.5t64.5 107.5t99 53.5t134.5 15.5q92 0 179 -21v-158q-83 23 -168 23q-87 0 -124.5 -40.5t-37.5 -153.5t37.5 -153.5t124.5 -40.5q85 0 168 23v-158q-87 -21 -179 -21z" />
    <glyph glyph-name="cdotaccent" unicode="&#x10b;" horiz-adv-x="512" 
d="M207 580v140h170v-140h-170zM315 -10q-140 0 -207.5 61t-67.5 214t67.5 214t207.5 61q78 0 151 -19v-147q-62 20 -128 20q-70 0 -101 -26.5t-31 -102.5t31 -102.5t101 -26.5q66 0 128 20v-147q-73 -19 -151 -19z" />
    <glyph glyph-name="Ccaron" unicode="&#x10c;" horiz-adv-x="593" 
d="M141 890h154l48 -56l43 56h155l-133 -150h-130zM364 -10q-79 0 -134.5 15.5t-99 53.5t-64.5 107.5t-21 173.5t21 173.5t64.5 107.5t99 53.5t134.5 15.5q92 0 179 -21v-158q-83 23 -168 23q-87 0 -124.5 -40.5t-37.5 -153.5t37.5 -153.5t124.5 -40.5q85 0 168 23v-158
q-87 -21 -179 -21z" />
    <glyph glyph-name="ccaron" unicode="&#x10d;" horiz-adv-x="512" 
d="M88 740h154l48 -56l43 56h155l-133 -150h-130zM315 -10q-140 0 -207.5 61t-67.5 214t67.5 214t207.5 61q78 0 151 -19v-147q-62 20 -128 20q-70 0 -101 -26.5t-31 -102.5t31 -102.5t101 -26.5q66 0 128 20v-147q-73 -19 -151 -19z" />
    <glyph glyph-name="Dcaron" unicode="&#x10e;" horiz-adv-x="671" 
d="M392 740h-130l-137 150h154l48 -56l43 56h155zM318 680q75 0 128 -14.5t95.5 -51.5t63.5 -105t21 -169t-21 -169t-63.5 -105t-95.5 -51.5t-128 -14.5h-248v680h248zM320 152q81 0 109.5 44.5t28.5 143.5t-28.5 143.5t-109.5 44.5h-84v-376h84z" />
    <glyph glyph-name="dcaron" unicode="&#x10f;" horiz-adv-x="738" 
d="M400 720h164v-720h-137l-20 43q-53 -53 -144 -53q-109 0 -166 61t-57 214q0 137 51.5 206t170.5 69q78 0 138 -48v228zM632 720h136l-34 -180h-119zM400 150v227q-37 20 -92 20q-59 0 -80.5 -28t-21.5 -104q0 -77 21.5 -105t80.5 -28q56 0 92 18z" />
    <glyph glyph-name="Dcroat" unicode="&#x110;" horiz-adv-x="671" 
d="M318 680q75 0 128 -14.5t95.5 -51.5t63.5 -105t21 -169t-21 -169t-63.5 -105t-95.5 -51.5t-128 -14.5h-248v297h-63v86h63v297h248zM320 152q81 0 109.5 44.5t28.5 143.5t-28.5 143.5t-109.5 44.5h-84v-145h128v-86h-128v-145h84z" />
    <glyph glyph-name="dcroat" unicode="&#x111;" horiz-adv-x="624" 
d="M620 667v-86h-56v-581h-137l-20 43q-53 -53 -144 -53q-109 0 -166 61t-57 214q0 137 51.5 206t170.5 69q78 0 138 -48v89h-137v86h137v53h164v-53h56zM400 150v227q-37 20 -92 20q-59 0 -80.5 -28t-21.5 -104q0 -77 21.5 -105t80.5 -28q56 0 92 18z" />
    <glyph glyph-name="Emacron" unicode="&#x112;" horiz-adv-x="596" 
d="M142 750v120h324v-120h-324zM236 152h316l-32 -152h-450v680h465v-152h-299v-111h282v-146h-282v-119z" />
    <glyph glyph-name="emacron" unicode="&#x113;" horiz-adv-x="565" 
d="M121 600v120h324v-120h-324zM298 -10q-134 0 -196 63.5t-62 213.5q0 149 63.5 211t187.5 62q122 0 178 -61t56 -205q0 -39 -4 -61h-321q1 -50 30 -69t97 -19q79 0 167 35v-136q-66 -34 -196 -34zM200 318h170q-1 50 -19 72t-61 22q-48 0 -68 -22t-22 -72z" />
    <glyph glyph-name="Ebreve" unicode="&#x114;" horiz-adv-x="596" 
d="M311 730q-95 0 -139 32.5t-45 112.5h123q1 -28 15.5 -39.5t45.5 -11.5t45.5 11.5t15.5 39.5h123q-1 -80 -45 -112.5t-139 -32.5zM236 152h316l-32 -152h-450v680h465v-152h-299v-111h282v-146h-282v-119z" />
    <glyph glyph-name="ebreve" unicode="&#x115;" horiz-adv-x="565" 
d="M283 580q-95 0 -139 32.5t-45 112.5h123q1 -28 15.5 -39.5t45.5 -11.5t45.5 11.5t15.5 39.5h123q-1 -80 -45 -112.5t-139 -32.5zM298 -10q-134 0 -196 63.5t-62 213.5q0 149 63.5 211t187.5 62q122 0 178 -61t56 -205q0 -39 -4 -61h-321q1 -50 30 -69t97 -19q79 0 167 35
v-136q-66 -34 -196 -34zM200 318h170q-1 50 -19 72t-61 22q-48 0 -68 -22t-22 -72z" />
    <glyph glyph-name="Edotaccent" unicode="&#x116;" horiz-adv-x="596" 
d="M226 730v140h170v-140h-170zM236 152h316l-32 -152h-450v680h465v-152h-299v-111h282v-146h-282v-119z" />
    <glyph glyph-name="edotaccent" unicode="&#x117;" horiz-adv-x="565" 
d="M198 580v140h170v-140h-170zM298 -10q-134 0 -196 63.5t-62 213.5q0 149 63.5 211t187.5 62q122 0 178 -61t56 -205q0 -39 -4 -61h-321q1 -50 30 -69t97 -19q79 0 167 35v-136q-66 -34 -196 -34zM200 318h170q-1 50 -19 72t-61 22q-48 0 -68 -22t-22 -72z" />
    <glyph glyph-name="Eogonek" unicode="&#x118;" horiz-adv-x="596" 
d="M520 0q-52 -31 -72.5 -49t-20.5 -35q0 -12 8 -17t33 -5q29 0 52 5v-100q-40 -9 -83 -9q-78 0 -106.5 22.5t-28.5 65.5q0 35 21 62.5t68 59.5h-321v680h465v-152h-299v-111h282v-146h-282v-119h316z" />
    <glyph glyph-name="eogonek" unicode="&#x119;" horiz-adv-x="565" 
d="M525 274q0 -39 -4 -61h-321q1 -50 30 -69t97 -19q79 0 167 35v-136l-38 -23q-52 -31 -72 -49.5t-20 -35.5q0 -12 8 -17t33 -5q29 0 52 5v-100q-40 -9 -83 -9q-78 0 -106.5 22.5t-28.5 65.5q0 58 75 112h-16q-134 0 -196 63.5t-62 213.5q0 149 63.5 211t187.5 62
q122 0 178 -61t56 -205zM200 318h170q-1 50 -19 72t-61 22q-48 0 -68 -22t-22 -72z" />
    <glyph glyph-name="Ecaron" unicode="&#x11a;" horiz-adv-x="596" 
d="M378 740h-130l-137 150h154l48 -56l43 56h155zM236 152h316l-32 -152h-450v680h465v-152h-299v-111h282v-146h-282v-119z" />
    <glyph glyph-name="ecaron" unicode="&#x11b;" horiz-adv-x="565" 
d="M83 740h154l48 -56l43 56h155l-133 -150h-130zM298 -10q-134 0 -196 63.5t-62 213.5q0 149 63.5 211t187.5 62q122 0 178 -61t56 -205q0 -39 -4 -61h-321q1 -50 30 -69t97 -19q79 0 167 35v-136q-66 -34 -196 -34zM200 318h170q-1 50 -19 72t-61 22q-48 0 -68 -22
t-22 -72z" />
    <glyph glyph-name="Gcircumflex" unicode="&#x11c;" horiz-adv-x="654" 
d="M166 740l137 150h130l133 -150h-155l-43 56l-48 -56h-154zM367 -10q-168 0 -245 77.5t-77 273.5q0 195 76.5 272t248.5 77q105 0 205 -20v-158q-91 22 -179 22q-107 0 -145 -40.5t-38 -152.5t33.5 -153t113.5 -41q48 0 80 9v194l164 42v-366q-140 -36 -237 -36z" />
    <glyph glyph-name="gcircumflex" unicode="&#x11d;" horiz-adv-x="623" 
d="M118 590l137 150h130l133 -150h-155l-43 56l-48 -56h-154zM107 -210v141q144 6 214 24q49 12 67.5 31t18.5 52v19q-63 -34 -145 -34q-108 0 -165 59t-57 199q0 125 51.5 192t169.5 67q44 0 81 -15t57 -33v38h164v-456q0 -65 -11.5 -107t-43.5 -76t-90 -54.5t-150 -32.5
q-90 -12 -161 -14zM307 162q50 0 92 18v198q-44 19 -92 19q-58 0 -80 -26.5t-22 -89.5q0 -67 23 -93t79 -26z" />
    <glyph glyph-name="Gbreve" unicode="&#x11e;" horiz-adv-x="654" 
d="M362 730q-95 0 -139 32.5t-45 112.5h123q1 -28 15.5 -39.5t45.5 -11.5t45.5 11.5t15.5 39.5h123q-1 -80 -45 -112.5t-139 -32.5zM367 -10q-168 0 -245 77.5t-77 273.5q0 195 76.5 272t248.5 77q105 0 205 -20v-158q-91 22 -179 22q-107 0 -145 -40.5t-38 -152.5
t33.5 -153t113.5 -41q48 0 80 9v194l164 42v-366q-140 -36 -237 -36z" />
    <glyph glyph-name="gbreve" unicode="&#x11f;" horiz-adv-x="623" 
d="M302 580q-95 0 -139 32.5t-45 112.5h123q1 -28 15.5 -39.5t45.5 -11.5t45.5 11.5t15.5 39.5h123q-1 -80 -45 -112.5t-139 -32.5zM107 -210v141q144 6 214 24q49 12 67.5 31t18.5 52v19q-63 -34 -145 -34q-108 0 -165 59t-57 199q0 125 51.5 192t169.5 67q44 0 81 -15
t57 -33v38h164v-456q0 -65 -11.5 -107t-43.5 -76t-90 -54.5t-150 -32.5q-90 -12 -161 -14zM307 162q50 0 92 18v198q-44 19 -92 19q-58 0 -80 -26.5t-22 -89.5q0 -67 23 -93t79 -26z" />
    <glyph glyph-name="Gdotaccent" unicode="&#x120;" horiz-adv-x="654" 
d="M275 730v140h170v-140h-170zM367 -10q-168 0 -245 77.5t-77 273.5q0 195 76.5 272t248.5 77q105 0 205 -20v-158q-91 22 -179 22q-107 0 -145 -40.5t-38 -152.5t33.5 -153t113.5 -41q48 0 80 9v194l164 42v-366q-140 -36 -237 -36z" />
    <glyph glyph-name="gdotaccent" unicode="&#x121;" horiz-adv-x="623" 
d="M201 580v140h170v-140h-170zM107 -210v141q144 6 214 24q49 12 67.5 31t18.5 52v19q-63 -34 -145 -34q-108 0 -165 59t-57 199q0 125 51.5 192t169.5 67q44 0 81 -15t57 -33v38h164v-456q0 -65 -11.5 -107t-43.5 -76t-90 -54.5t-150 -32.5q-90 -12 -161 -14zM307 162
q50 0 92 18v198q-44 19 -92 19q-58 0 -80 -26.5t-22 -89.5q0 -67 23 -93t79 -26z" />
    <glyph glyph-name="Gcommaaccent" unicode="&#x122;" horiz-adv-x="654" 
d="M367 -10q-168 0 -245 77.5t-77 273.5q0 195 76.5 272t248.5 77q105 0 205 -20v-158q-91 22 -179 22q-107 0 -145 -40.5t-38 -152.5t33.5 -153t113.5 -41q48 0 80 9v194l164 42v-366q-140 -36 -237 -36zM255 -200l29 150h165l-45 -150h-149z" />
    <glyph glyph-name="gcommaaccent" unicode="&#x123;" horiz-adv-x="623" 
d="M208 590l77 170h123l-35 -170h-165zM107 -210v141q144 6 214 24q49 12 67.5 31t18.5 52v19q-63 -34 -145 -34q-108 0 -165 59t-57 199q0 125 51.5 192t169.5 67q44 0 81 -15t57 -33v38h164v-456q0 -65 -11.5 -107t-43.5 -76t-90 -54.5t-150 -32.5q-90 -12 -161 -14z
M307 162q50 0 92 18v198q-44 19 -92 19q-58 0 -80 -26.5t-22 -89.5q0 -67 23 -93t79 -26z" />
    <glyph glyph-name="Hcircumflex" unicode="&#x124;" horiz-adv-x="697" 
d="M351 796l-48 -56h-154l137 150h130l133 -150h-155zM461 680h166v-680h-166v264h-225v-264h-166v680h166v-264h225v264z" />
    <glyph glyph-name="hcircumflex" unicode="&#x125;" horiz-adv-x="613" 
d="M304 826l-48 -56h-154l137 150h130l133 -150h-155zM393 540q165 0 165 -151v-389h-164v334q0 30 -16.5 46t-60.5 16q-56 0 -93 -20v-376h-164v720h164v-234q65 54 169 54z" />
    <glyph glyph-name="Hbar" unicode="&#x126;" horiz-adv-x="697" 
d="M682 592v-95h-55v-497h-166v264h-225v-264h-166v497h-55v95h55v88h166v-88h225v88h166v-88h55zM461 416v81h-225v-81h225z" />
    <glyph glyph-name="hbar" unicode="&#x127;" horiz-adv-x="613" 
d="M393 540q165 0 165 -151v-389h-164v334q0 30 -16.5 46t-60.5 16q-56 0 -93 -20v-376h-164v587h-52v86h52v47h164v-47h141v-86h-141v-101q65 54 169 54z" />
    <glyph glyph-name="Itilde" unicode="&#x128;" horiz-adv-x="306" 
d="M234 876h97q0 -82 -26.5 -112t-83.5 -30q-37 0 -76 22.5t-49 22.5q-13 0 -17.5 -7t-6.5 -30h-97q0 82 26.5 112t83.5 30q37 0 76 -22.5t49 -22.5q13 0 17.5 7t6.5 30zM70 0v680h166v-680h-166z" />
    <glyph glyph-name="itilde" unicode="&#x129;" horiz-adv-x="276" 
d="M219 736h97q0 -82 -26.5 -112t-83.5 -30q-36 0 -76 22.5t-49 22.5q-13 0 -17.5 -7t-6.5 -30h-97q0 82 26.5 112t83.5 30q36 0 76 -22.5t49 -22.5q13 0 17.5 7t6.5 30zM56 0v530h164v-530h-164z" />
    <glyph glyph-name="Imacron" unicode="&#x12a;" horiz-adv-x="306" 
d="M-9 750v120h324v-120h-324zM70 0v680h166v-680h-166z" />
    <glyph glyph-name="imacron" unicode="&#x12b;" horiz-adv-x="276" 
d="M-24 600v120h324v-120h-324zM56 0v530h164v-530h-164z" />
    <glyph glyph-name="Ibreve" unicode="&#x12c;" horiz-adv-x="306" 
d="M153 730q-95 0 -139 32.5t-45 112.5h123q1 -28 15.5 -39.5t45.5 -11.5t45.5 11.5t15.5 39.5h123q-1 -80 -45 -112.5t-139 -32.5zM70 0v680h166v-680h-166z" />
    <glyph glyph-name="ibreve" unicode="&#x12d;" horiz-adv-x="276" 
d="M138 580q-95 0 -139 32.5t-45 112.5h123q1 -28 15.5 -39.5t45.5 -11.5t45.5 11.5t15.5 39.5h123q-1 -80 -45 -112.5t-139 -32.5zM56 0v530h164v-530h-164z" />
    <glyph glyph-name="Iogonek" unicode="&#x12e;" horiz-adv-x="306" 
d="M236 0q-52 -31 -72.5 -49t-20.5 -35q0 -12 8 -17t33 -5q29 0 52 5v-100q-40 -9 -83 -9q-78 0 -106.5 22.5t-28.5 65.5q0 35 21 62.5t68 59.5h-37v680h166v-680z" />
    <glyph glyph-name="iogonek" unicode="&#x12f;" horiz-adv-x="278" 
d="M53 580v140h172v-140h-172zM138 -210q-78 0 -106.5 22.5t-28.5 65.5q0 35 21 62.5t68 59.5h-35v530h164v-530q-52 -31 -72.5 -49t-20.5 -35q0 -12 8 -17t33 -5q29 0 52 5v-100q-40 -9 -83 -9z" />
    <glyph glyph-name="Idotaccent" unicode="&#x130;" horiz-adv-x="306" 
d="M68 730v140h170v-140h-170zM70 0v680h166v-680h-166z" />
    <glyph glyph-name="dotlessi" unicode="&#x131;" horiz-adv-x="284" 
d="M60 0v530h164v-530h-164z" />
    <glyph glyph-name="Jcircumflex" unicode="&#x134;" horiz-adv-x="543" 
d="M273 796l-48 -56h-154l137 150h130l133 -150h-155zM480 680v-458q0 -129 -57.5 -180.5t-210.5 -51.5q-98 0 -173 20v159q79 -23 153 -23q71 0 96.5 18t25.5 79v285h-260l30 152h396z" />
    <glyph glyph-name="jcircumflex" unicode="&#x135;" horiz-adv-x="276" 
d="M-56 590l137 150h130l133 -150h-155l-43 56l-48 -56h-154zM74 -210l-117 107q72 79 89.5 121.5t17.5 119.5v392h164v-402q0 -99 -28 -169t-126 -169z" />
    <glyph glyph-name="Kcommaaccent" unicode="&#x136;" horiz-adv-x="663" 
d="M405 338l261 -338h-204l-226 308v-308h-166v680h166v-315l209 315h203zM220 -200l29 150h165l-45 -150h-149z" />
    <glyph glyph-name="kcommaaccent" unicode="&#x137;" horiz-adv-x="586" 
d="M396 271l186 -271h-194l-164 259v-259h-164v720h164v-445l153 255h193zM185 -200l29 150h165l-45 -150h-149z" />
    <glyph glyph-name="kgreenlandic" unicode="&#x138;" horiz-adv-x="586" 
d="M582 0h-194l-164 259v-259h-164v530h164v-255l153 255h193l-174 -259z" />
    <glyph glyph-name="Lacute" unicode="&#x139;" horiz-adv-x="549" 
d="M70 740l81 150h168l-114 -150h-135zM70 0v680h166v-528h295l-30 -152h-431z" />
    <glyph glyph-name="lacute" unicode="&#x13a;" horiz-adv-x="284" 
d="M70 770l81 150h168l-114 -150h-135zM70 0v720h164v-720h-164z" />
    <glyph glyph-name="Lcommaaccent" unicode="&#x13b;" horiz-adv-x="549" 
d="M70 0v680h166v-528h295l-30 -152h-431zM199 -200l29 150h165l-45 -150h-149z" />
    <glyph glyph-name="lcommaaccent" unicode="&#x13c;" horiz-adv-x="284" 
d="M47 0v720h164v-720h-164zM20 -200l29 150h165l-45 -150h-149z" />
    <glyph glyph-name="Lcaron" unicode="&#x13d;" horiz-adv-x="549" 
d="M70 0v680h166v-528h295l-30 -152h-431zM295 470l45 210h165l-67 -210h-143z" />
    <glyph glyph-name="lcaron" unicode="&#x13e;" horiz-adv-x="425" 
d="M60 0v720h164v-720h-164zM273 540l17 180h136l-34 -180h-119z" />
    <glyph glyph-name="Ldot" unicode="&#x13f;" horiz-adv-x="549" 
d="M70 0v680h166v-528h295l-30 -152h-431zM310 222v169h168v-169h-168z" />
    <glyph glyph-name="ldot" unicode="&#x140;" horiz-adv-x="475" 
d="M60 0v720h164v-720h-164zM280 222v169h168v-169h-168z" />
    <glyph glyph-name="Lslash" unicode="&#x141;" horiz-adv-x="549" 
d="M236 152h295l-30 -152h-431v266l-64 -19v120l64 19v294h166v-244l174 52v-120l-174 -52v-164z" />
    <glyph glyph-name="lslash" unicode="&#x142;" horiz-adv-x="355" 
d="M340 537v-149l-82 -28v-360h-164v305l-79 -27v149l79 27v266h164v-211z" />
    <glyph glyph-name="Nacute" unicode="&#x143;" horiz-adv-x="700" 
d="M264 740l81 150h168l-114 -150h-135zM70 0v680h144l250 -390v390h166v-680h-141l-253 387v-387h-166z" />
    <glyph glyph-name="nacute" unicode="&#x144;" horiz-adv-x="613" 
d="M235 590l81 150h168l-114 -150h-135zM60 0v530h157v-50q64 60 176 60q165 0 165 -151v-389h-164v334q0 30 -16.5 46t-60.5 16q-56 0 -93 -20v-376h-164z" />
    <glyph glyph-name="Ncommaaccent" unicode="&#x145;" horiz-adv-x="700" 
d="M70 0v680h144l250 -390v390h166v-680h-141l-253 387v-387h-166zM241 -200l29 150h165l-45 -150h-149z" />
    <glyph glyph-name="ncommaaccent" unicode="&#x146;" horiz-adv-x="613" 
d="M60 0v530h157v-50q64 60 176 60q165 0 165 -151v-389h-164v334q0 30 -16.5 46t-60.5 16q-56 0 -93 -20v-376h-164zM203 -200l29 150h165l-45 -150h-149z" />
    <glyph glyph-name="Ncaron" unicode="&#x147;" horiz-adv-x="700" 
d="M156 890h154l48 -56l43 56h155l-133 -150h-130zM70 0v680h144l250 -390v390h166v-680h-141l-253 387v-387h-166z" />
    <glyph glyph-name="ncaron" unicode="&#x148;" horiz-adv-x="613" 
d="M134 740h154l48 -56l43 56h155l-133 -150h-130zM60 0v530h157v-50q64 60 176 60q165 0 165 -151v-389h-164v334q0 30 -16.5 46t-60.5 16q-56 0 -93 -20v-376h-164z" />
    <glyph glyph-name="napostrophe" unicode="&#x149;" horiz-adv-x="649" 
d="M10 570l17 180h136l-34 -180h-119zM96 0v530h157v-50q64 60 176 60q165 0 165 -151v-389h-164v334q0 30 -16.5 46t-60.5 16q-56 0 -93 -20v-376h-164z" />
    <glyph glyph-name="Eng" unicode="&#x14a;" horiz-adv-x="700" 
d="M464 680h166v-680q0 -102 -66 -148.5t-226 -61.5v150q68 7 97 24.5t29 58.5v15l-228 349v-387h-166v680h144l250 -390v390z" />
    <glyph glyph-name="eng" unicode="&#x14b;" horiz-adv-x="613" 
d="M393 540q165 0 165 -151v-389q0 -58 -28 -95t-102 -100q-4 -3 -6 -5t-5.5 -5t-6.5 -5l-104 102q50 43 69 71t19 62v309q0 30 -16.5 46t-60.5 16q-56 0 -93 -20v-376h-164v530h157v-50q64 60 176 60z" />
    <glyph glyph-name="Omacron" unicode="&#x14c;" 
d="M180 750v120h324v-120h-324zM342 -10q-161 0 -229 78t-68 272t68 272t229 78q162 0 229.5 -78t67.5 -272t-68 -272t-229 -78zM342 145q76 0 102.5 44t26.5 151t-26 150.5t-103 43.5q-76 0 -102.5 -43.5t-26.5 -150.5t26.5 -151t102.5 -44z" />
    <glyph glyph-name="omacron" unicode="&#x14d;" horiz-adv-x="608" 
d="M142 600v120h324v-120h-324zM304 -10q-130 0 -197 60.5t-67 214.5q0 151 67.5 213t196.5 62t196.5 -62t67.5 -213q0 -154 -67 -214.5t-197 -60.5zM304 134q51 0 74.5 26.5t23.5 104.5q0 77 -23.5 104t-74.5 27t-74.5 -27t-23.5 -104q0 -78 23.5 -104.5t74.5 -26.5z" />
    <glyph glyph-name="Obreve" unicode="&#x14e;" 
d="M342 730q-95 0 -139 32.5t-45 112.5h123q1 -28 15.5 -39.5t45.5 -11.5t45.5 11.5t15.5 39.5h123q-1 -80 -45 -112.5t-139 -32.5zM342 -10q-161 0 -229 78t-68 272t68 272t229 78q162 0 229.5 -78t67.5 -272t-68 -272t-229 -78zM342 145q76 0 102.5 44t26.5 151t-26 150.5
t-103 43.5q-76 0 -102.5 -43.5t-26.5 -150.5t26.5 -151t102.5 -44z" />
    <glyph glyph-name="obreve" unicode="&#x14f;" horiz-adv-x="608" 
d="M304 580q-95 0 -139 32.5t-45 112.5h123q1 -28 15.5 -39.5t45.5 -11.5t45.5 11.5t15.5 39.5h123q-1 -80 -45 -112.5t-139 -32.5zM304 -10q-130 0 -197 60.5t-67 214.5q0 151 67.5 213t196.5 62t196.5 -62t67.5 -213q0 -154 -67 -214.5t-197 -60.5zM304 134
q51 0 74.5 26.5t23.5 104.5q0 77 -23.5 104t-74.5 27t-74.5 -27t-23.5 -104q0 -78 23.5 -104.5t74.5 -26.5z" />
    <glyph glyph-name="Ohungarumlaut" unicode="&#x150;" 
d="M149 740l81 150h168l-114 -150h-135zM359 740l81 150h168l-114 -150h-135zM342 -10q-161 0 -229 78t-68 272t68 272t229 78q162 0 229.5 -78t67.5 -272t-68 -272t-229 -78zM342 145q76 0 102.5 44t26.5 151t-26 150.5t-103 43.5q-76 0 -102.5 -43.5t-26.5 -150.5
t26.5 -151t102.5 -44z" />
    <glyph glyph-name="ohungarumlaut" unicode="&#x151;" horiz-adv-x="608" 
d="M99 590l81 150h168l-114 -150h-135zM309 590l81 150h168l-114 -150h-135zM304 -10q-130 0 -197 60.5t-67 214.5q0 151 67.5 213t196.5 62t196.5 -62t67.5 -213q0 -154 -67 -214.5t-197 -60.5zM304 134q51 0 74.5 26.5t23.5 104.5q0 77 -23.5 104t-74.5 27t-74.5 -27
t-23.5 -104q0 -78 23.5 -104.5t74.5 -26.5z" />
    <glyph glyph-name="OE" unicode="&#x152;" horiz-adv-x="961" 
d="M601 152h316l-32 -152h-532q-75 0 -128 14.5t-95.5 51.5t-63.5 105t-21 169t21 169t63.5 105t95.5 51.5t128 14.5h547v-152h-299v-111h282v-146h-282v-119zM351 152h84v376h-84q-81 0 -109.5 -44.5t-28.5 -143.5t28.5 -143.5t109.5 -44.5z" />
    <glyph glyph-name="oe" unicode="&#x153;" horiz-adv-x="931" 
d="M674 -10q-131 0 -189 79q-64 -79 -181 -79q-130 0 -197 60.5t-67 214.5q0 151 67.5 213t196.5 62q115 0 174 -78q56 78 179 78q122 0 178 -61t56 -205q0 -39 -4 -61h-321q1 -50 30 -69t97 -19q79 0 167 35v-136q-66 -34 -186 -34zM566 318h170q-1 50 -19 72t-61 22
q-48 0 -68 -22t-22 -72zM304 134q51 0 76 27t25 105q0 76 -25 103t-76 27t-76 -27t-25 -104q0 -78 24.5 -104.5t76.5 -26.5z" />
    <glyph glyph-name="Racute" unicode="&#x154;" horiz-adv-x="660" 
d="M477 890l-114 -150h-135l81 150h168zM479 248l165 -248h-189l-137 220h-82v-220h-166v680h277q64 0 106.5 -8t79.5 -30.5t54.5 -68.5t17.5 -117q0 -93 -33.5 -140.5t-92.5 -67.5zM340 367q57 0 77 15t20 64t-20.5 65.5t-76.5 16.5h-104v-161h104z" />
    <glyph glyph-name="racute" unicode="&#x155;" horiz-adv-x="426" 
d="M136 590l81 150h168l-114 -150h-135zM60 0v530h157v-69q58 69 189 79v-153q-117 -5 -182 -34v-353h-164z" />
    <glyph glyph-name="Rcommaaccent" unicode="&#x156;" horiz-adv-x="660" 
d="M479 248l165 -248h-189l-137 220h-82v-220h-166v680h277q64 0 106.5 -8t79.5 -30.5t54.5 -68.5t17.5 -117q0 -93 -33.5 -140.5t-92.5 -67.5zM340 367q57 0 77 15t20 64t-20.5 65.5t-76.5 16.5h-104v-161h104zM230 -200l29 150h165l-45 -150h-149z" />
    <glyph glyph-name="rcommaaccent" unicode="&#x157;" horiz-adv-x="426" 
d="M60 0v530h157v-69q58 69 189 79v-153q-117 -5 -182 -34v-353h-164zM31 -200l29 150h165l-45 -150h-149z" />
    <glyph glyph-name="Rcaron" unicode="&#x158;" horiz-adv-x="660" 
d="M389 740h-130l-137 150h154l48 -56l43 56h155zM479 248l165 -248h-189l-137 220h-82v-220h-166v680h277q64 0 106.5 -8t79.5 -30.5t54.5 -68.5t17.5 -117q0 -93 -33.5 -140.5t-92.5 -67.5zM340 367q57 0 77 15t20 64t-20.5 65.5t-76.5 16.5h-104v-161h104z" />
    <glyph glyph-name="rcaron" unicode="&#x159;" horiz-adv-x="426" 
d="M47 740h154l48 -56l43 56h155l-133 -150h-130zM60 0v530h157v-69q58 69 189 79v-153q-117 -5 -182 -34v-353h-164z" />
    <glyph glyph-name="Sacute" unicode="&#x15a;" horiz-adv-x="569" 
d="M204 740l81 150h168l-114 -150h-135zM257 -10q-112 0 -210 32v155q111 -38 207 -38q64 0 88.5 11.5t24.5 43.5q0 26 -15 39t-57 31l-131 54q-67 28 -97 68t-30 113q0 102 56.5 146.5t208.5 44.5q119 0 199 -26v-152q-83 31 -198 31q-63 0 -82 -9.5t-19 -33.5
q0 -23 16.5 -36.5t66.5 -33.5l90 -36q91 -36 124 -78t33 -118q0 -113 -63.5 -160.5t-211.5 -47.5z" />
    <glyph glyph-name="sacute" unicode="&#x15b;" horiz-adv-x="508" 
d="M165 590l81 150h168l-114 -150h-135zM243 -10q-105 0 -192 25v148q117 -35 198 -35q44 0 59 6t15 22q0 14 -9.5 21.5t-36.5 15.5l-104 29q-72 20 -102.5 55.5t-30.5 108.5q0 87 54.5 120.5t176.5 33.5q109 0 176 -20v-145q-85 29 -174 29q-45 0 -59.5 -5.5t-14.5 -19.5
q0 -13 9 -20t34 -14l96 -27q75 -21 107.5 -55.5t32.5 -106.5q0 -94 -53.5 -130t-181.5 -36z" />
    <glyph glyph-name="Scircumflex" unicode="&#x15c;" horiz-adv-x="569" 
d="M79 740l137 150h130l133 -150h-155l-43 56l-48 -56h-154zM257 -10q-112 0 -210 32v155q111 -38 207 -38q64 0 88.5 11.5t24.5 43.5q0 26 -15 39t-57 31l-131 54q-67 28 -97 68t-30 113q0 102 56.5 146.5t208.5 44.5q119 0 199 -26v-152q-83 31 -198 31q-63 0 -82 -9.5
t-19 -33.5q0 -23 16.5 -36.5t66.5 -33.5l90 -36q91 -36 124 -78t33 -118q0 -113 -63.5 -160.5t-211.5 -47.5z" />
    <glyph glyph-name="scircumflex" unicode="&#x15d;" horiz-adv-x="508" 
d="M43 590l137 150h130l133 -150h-155l-43 56l-48 -56h-154zM243 -10q-105 0 -192 25v148q117 -35 198 -35q44 0 59 6t15 22q0 14 -9.5 21.5t-36.5 15.5l-104 29q-72 20 -102.5 55.5t-30.5 108.5q0 87 54.5 120.5t176.5 33.5q109 0 176 -20v-145q-85 29 -174 29
q-45 0 -59.5 -5.5t-14.5 -19.5q0 -13 9 -20t34 -14l96 -27q75 -21 107.5 -55.5t32.5 -106.5q0 -94 -53.5 -130t-181.5 -36z" />
    <glyph glyph-name="Scedilla" unicode="&#x15e;" horiz-adv-x="569" 
d="M532 198q0 -103 -52.5 -151t-171.5 -56l-8 -31q60 0 85 -19.5t25 -59.5q0 -91 -142 -91q-54 0 -88 6v80q27 -6 67 -6q44 0 44 21q0 13 -18 17t-75 4l21 79q-87 3 -172 31v155q111 -38 207 -38q64 0 88.5 11.5t24.5 43.5q0 26 -15 39t-57 31l-131 54q-67 28 -97 68
t-30 113q0 102 56.5 146.5t208.5 44.5q119 0 199 -26v-152q-83 31 -198 31q-63 0 -82 -9.5t-19 -33.5q0 -23 16.5 -36.5t66.5 -33.5l90 -36q91 -36 124 -78t33 -118z" />
    <glyph glyph-name="scedilla" unicode="&#x15f;" horiz-adv-x="508" 
d="M478 156q0 -84 -42 -121t-139 -43l-8 -32q60 0 85 -19.5t25 -59.5q0 -91 -142 -91q-53 0 -88 6v80q27 -6 67 -6q44 0 44 21q0 13 -18 17t-75 4l22 79q-86 4 -158 24v148q117 -35 198 -35q44 0 59 6t15 22q0 14 -9.5 21.5t-36.5 15.5l-104 29q-72 20 -102.5 55.5
t-30.5 108.5q0 87 54.5 120.5t176.5 33.5q109 0 176 -20v-145q-85 29 -174 29q-45 0 -59.5 -5.5t-14.5 -19.5q0 -13 9 -20t34 -14l96 -27q75 -21 107.5 -55.5t32.5 -106.5z" />
    <glyph glyph-name="Scaron" unicode="&#x160;" horiz-adv-x="569" 
d="M83 890h154l48 -56l43 56h155l-133 -150h-130zM257 -10q-112 0 -210 32v155q111 -38 207 -38q64 0 88.5 11.5t24.5 43.5q0 26 -15 39t-57 31l-131 54q-67 28 -97 68t-30 113q0 102 56.5 146.5t208.5 44.5q119 0 199 -26v-152q-83 31 -198 31q-63 0 -82 -9.5t-19 -33.5
q0 -23 16.5 -36.5t66.5 -33.5l90 -36q91 -36 124 -78t33 -118q0 -113 -63.5 -160.5t-211.5 -47.5z" />
    <glyph glyph-name="scaron" unicode="&#x161;" horiz-adv-x="508" 
d="M52 740h154l48 -56l43 56h155l-133 -150h-130zM243 -10q-105 0 -192 25v148q117 -35 198 -35q44 0 59 6t15 22q0 14 -9.5 21.5t-36.5 15.5l-104 29q-72 20 -102.5 55.5t-30.5 108.5q0 87 54.5 120.5t176.5 33.5q109 0 176 -20v-145q-85 29 -174 29q-45 0 -59.5 -5.5
t-14.5 -19.5q0 -13 9 -20t34 -14l96 -27q75 -21 107.5 -55.5t32.5 -106.5q0 -94 -53.5 -130t-181.5 -36z" />
    <glyph glyph-name="uni0162" unicode="&#x162;" horiz-adv-x="583" 
d="M372 528v-528l-10 -40q60 0 85 -19.5t25 -59.5q0 -91 -142 -91q-54 0 -88 6v80q27 -6 67 -6q44 0 44 21q0 13 -18 17t-75 4l24 88h-78v528h-191v152h563l-28 -152h-178z" />
    <glyph glyph-name="uni0163" unicode="&#x163;" horiz-adv-x="456" 
d="M419 8q-36 -14 -106 -17l-8 -31q60 0 85 -19.5t25 -59.5q0 -91 -142 -91q-53 0 -88 6v80q27 -6 67 -6q44 0 44 21q0 13 -18 17t-75 4l23 83q-127 23 -127 152v243h-89v140h89v113l162 47v-160h157v-140h-157v-207q0 -27 14 -37t49 -10q46 0 95 14v-142z" />
    <glyph glyph-name="Tcaron" unicode="&#x164;" horiz-adv-x="583" 
d="M92 890h154l48 -56l43 56h155l-133 -150h-130zM206 0v528h-191v152h563l-28 -152h-178v-528h-166z" />
    <glyph glyph-name="tcaron" unicode="&#x165;" horiz-adv-x="456" 
d="M305 580l17 180h136l-34 -180h-119zM279 -10q-84 0 -132 38.5t-48 118.5v243h-89v140h89v113l162 47v-160h157v-140h-157v-207q0 -27 14 -37t49 -10q46 0 95 14v-142q-48 -18 -140 -18z" />
    <glyph glyph-name="Tbar" unicode="&#x166;" horiz-adv-x="583" 
d="M550 528h-178v-170h95v-86h-95v-272h-166v272h-96v86h96v170h-191v152h563z" />
    <glyph glyph-name="tbar" unicode="&#x167;" horiz-adv-x="456" 
d="M419 222h-158v-39q0 -27 14 -37t49 -10q46 0 95 14v-142q-48 -18 -140 -18q-84 0 -132 38.5t-48 118.5v75h-89v86h89v82h-89v140h89v113l162 47v-160h157v-140h-157v-82h158v-86z" />
    <glyph glyph-name="Utilde" unicode="&#x168;" 
d="M423 886h97q0 -82 -26.5 -112t-83.5 -30q-36 0 -76 22.5t-49 22.5q-13 0 -17.5 -7t-6.5 -30h-97q0 82 26.5 112t83.5 30q36 0 76 -22.5t49 -22.5q13 0 17.5 7t6.5 30zM342 -10q-139 0 -209 52.5t-70 188.5v449h166v-420q0 -67 23.5 -90.5t89.5 -23.5t89.5 23.5t23.5 90.5
v420h166v-449q0 -136 -70 -188.5t-209 -52.5z" />
    <glyph glyph-name="utilde" unicode="&#x169;" horiz-adv-x="609" 
d="M383 736h97q0 -82 -26.5 -112t-83.5 -30q-36 0 -76 22.5t-49 22.5q-13 0 -17.5 -7t-6.5 -30h-97q0 82 26.5 112t83.5 30q36 0 76 -22.5t49 -22.5q13 0 17.5 7t6.5 30zM228 -10q-87 0 -130 40t-43 111v389h164v-334q0 -30 16 -46t59 -16q49 0 91 24v372h164v-530h-140
l-13 46q-70 -56 -168 -56z" />
    <glyph glyph-name="Umacron" unicode="&#x16a;" 
d="M180 750v120h324v-120h-324zM342 -10q-139 0 -209 52.5t-70 188.5v449h166v-420q0 -67 23.5 -90.5t89.5 -23.5t89.5 23.5t23.5 90.5v420h166v-449q0 -136 -70 -188.5t-209 -52.5z" />
    <glyph glyph-name="umacron" unicode="&#x16b;" horiz-adv-x="609" 
d="M140 600v120h324v-120h-324zM228 -10q-87 0 -130 40t-43 111v389h164v-334q0 -30 16 -46t59 -16q49 0 91 24v372h164v-530h-140l-13 46q-70 -56 -168 -56z" />
    <glyph glyph-name="Ubreve" unicode="&#x16c;" 
d="M342 730q-95 0 -139 32.5t-45 112.5h123q1 -28 15.5 -39.5t45.5 -11.5t45.5 11.5t15.5 39.5h123q-1 -80 -45 -112.5t-139 -32.5zM342 -10q-139 0 -209 52.5t-70 188.5v449h166v-420q0 -67 23.5 -90.5t89.5 -23.5t89.5 23.5t23.5 90.5v420h166v-449q0 -136 -70 -188.5
t-209 -52.5z" />
    <glyph glyph-name="ubreve" unicode="&#x16d;" horiz-adv-x="609" 
d="M302 580q-95 0 -139 32.5t-45 112.5h123q1 -28 15.5 -39.5t45.5 -11.5t45.5 11.5t15.5 39.5h123q-1 -80 -45 -112.5t-139 -32.5zM228 -10q-87 0 -130 40t-43 111v389h164v-334q0 -30 16 -46t59 -16q49 0 91 24v372h164v-530h-140l-13 46q-70 -56 -168 -56z" />
    <glyph glyph-name="Uring" unicode="&#x16e;" 
d="M342 970q74 0 104.5 -26.5t30.5 -83.5t-30.5 -83.5t-104.5 -26.5t-104.5 26.5t-30.5 83.5t30.5 83.5t104.5 26.5zM342 818q31 0 43 10.5t12 32.5t-12 32t-43 10t-43 -10t-12 -32t12 -32.5t43 -10.5zM342 -10q-139 0 -209 52.5t-70 188.5v449h166v-420q0 -67 23.5 -90.5
t89.5 -23.5t89.5 23.5t23.5 90.5v420h166v-449q0 -136 -70 -188.5t-209 -52.5z" />
    <glyph glyph-name="uring" unicode="&#x16f;" horiz-adv-x="609" 
d="M302 820q74 0 104.5 -26.5t30.5 -83.5t-30.5 -83.5t-104.5 -26.5t-104.5 26.5t-30.5 83.5t30.5 83.5t104.5 26.5zM302 668q31 0 43 10.5t12 32.5t-12 32t-43 10t-43 -10t-12 -32t12 -32.5t43 -10.5zM228 -10q-87 0 -130 40t-43 111v389h164v-334q0 -30 16 -46t59 -16
q49 0 91 24v372h164v-530h-140l-13 46q-70 -56 -168 -56z" />
    <glyph glyph-name="Uhungarumlaut" unicode="&#x170;" 
d="M147 740l81 150h168l-114 -150h-135zM357 740l81 150h168l-114 -150h-135zM342 -10q-139 0 -209 52.5t-70 188.5v449h166v-420q0 -67 23.5 -90.5t89.5 -23.5t89.5 23.5t23.5 90.5v420h166v-449q0 -136 -70 -188.5t-209 -52.5z" />
    <glyph glyph-name="uhungarumlaut" unicode="&#x171;" horiz-adv-x="609" 
d="M110 590l81 150h168l-114 -150h-135zM320 590l81 150h168l-114 -150h-135zM228 -10q-87 0 -130 40t-43 111v389h164v-334q0 -30 16 -46t59 -16q49 0 91 24v372h164v-530h-140l-13 46q-70 -56 -168 -56z" />
    <glyph glyph-name="Uogonek" unicode="&#x172;" 
d="M455 680h166v-449q0 -54 -11 -94t-32.5 -65.5t-45.5 -41t-59 -28.5q-55 -20 -85.5 -43t-30.5 -43q0 -12 8 -17t33 -5q29 0 52 5v-100q-40 -9 -83 -9q-78 0 -106.5 22.5t-28.5 65.5q0 60 76 115h-2q-243 0 -243 238v449h166v-420q0 -67 23.5 -90.5t89.5 -23.5t89.5 23.5
t23.5 90.5v420z" />
    <glyph glyph-name="uogonek" unicode="&#x173;" horiz-adv-x="609" 
d="M549 0q-52 -31 -72.5 -49t-20.5 -35q0 -12 8 -17t33 -5q29 0 52 5v-100q-40 -9 -83 -9q-78 0 -106.5 22.5t-28.5 65.5q0 34 19 61t59 61l-13 46q-70 -56 -168 -56q-87 0 -130 40t-43 111v389h164v-334q0 -30 16 -46t59 -16q49 0 91 24v372h164v-530z" />
    <glyph glyph-name="Wcircumflex" unicode="&#x174;" horiz-adv-x="928" 
d="M264 740l137 150h130l133 -150h-155l-43 56l-48 -56h-154zM185 0l-170 680h164l103 -458l115 458h134l115 -458l103 458h164l-170 -680h-177l-102 378l-102 -378h-177z" />
    <glyph glyph-name="wcircumflex" unicode="&#x175;" horiz-adv-x="831" 
d="M216 590l137 150h130l133 -150h-155l-43 56l-48 -56h-154zM140 0l-132 530h159l77 -360l87 360h170l87 -360l76 360h159l-132 -530h-189l-86 322l-87 -322h-189z" />
    <glyph glyph-name="Ycircumflex" unicode="&#x176;" horiz-adv-x="632" 
d="M116 740l137 150h130l133 -150h-155l-43 56l-48 -56h-154zM233 0v243l-225 437h182l126 -264l125 264h183l-225 -437v-243h-166z" />
    <glyph glyph-name="ycircumflex" unicode="&#x177;" horiz-adv-x="556" 
d="M280 646l-48 -56h-154l137 150h130l133 -150h-155zM373 530h175l-148 -422q-21 -60 -41.5 -102t-54 -86.5t-83 -76.5t-116.5 -53l-59 130q112 47 151 107l-189 503h171l102 -334z" />
    <glyph glyph-name="Ydieresis" unicode="&#x178;" horiz-adv-x="632" 
d="M147 731v139h142v-139h-142zM343 731v139h142v-139h-142zM233 0v243l-225 437h182l126 -264l125 264h183l-225 -437v-243h-166z" />
    <glyph glyph-name="Zacute" unicode="&#x179;" horiz-adv-x="559" 
d="M185 740l81 150h168l-114 -150h-135zM41 0v129l277 399h-280v152h483v-129l-282 -399h277v-152h-475z" />
    <glyph glyph-name="zacute" unicode="&#x17a;" horiz-adv-x="499" 
d="M155 590l81 150h168l-114 -150h-135zM32 0v98l232 289h-222v143h425v-113l-223 -274h216v-143h-428z" />
    <glyph glyph-name="Zdotaccent" unicode="&#x17b;" horiz-adv-x="559" 
d="M195 730v140h170v-140h-170zM41 0v129l277 399h-280v152h483v-129l-282 -399h277v-152h-475z" />
    <glyph glyph-name="zdotaccent" unicode="&#x17c;" horiz-adv-x="499" 
d="M169 580v140h170v-140h-170zM32 0v98l232 289h-222v143h425v-113l-223 -274h216v-143h-428z" />
    <glyph glyph-name="Zcaron" unicode="&#x17d;" horiz-adv-x="559" 
d="M80 890h154l48 -56l43 56h155l-133 -150h-130zM41 0v129l277 399h-280v152h483v-129l-282 -399h277v-152h-475z" />
    <glyph glyph-name="zcaron" unicode="&#x17e;" horiz-adv-x="499" 
d="M54 740h154l48 -56l43 56h155l-133 -150h-130zM32 0v98l232 289h-222v143h425v-113l-223 -274h216v-143h-428z" />
    <glyph glyph-name="uni018F" unicode="&#x18f;" horiz-adv-x="673" 
d="M304 690q186 0 255 -76t69 -274q0 -191 -65.5 -270.5t-226.5 -79.5q-156 0 -220 65t-71 226v125h411q-5 70 -36.5 99.5t-112.5 29.5q-57 0 -209 -15v152q113 18 206 18zM336 146q67 0 91.5 27t28.5 97h-241q2 -66 27 -95t94 -29z" />
    <glyph glyph-name="florin" unicode="&#x192;" horiz-adv-x="456" 
d="M294 545v-15h135v-130h-135v-272q0 -99 -28 -169t-126 -169l-117 107q72 79 89.5 121.5t17.5 119.5v262h-99v130h99v23q0 64 35 106.5t148 93.5l60 27l58 -143l-76 -31q-33 -14 -47 -27t-14 -34z" />
    <glyph glyph-name="uni019D" unicode="&#x19d;" horiz-adv-x="700" 
d="M464 680h166v-680h-141l-253 387v-387q0 -103 -53 -149t-189 -61v156q25 4 35.5 6.5t22 10t15 21.5t3.5 39v657h144l250 -390v390z" />
    <glyph glyph-name="Ohorn" unicode="&#x1a0;" 
d="M639 750q0 -81 -68 -138q68 -78 68 -272t-68 -272t-229 -78t-229 78t-68 272t68 272t229 78q77 0 131 -16q19 29 19 100q0 19 -2 36h145q4 -27 4 -60zM342 145q76 0 102.5 44t26.5 151t-26 150.5t-103 43.5q-76 0 -102.5 -43.5t-26.5 -150.5t26.5 -151t102.5 -44z" />
    <glyph glyph-name="ohorn" unicode="&#x1a1;" horiz-adv-x="608" 
d="M508 470q60 -66 60 -205q0 -154 -67 -214.5t-197 -60.5t-197 60.5t-67 214.5q0 151 67.5 213t196.5 62q59 0 100 -11q16 31 16 95q0 19 -2 36h145q4 -27 4 -60q0 -76 -59 -130zM304 134q51 0 74.5 26.5t23.5 104.5q0 77 -23.5 104t-74.5 27t-74.5 -27t-23.5 -104
q0 -78 23.5 -104.5t74.5 -26.5z" />
    <glyph glyph-name="Uhorn" unicode="&#x1af;" horiz-adv-x="695" 
d="M737 730q0 -58 -27.5 -92t-88.5 -49v-358q0 -136 -70 -188.5t-209 -52.5t-209 52.5t-70 188.5v449h166v-420q0 -67 23.5 -90.5t89.5 -23.5t89.5 23.5t23.5 90.5v420h68q42 0 58 15t16 61q0 26 -3 54h138q5 -38 5 -80z" />
    <glyph glyph-name="uhorn" unicode="&#x1b0;" horiz-adv-x="660" 
d="M668 580q0 -59 -28.5 -93.5t-90.5 -48.5v-438h-140l-13 46q-70 -56 -168 -56q-87 0 -130 40t-43 111v389h164v-334q0 -30 16 -46t59 -16q49 0 91 24v372h69q42 0 58 15t16 61q0 26 -3 54h138q5 -38 5 -80z" />
    <glyph glyph-name="Gcaron" unicode="&#x1e6;" horiz-adv-x="654" 
d="M170 890h154l48 -56l43 56h155l-133 -150h-130zM367 -10q-168 0 -245 77.5t-77 273.5q0 195 76.5 272t248.5 77q105 0 205 -20v-158q-91 22 -179 22q-107 0 -145 -40.5t-38 -152.5t33.5 -153t113.5 -41q48 0 80 9v194l164 42v-366q-140 -36 -237 -36z" />
    <glyph glyph-name="gcaron" unicode="&#x1e7;" horiz-adv-x="623" 
d="M100 740h154l48 -56l43 56h155l-133 -150h-130zM107 -210v141q144 6 214 24q49 12 67.5 31t18.5 52v19q-63 -34 -145 -34q-108 0 -165 59t-57 199q0 125 51.5 192t169.5 67q44 0 81 -15t57 -33v38h164v-456q0 -65 -11.5 -107t-43.5 -76t-90 -54.5t-150 -32.5
q-90 -12 -161 -14zM307 162q50 0 92 18v198q-44 19 -92 19q-58 0 -80 -26.5t-22 -89.5q0 -67 23 -93t79 -26z" />
    <glyph glyph-name="uni01EA" unicode="&#x1ea;" 
d="M474 7q-60 -19 -91.5 -45t-31.5 -46q0 -12 8 -17t33 -5q29 0 52 5v-100q-40 -9 -83 -9q-78 0 -106.5 22.5t-28.5 65.5q0 63 82 115h-8q-130 0 -192.5 84t-62.5 263q0 194 68 272t229 78q162 0 229.5 -78t67.5 -272q0 -155 -41 -231t-124 -102zM213 340q0 -107 26.5 -151
t102.5 -44t102.5 44t26.5 151t-26 150.5t-103 43.5q-76 0 -102.5 -43.5t-26.5 -150.5z" />
    <glyph glyph-name="uni01EB" unicode="&#x1eb;" horiz-adv-x="608" 
d="M423 5q-57 -22 -86.5 -46t-29.5 -43q0 -12 8 -17t33 -5q29 0 52 5v-100q-40 -9 -83 -9q-78 0 -106.5 22.5t-28.5 65.5q0 33 18 58.5t59 55.5q-107 9 -163 71t-56 202q0 151 67.5 213t196.5 62t196.5 -62t67.5 -213q0 -62 -11 -108t-32 -75t-45 -46.5t-57 -30.5zM206 265
q0 -78 23.5 -104.5t74.5 -26.5t74.5 26.5t23.5 104.5q0 77 -23.5 104t-74.5 27t-74.5 -27t-23.5 -104z" />
    <glyph glyph-name="Aringacute" unicode="&#x1fa;" 
d="M524 1140l-114 -150h-135l81 150h168zM342 730q-74 0 -104.5 26.5t-30.5 83.5t30.5 83.5t104.5 26.5t104.5 -26.5t30.5 -83.5t-30.5 -83.5t-104.5 -26.5zM342 883q-31 0 -43 -10t-12 -32t12 -32.5t43 -10.5t43 10.5t12 32.5t-12 32t-43 10zM507 0l-42 131h-248l-42 -131
h-170l235 680h205l234 -680h-172zM262 271h158l-79 248z" />
    <glyph glyph-name="aringacute" unicode="&#x1fb;" horiz-adv-x="565" 
d="M225 860l81 150h168l-114 -150h-135zM294 820q74 0 104.5 -26.5t30.5 -83.5t-30.5 -83.5t-104.5 -26.5t-104.5 26.5t-30.5 83.5t30.5 83.5t104.5 26.5zM294 668q31 0 43 10.5t12 32.5t-12 32t-43 10t-43 -10t-12 -32t12 -32.5t43 -10.5zM217 -10q-98 0 -140 43t-42 134
q0 87 46 119.5t148 32.5q64 0 117 -17v38q0 33 -24 48t-79 15q-86 0 -157 -17v135q85 19 180 19q119 0 181.5 -38.5t62.5 -132.5v-369h-128l-18 44q-53 -54 -147 -54zM262 115q55 0 84 12v81q-40 9 -84 9q-34 0 -47 -12t-13 -38q0 -29 13 -40.5t47 -11.5z" />
    <glyph glyph-name="AEacute" unicode="&#x1fc;" horiz-adv-x="910" 
d="M694 890l-114 -150h-135l81 150h168zM580 152h286l-32 -152h-420v134h-196l-40 -134h-173l213 680h631v-152h-269v-111h252v-146h-252v-119zM264 286h150v242h-77z" />
    <glyph glyph-name="aeacute" unicode="&#x1fd;" horiz-adv-x="854" 
d="M594 740l-114 -150h-135l81 150h168zM814 274q0 -39 -4 -61h-300q1 -50 28 -69t89 -19q72 0 157 35v-136q-66 -34 -178 -34q-129 0 -190 65q-76 -65 -199 -65q-94 0 -138 44t-44 133q0 86 48 118.5t148 32.5h119v17q0 68 -114 68q-85 0 -153 -17v135q81 19 161 19
q136 0 181 -74q43 74 165 74q120 0 172 -59t52 -207zM510 318h149q-1 53 -15.5 73.5t-54.5 20.5q-42 0 -60.5 -20t-18.5 -66v-8zM260 115q45 0 105 30q-10 30 -13 72h-81q-69 0 -69 -50q0 -28 13.5 -40t44.5 -12z" />
    <glyph glyph-name="Oslashacute" unicode="&#x1fe;" 
d="M508 890l-114 -150h-135l81 150h168zM342 690q162 0 229.5 -78t67.5 -272t-68 -272t-229 -78t-229 78t-68 272t68 272t229 78zM342 534q-76 0 -102.5 -43.5t-26.5 -150.5q0 -66 8 -102l184 286q-24 10 -63 10zM342 145q76 0 102.5 44t26.5 151q0 67 -8 104l-188 -286
q25 -13 67 -13z" />
    <glyph glyph-name="oslashacute" unicode="&#x1ff;" horiz-adv-x="608" 
d="M470 740l-114 -150h-135l81 150h168zM304 540q129 0 196.5 -62t67.5 -213q0 -154 -67 -214.5t-197 -60.5t-197 60.5t-67 214.5q0 151 67.5 213t196.5 62zM304 396q-51 0 -74.5 -27t-23.5 -104q0 -42 8 -71l142 193q-18 9 -52 9zM304 134q51 0 74.5 26.5t23.5 104.5
q0 42 -7 66l-141 -189q19 -8 50 -8z" />
    <glyph glyph-name="Scommaaccent" unicode="&#x218;" horiz-adv-x="569" 
d="M257 -10q-112 0 -210 32v155q111 -38 207 -38q64 0 88.5 11.5t24.5 43.5q0 26 -15 39t-57 31l-131 54q-67 28 -97 68t-30 113q0 102 56.5 146.5t208.5 44.5q119 0 199 -26v-152q-83 31 -198 31q-63 0 -82 -9.5t-19 -33.5q0 -23 16.5 -36.5t66.5 -33.5l90 -36
q91 -36 124 -78t33 -118q0 -113 -63.5 -160.5t-211.5 -47.5zM162 -200l29 150h165l-45 -150h-149z" />
    <glyph glyph-name="scommaaccent" unicode="&#x219;" horiz-adv-x="508" 
d="M243 -10q-105 0 -192 25v148q117 -35 198 -35q44 0 59 6t15 22q0 14 -9.5 21.5t-36.5 15.5l-104 29q-72 20 -102.5 55.5t-30.5 108.5q0 87 54.5 120.5t176.5 33.5q109 0 176 -20v-145q-85 29 -174 29q-45 0 -59.5 -5.5t-14.5 -19.5q0 -13 9 -20t34 -14l96 -27
q75 -21 107.5 -55.5t32.5 -106.5q0 -94 -53.5 -130t-181.5 -36zM145 -200l29 150h165l-45 -150h-149z" />
    <glyph glyph-name="uni021A" unicode="&#x21a;" horiz-adv-x="583" 
d="M206 0v528h-191v152h563l-28 -152h-178v-528h-166zM176 -200l29 150h165l-45 -150h-149z" />
    <glyph glyph-name="uni021B" unicode="&#x21b;" horiz-adv-x="456" 
d="M279 -10q-84 0 -132 38.5t-48 118.5v243h-89v140h89v113l162 47v-160h157v-140h-157v-207q0 -27 14 -37t49 -10q46 0 95 14v-142q-48 -18 -140 -18zM165 -200l29 150h165l-45 -150h-149z" />
    <glyph glyph-name="uni0232" unicode="&#x232;" horiz-adv-x="632" 
d="M154 750v120h324v-120h-324zM233 0v243l-225 437h182l126 -264l125 264h183l-225 -437v-243h-166z" />
    <glyph glyph-name="uni0233" unicode="&#x233;" horiz-adv-x="556" 
d="M440 720v-120h-324v120h324zM373 530h175l-148 -422q-21 -60 -41.5 -102t-54 -86.5t-83 -76.5t-116.5 -53l-59 130q112 47 151 107l-189 503h171l102 -334z" />
    <glyph glyph-name="uni0237" unicode="&#x237;" horiz-adv-x="290" 
d="M76 -210l-117 107q72 79 89.5 121.5t17.5 119.5v392h164v-402q0 -99 -28 -169t-126 -169z" />
    <glyph glyph-name="uni0259" unicode="&#x259;" horiz-adv-x="565" 
d="M267 540q134 0 196 -63.5t62 -213.5q0 -149 -63.5 -211t-187.5 -62q-122 0 -178 61t-56 205q0 39 4 61h321q-1 50 -30 69t-97 19q-79 0 -167 -35v136q66 34 196 34zM365 212h-170q1 -50 19 -72t61 -22q48 0 68 22t22 72z" />
    <glyph glyph-name="uni0272" unicode="&#x272;" horiz-adv-x="613" 
d="M393 540q165 0 165 -151v-389h-164v334q0 30 -16.5 46t-60.5 16q-56 0 -93 -20v-376q0 -58 -28 -95t-102 -100q-4 -3 -6 -5t-5.5 -5t-6.5 -5l-104 102q50 43 69 71t19 62v505h157v-50q64 60 176 60z" />
    <glyph glyph-name="circumflex" unicode="&#x2c6;" horiz-adv-x="544" 
d="M72 590l137 150h130l133 -150h-155l-43 56l-48 -56h-154z" />
    <glyph glyph-name="caron" unicode="&#x2c7;" horiz-adv-x="544" 
d="M72 740h154l48 -56l43 56h155l-133 -150h-130z" />
    <glyph glyph-name="uni02C9" unicode="&#x2c9;" horiz-adv-x="484" 
d="M70 580v140h344v-140h-344z" />
    <glyph glyph-name="breve" unicode="&#x2d8;" horiz-adv-x="508" 
d="M254 580q-95 0 -139 32.5t-45 112.5h123q1 -28 15.5 -39.5t45.5 -11.5t45.5 11.5t15.5 39.5h123q-1 -80 -45 -112.5t-139 -32.5z" />
    <glyph glyph-name="dotaccent" unicode="&#x2d9;" horiz-adv-x="310" 
d="M70 580v140h170v-140h-170z" />
    <glyph glyph-name="ring" unicode="&#x2da;" horiz-adv-x="407" 
d="M205 820q74 0 104.5 -26.5t30.5 -83.5t-30.5 -83.5t-104.5 -26.5t-104.5 26.5t-30.5 83.5t30.5 83.5t104.5 26.5zM205 668q31 0 43 10.5t12 32.5t-12 32t-43 10t-43 -10t-12 -32t12 -32.5t43 -10.5z" />
    <glyph glyph-name="ogonek" unicode="&#x2db;" horiz-adv-x="357" 
d="M204 -210q-78 0 -106.5 22.5t-28.5 65.5q0 39 25.5 68.5t85.5 68.5l107 -15q-52 -31 -72.5 -49t-20.5 -35q0 -12 8 -17t33 -5q29 0 52 5v-100q-40 -9 -83 -9z" />
    <glyph glyph-name="tilde" unicode="&#x2dc;" horiz-adv-x="496" 
d="M329 736h97q0 -82 -26.5 -112t-83.5 -30q-36 0 -75.5 22.5t-49.5 22.5q-13 0 -17.5 -7t-6.5 -30h-97q0 82 26.5 112t83.5 30q36 0 76 -22.5t49 -22.5q13 0 17.5 7t6.5 30z" />
    <glyph glyph-name="hungarumlaut" unicode="&#x2dd;" horiz-adv-x="609" 
d="M70 590l81 150h168l-114 -150h-135zM280 590l81 150h168l-114 -150h-135z" />
    <glyph glyph-name="gravecomb" unicode="&#x300;" horiz-adv-x="0" 
d="M-70 590h-135l-114 150h168z" />
    <glyph glyph-name="acutecomb" unicode="&#x301;" horiz-adv-x="0" 
d="M-329 590l81 150h168l-114 -150h-135z" />
    <glyph glyph-name="uni0302" unicode="&#x302;" horiz-adv-x="0" 
d="M-472 590l137 150h130l133 -150h-155l-43 56l-48 -56h-154z" />
    <glyph glyph-name="tildecomb" unicode="&#x303;" horiz-adv-x="0" 
d="M-167 736h97q0 -82 -26.5 -112t-83.5 -30q-36 0 -76 22.5t-49 22.5q-13 0 -17.5 -7t-6.5 -30h-97q0 82 26.5 112t83.5 30q36 0 75.5 -22.5t49.5 -22.5q13 0 17.5 7t6.5 30z" />
    <glyph glyph-name="uni0304" unicode="&#x304;" horiz-adv-x="0" 
d="M-394 600v120h324v-120h-324z" />
    <glyph glyph-name="uni0306" unicode="&#x306;" horiz-adv-x="0" 
d="M-254 580q-95 0 -139 32.5t-45 112.5h123q1 -28 15.5 -39.5t45.5 -11.5t45.5 11.5t15.5 39.5h123q-1 -80 -45 -112.5t-139 -32.5z" />
    <glyph glyph-name="uni0307" unicode="&#x307;" horiz-adv-x="0" 
d="M-238 580v140h170v-140h-170z" />
    <glyph glyph-name="uni0308" unicode="&#x308;" horiz-adv-x="0" 
d="M-421 581v139h142v-139h-142zM-225 581v139h142v-139h-142z" />
    <glyph glyph-name="hookabovecomb" unicode="&#x309;" horiz-adv-x="0" 
d="M-196 573l-44 67q25 4 46.5 16.5t21.5 27.5q0 27 -42 27q-30 0 -78 -9v90q43 8 91 8q58 0 94.5 -22.5t36.5 -71.5q0 -103 -126 -133z" />
    <glyph glyph-name="uni030A" unicode="&#x30a;" horiz-adv-x="0" 
d="M-202 820q74 0 104.5 -26.5t30.5 -83.5t-30.5 -83.5t-104.5 -26.5t-104.5 26.5t-30.5 83.5t30.5 83.5t104.5 26.5zM-202 668q31 0 43 10.5t12 32.5t-12 32t-43 10t-43 -10t-12 -32t12 -32.5t43 -10.5z" />
    <glyph glyph-name="uni030B" unicode="&#x30b;" horiz-adv-x="0" 
d="M-539 590l81 150h168l-114 -150h-135zM-329 590l81 150h168l-114 -150h-135z" />
    <glyph glyph-name="uni030C" unicode="&#x30c;" horiz-adv-x="0" 
d="M-472 740h154l48 -56l43 56h155l-133 -150h-130z" />
    <glyph glyph-name="uni0312" unicode="&#x312;" horiz-adv-x="0" 
d="M-270 590l77 170h123l-35 -170h-165z" />
    <glyph glyph-name="uni031B" unicode="&#x31b;" horiz-adv-x="0" 
d="M-259 500q42 27 42 124q0 19 -2 36h145q4 -27 4 -60q0 -68 -52 -123t-139 -59z" />
    <glyph glyph-name="dotbelowcomb" unicode="&#x323;" horiz-adv-x="0" 
d="M-241 -200v140h172v-140h-172z" />
    <glyph glyph-name="uni0326" unicode="&#x326;" horiz-adv-x="0" 
d="M-280 -200l29 150h165l-45 -150h-149z" />
    <glyph glyph-name="uni0327" unicode="&#x327;" horiz-adv-x="0" 
d="M-300 -204v80q27 -6 67 -6q44 0 44 21q0 13 -18 17t-75 4l24 88h88l-10 -40q60 0 85 -19.5t25 -59.5q0 -91 -142 -91q-54 0 -88 6z" />
    <glyph glyph-name="uni0328" unicode="&#x328;" horiz-adv-x="0" 
d="M-153 -210q-78 0 -106.5 22.5t-28.5 65.5q0 39 25.5 68.5t85.5 68.5l107 -15q-52 -31 -72.5 -49t-20.5 -35q0 -12 8 -17t33 -5q29 0 52 5v-100q-40 -9 -83 -9z" />
    <glyph glyph-name="uni0335" unicode="&#x335;" horiz-adv-x="0" 
d="M-427 272v86h357v-86h-357z" />
    <glyph glyph-name="uni0336" unicode="&#x336;" horiz-adv-x="0" 
d="M-737 257v95h667v-95h-667z" />
    <glyph glyph-name="uni0337" unicode="&#x337;" horiz-adv-x="0" 
d="M-607 0l354 680h183l-365 -680h-172z" />
    <glyph glyph-name="uni0338" unicode="&#x338;" horiz-adv-x="0" 
d="M-607 0l354 680h183l-365 -680h-172z" />
    <glyph glyph-name="uni0394" unicode="&#x394;" horiz-adv-x="637" 
d="M427 680l205 -680h-627l205 680h217zM223 152h192l-96 359z" />
    <glyph glyph-name="uni03A9" unicode="&#x3a9;" horiz-adv-x="690" 
d="M45 0v152h102q-41 39 -65 103t-24 135q0 158 63 229t224 71t224 -71t63 -229q0 -71 -24 -135t-65 -103h102v-152h-262v142q79 98 79 248q0 76 -24.5 110t-92.5 34t-92.5 -34t-24.5 -110q0 -150 79 -248v-142h-262z" />
    <glyph glyph-name="uni03BC" unicode="&#x3bc;" horiz-adv-x="614" 
d="M390 530h164v-530h-140l-13 46q-45 -56 -108 -56q-50 0 -69 21v-211h-164v730h164v-330q0 -66 78 -66q44 0 88 30v366z" />
    <glyph glyph-name="pi" unicode="&#x3c0;" horiz-adv-x="698" 
d="M593 136q35 0 68 9v-143q-60 -12 -120 -12q-93 0 -129 36t-36 121v243h-101v-390h-164v390h-101v140h636v-140h-106v-212q0 -26 11.5 -34t41.5 -8z" />
    <glyph glyph-name="uni0400" unicode="&#x400;" horiz-adv-x="596" 
d="M391 740h-135l-114 150h168zM236 152h316l-32 -152h-450v680h465v-152h-299v-111h282v-146h-282v-119z" />
    <glyph glyph-name="uni0401" unicode="&#x401;" horiz-adv-x="596" 
d="M284 870v-139h-142v139h142zM480 870v-139h-142v139h142zM236 152h316l-32 -152h-450v680h465v-152h-299v-111h282v-146h-282v-119z" />
    <glyph glyph-name="uni0402" unicode="&#x402;" horiz-adv-x="769" 
d="M511 430q112 0 167.5 -49t55.5 -171t-54.5 -171t-187.5 -49q-50 0 -102 14v151q39 -9 98 -9q44 0 61 14t17 50q0 38 -18.5 51t-68.5 13q-89 0 -162 -46v-228h-166v538h-146v142h533l-28 -142h-193v-157q89 49 194 49z" />
    <glyph glyph-name="uni0403" unicode="&#x403;" horiz-adv-x="534" 
d="M225 740l81 150h168l-114 -150h-135zM70 680h459l-30 -152h-263v-528h-166v680z" />
    <glyph glyph-name="uni0404" unicode="&#x404;" horiz-adv-x="593" 
d="M375 534q-75 0 -115.5 -26.5t-42.5 -94.5h298v-146h-298q3 -68 43.5 -94.5t114.5 -26.5q65 0 168 23v-158q-87 -21 -179 -21q-79 0 -134.5 15.5t-99 53.5t-64.5 107.5t-21 173.5t21 173.5t64.5 107.5t99 53.5t134.5 15.5q92 0 179 -21v-158q-104 23 -168 23z" />
    <glyph glyph-name="uni0405" unicode="&#x405;" horiz-adv-x="569" 
d="M257 -10q-112 0 -210 32v155q111 -38 207 -38q64 0 88.5 11.5t24.5 43.5q0 26 -15 39t-57 31l-131 54q-67 28 -97 68t-30 113q0 102 56.5 146.5t208.5 44.5q119 0 199 -26v-152q-83 31 -198 31q-63 0 -82 -9.5t-19 -33.5q0 -23 16.5 -36.5t66.5 -33.5l90 -36
q91 -36 124 -78t33 -118q0 -113 -63.5 -160.5t-211.5 -47.5z" />
    <glyph glyph-name="uni0406" unicode="&#x406;" horiz-adv-x="306" 
d="M70 0v680h166v-680h-166z" />
    <glyph glyph-name="uni0407" unicode="&#x407;" horiz-adv-x="306" 
d="M-16 731v139h142v-139h-142zM180 731v139h142v-139h-142zM70 0v680h166v-680h-166z" />
    <glyph glyph-name="uni0408" unicode="&#x408;" horiz-adv-x="543" 
d="M480 680v-458q0 -129 -57.5 -180.5t-210.5 -51.5q-98 0 -173 20v159q79 -23 153 -23q71 0 96.5 18t25.5 79v285h-260l30 152h396z" />
    <glyph glyph-name="uni0409" unicode="&#x409;" horiz-adv-x="1056" 
d="M784 468q115 0 176 -52t61 -182t-61 -182t-176 -52h-299v528h-186v-323q0 -111 -56 -162.5t-152 -52.5q-41 0 -86 9v143q28 -5 63 -5q39 0 57 18.5t18 77.5v447h508v-212h133zM758 152q53 0 74 19t21 63t-21 63t-74 19h-107v-164h107z" />
    <glyph glyph-name="uni040A" unicode="&#x40a;" horiz-adv-x="1005" 
d="M733 468q115 0 176 -52t61 -182t-61 -182t-176 -52h-282v264h-215v-264h-166v680h166v-264h215v264h166v-212h116zM707 152q53 0 74 19t21 63t-21 63t-74 19h-90v-164h90z" />
    <glyph glyph-name="uni040B" unicode="&#x40b;" horiz-adv-x="756" 
d="M492 471q94 0 146.5 -44t52.5 -127v-300h-164v255q0 72 -91 72q-77 0 -115 -20v-307h-166v538h-150v142h533l-28 -142h-189v-105q65 38 171 38z" />
    <glyph glyph-name="uni040C" unicode="&#x40c;" horiz-adv-x="663" 
d="M498 890l-114 -150h-135l81 150h168zM666 0h-204l-226 308v-308h-166v680h166v-315l209 315h203l-243 -342z" />
    <glyph glyph-name="uni040D" unicode="&#x40d;" horiz-adv-x="699" 
d="M426 740h-135l-114 150h168zM629 0h-166v407l-252 -407h-141v680h166v-400l249 400h144v-680z" />
    <glyph glyph-name="uni040E" unicode="&#x40e;" horiz-adv-x="648" 
d="M329 720q-107 0 -158 35.5t-52 119.5h133q1 -34 18 -46.5t59 -12.5t59 12.5t18 46.5h133q-1 -84 -52 -119.5t-158 -35.5zM638 680l-267 -576q-53 -114 -158 -114q-46 0 -92 10v156q27 -7 59 -7q39 0 58 36l12 23l-230 472h182l133 -295l120 295h183z" />
    <glyph glyph-name="uni040F" unicode="&#x40f;" horiz-adv-x="707" 
d="M471 680h166v-680h-200v-169h-166v169h-201v680h166v-528h235v528z" />
    <glyph glyph-name="uni0410" unicode="&#x410;" 
d="M507 0l-42 131h-248l-42 -131h-170l235 680h205l234 -680h-172zM262 271h158l-79 248z" />
    <glyph glyph-name="uni0411" unicode="&#x411;" horiz-adv-x="640" 
d="M373 437q56 0 96.5 -9t74 -31.5t50 -65.5t16.5 -107q0 -124 -61.5 -174t-175.5 -50h-303v680h519l-30 -152h-323v-91h137zM347 152q52 0 73.5 17.5t21.5 54.5t-21.5 54.5t-73.5 17.5h-111v-144h111z" />
    <glyph glyph-name="uni0412" unicode="&#x412;" horiz-adv-x="649" 
d="M495 354q61 -14 87.5 -51.5t26.5 -112.5q0 -109 -56 -149.5t-187 -40.5h-296v680h294q119 0 172.5 -37.5t53.5 -137.5q0 -65 -21.5 -99.5t-73.5 -51.5zM330 540h-94v-129h95q58 0 76 14.5t18 53.5q0 37 -18.5 49t-76.5 12zM343 140q58 0 78 14t20 55q0 43 -19 56.5
t-78 13.5h-108v-139h107z" />
    <glyph glyph-name="uni0413" unicode="&#x413;" horiz-adv-x="534" 
d="M70 680h459l-30 -152h-263v-528h-166v680z" />
    <glyph glyph-name="uni0414" unicode="&#x414;" horiz-adv-x="798" 
d="M15 -169v317h96q35 60 47.5 117t12.5 145v270h501v-532h120v-317h-166v169h-445v-169h-166zM289 148h217v380h-174v-146q0 -79 -8.5 -129t-34.5 -105z" />
    <glyph glyph-name="uni0415" unicode="&#x415;" horiz-adv-x="596" 
d="M236 152h316l-32 -152h-450v680h465v-152h-299v-111h282v-146h-282v-119z" />
    <glyph glyph-name="uni0416" unicode="&#x416;" horiz-adv-x="943" 
d="M946 0h-197l-191 297v-297h-166v297l-191 -297h-197l234 338l-216 342h196l174 -303v303h166v-303l174 303h196l-216 -342z" />
    <glyph glyph-name="uni0417" unicode="&#x417;" horiz-adv-x="580" 
d="M242 -10q-98 0 -202 21v152q124 -23 205 -23q67 0 93 14t26 54q0 34 -22.5 48.5t-82.5 14.5h-119v137h119q60 0 82.5 14.5t22.5 48.5q0 40 -26.5 54.5t-92.5 14.5q-65 0 -195 -24v152q108 22 192 22q153 0 220.5 -44.5t67.5 -154.5q0 -42 -10.5 -71.5t-31.5 -46
t-30 -21.5t-28 -12q44 -19 62 -38q38 -40 38 -114q0 -110 -67.5 -154t-220.5 -44z" />
    <glyph glyph-name="uni0418" unicode="&#x418;" horiz-adv-x="699" 
d="M629 0h-166v407l-252 -407h-141v680h166v-400l249 400h144v-680z" />
    <glyph glyph-name="uni0419" unicode="&#x419;" horiz-adv-x="699" 
d="M350 720q-107 0 -158 35.5t-52 119.5h133q1 -34 18 -46.5t59 -12.5t59 12.5t18 46.5h133q-1 -84 -52 -119.5t-158 -35.5zM629 0h-166v407l-252 -407h-141v680h166v-400l249 400h144v-680z" />
    <glyph glyph-name="uni041A" unicode="&#x41a;" horiz-adv-x="663" 
d="M666 0h-204l-226 308v-308h-166v680h166v-315l209 315h203l-243 -342z" />
    <glyph glyph-name="uni041B" unicode="&#x41b;" horiz-adv-x="721" 
d="M651 680v-680h-166v528h-186v-323q0 -111 -56 -162.5t-152 -52.5q-41 0 -86 9v143q28 -5 63 -5q39 0 57 18.5t18 77.5v447h508z" />
    <glyph glyph-name="uni041C" unicode="&#x41c;" horiz-adv-x="876" 
d="M70 0v680h212l157 -251l152 251h215v-680h-166v475l-201 -308l-203 308v-475h-166z" />
    <glyph glyph-name="uni041D" unicode="&#x41d;" horiz-adv-x="697" 
d="M461 680h166v-680h-166v264h-225v-264h-166v680h166v-264h225v264z" />
    <glyph glyph-name="uni041E" unicode="&#x41e;" 
d="M342 -10q-161 0 -229 78t-68 272t68 272t229 78q162 0 229.5 -78t67.5 -272t-68 -272t-229 -78zM342 145q76 0 102.5 44t26.5 151t-26 150.5t-103 43.5q-76 0 -102.5 -43.5t-26.5 -150.5t26.5 -151t102.5 -44z" />
    <glyph glyph-name="uni041F" unicode="&#x41f;" horiz-adv-x="707" 
d="M637 680v-680h-166v528h-235v-528h-166v680h567z" />
    <glyph glyph-name="uni0420" unicode="&#x420;" horiz-adv-x="635" 
d="M373 680q115 0 176 -53.5t61 -190.5t-61 -190.5t-176 -53.5h-137v-192h-166v680h303zM347 344q53 0 74 20.5t21 71.5t-21 71.5t-74 20.5h-111v-184h111z" />
    <glyph glyph-name="uni0421" unicode="&#x421;" horiz-adv-x="593" 
d="M364 -10q-79 0 -134.5 15.5t-99 53.5t-64.5 107.5t-21 173.5t21 173.5t64.5 107.5t99 53.5t134.5 15.5q92 0 179 -21v-158q-83 23 -168 23q-87 0 -124.5 -40.5t-37.5 -153.5t37.5 -153.5t124.5 -40.5q85 0 168 23v-158q-87 -21 -179 -21z" />
    <glyph glyph-name="uni0422" unicode="&#x422;" horiz-adv-x="583" 
d="M206 0v528h-191v152h563l-28 -152h-178v-528h-166z" />
    <glyph glyph-name="uni0423" unicode="&#x423;" horiz-adv-x="648" 
d="M638 680l-267 -576q-53 -114 -158 -114q-46 0 -92 10v156q27 -7 59 -7q39 0 58 36l12 23l-230 472h182l133 -295l120 295h183z" />
    <glyph glyph-name="uni0424" unicode="&#x424;" horiz-adv-x="834" 
d="M337 -10v84q-169 0 -238 62.5t-69 221.5q0 162 69 225t238 63v74h160v-74q169 0 238 -63t69 -225q0 -159 -69 -221.5t-238 -62.5v-84h-160zM337 214h6v291h-6q-84 1 -111.5 -31t-27.5 -116q0 -81 28 -112.5t111 -31.5zM491 214h6q83 0 111 31.5t28 112.5q0 84 -27.5 116
t-111.5 31h-6v-291z" />
    <glyph glyph-name="uni0425" unicode="&#x425;" horiz-adv-x="646" 
d="M20 0l198 337l-206 343h187l124 -217l124 217h187l-206 -343l198 -337h-189l-114 209l-114 -209h-189z" />
    <glyph glyph-name="uni0426" unicode="&#x426;" horiz-adv-x="776" 
d="M637 153h133v-322h-161v169h-539v680h166v-528h235v528h166v-527z" />
    <glyph glyph-name="uni0427" unicode="&#x427;" horiz-adv-x="651" 
d="M581 680v-680h-166v247q-65 -38 -171 -38q-94 0 -146.5 44t-52.5 127v300h164v-255q0 -72 91 -72q77 0 115 20v307h166z" />
    <glyph glyph-name="uni0428" unicode="&#x428;" horiz-adv-x="1017" 
d="M781 680h166v-680h-877v680h166v-528h184v528h166v-528h195v528z" />
    <glyph glyph-name="uni0429" unicode="&#x429;" horiz-adv-x="1107" 
d="M947 153h154v-322h-161v169h-870v680h166v-528h184v528h166v-528h195v528h166v-527z" />
    <glyph glyph-name="uni042A" unicode="&#x42a;" horiz-adv-x="730" 
d="M458 468q115 0 176 -52t61 -182t-61 -182t-176 -52h-303v528h-150v152h316v-212h137zM432 152q53 0 74 19t21 63t-21 63t-74 19h-111v-164h111z" />
    <glyph glyph-name="uni042B" unicode="&#x42b;" horiz-adv-x="895" 
d="M343 468q115 0 176 -52t61 -182t-61 -182t-176 -52h-273v680h166v-212h107zM659 680h166v-680h-166v680zM317 152q53 0 74 19t21 63t-21 63t-74 19h-81v-164h81z" />
    <glyph glyph-name="uni042C" unicode="&#x42c;" horiz-adv-x="645" 
d="M373 468q115 0 176 -52t61 -182t-61 -182t-176 -52h-303v680h166v-212h137zM347 152q53 0 74 19t21 63t-21 63t-74 19h-111v-164h111z" />
    <glyph glyph-name="uni042D" unicode="&#x42d;" horiz-adv-x="598" 
d="M223 534q-65 0 -168 -23v158q87 21 179 21q79 0 134.5 -15.5t99 -53.5t64.5 -107.5t21 -173.5t-21 -173.5t-64.5 -107.5t-99 -53.5t-134.5 -15.5q-92 0 -179 21v158q104 -23 168 -23q74 0 114.5 26.5t43.5 94.5h-298v146h298q-2 68 -42.5 94.5t-115.5 26.5z" />
    <glyph glyph-name="uni042E" unicode="&#x42e;" horiz-adv-x="968" 
d="M634 690q156 0 222.5 -78t66.5 -272t-67 -272t-222 -78q-144 0 -208.5 62t-74.5 215h-115v-267h-166v680h166v-261h116q10 150 74.5 210.5t207.5 60.5zM634 145q71 0 96 44t25 151q0 106 -25 150t-96 44q-75 0 -98.5 -42.5t-23.5 -151.5t23.5 -152t98.5 -43z" />
    <glyph glyph-name="uni042F" unicode="&#x42f;" horiz-adv-x="659" 
d="M589 680v-680h-166v220h-82l-137 -220h-189l165 248q-59 20 -92.5 67.5t-33.5 140.5q0 71 17.5 117t54.5 68.5t79.5 30.5t106.5 8h277zM319 367h104v161h-104q-56 0 -76.5 -16.5t-20.5 -65.5t20 -64t77 -15z" />
    <glyph glyph-name="uni0430" unicode="&#x430;" horiz-adv-x="565" 
d="M217 -10q-98 0 -140 43t-42 134q0 87 46 119.5t148 32.5q64 0 117 -17v38q0 33 -24 48t-79 15q-86 0 -157 -17v135q85 19 180 19q119 0 181.5 -38.5t62.5 -132.5v-369h-128l-18 44q-53 -54 -147 -54zM262 115q55 0 84 12v81q-40 9 -84 9q-34 0 -47 -12t-13 -38
q0 -29 13 -40.5t47 -11.5z" />
    <glyph glyph-name="uni0431" unicode="&#x431;" horiz-adv-x="615" 
d="M298 -10q-134 0 -192 71t-58 230q0 106 11.5 175t42.5 121t85 79t139 38l213 26v-159l-195 -17q-39 -4 -65.5 -12.5t-39.5 -22t-18.5 -25t-8.5 -29.5q-4 -24 -4 -43q62 38 148 38q114 0 164.5 -54.5t50.5 -176.5q0 -126 -64 -182.5t-209 -56.5zM307 134q55 0 78.5 21.5
t23.5 70.5q0 51 -20.5 73.5t-71.5 22.5q-64 0 -108 -16v-6q0 -33 0.5 -49t3.5 -39.5t9 -34.5t16.5 -22.5t27.5 -16t41 -4.5z" />
    <glyph glyph-name="uni0432" unicode="&#x432;" horiz-adv-x="570" 
d="M426 275q56 -10 80 -39t24 -85q0 -91 -48 -121t-159 -30h-263v530h266q96 0 141.5 -27.5t45.5 -110.5q0 -49 -19.5 -75.5t-67.5 -41.5zM297 399h-73v-78h73q35 0 46.5 8.5t11.5 30.5t-11.5 30.5t-46.5 8.5zM307 131q36 0 49 8t13 32t-13 32t-49 8h-83v-80h83z" />
    <glyph glyph-name="uni0433" unicode="&#x433;" horiz-adv-x="442" 
d="M422 530v-146h-198v-384h-164v530h362z" />
    <glyph glyph-name="uni0434" unicode="&#x434;" horiz-adv-x="687" 
d="M12 -124v262h74q46 43 46 149v243h444v-392h95v-262h-164v124h-331v-124h-164zM253 137h159v247h-125v-75q0 -127 -34 -172z" />
    <glyph glyph-name="uni0435" unicode="&#x435;" horiz-adv-x="565" 
d="M298 -10q-134 0 -196 63.5t-62 213.5q0 149 63.5 211t187.5 62q122 0 178 -61t56 -205q0 -39 -4 -61h-321q1 -50 30 -69t97 -19q79 0 167 35v-136q-66 -34 -196 -34zM200 318h170q-1 50 -19 72t-61 22q-48 0 -68 -22t-22 -72z" />
    <glyph glyph-name="uni0436" unicode="&#x436;" horiz-adv-x="832" 
d="M828 0h-186l-144 258v-258h-164v258l-144 -258h-186l166 271l-154 259h185l133 -253v253h164v-253l133 253h185l-154 -259z" />
    <glyph glyph-name="uni0437" unicode="&#x437;" horiz-adv-x="508" 
d="M207 -10q-62 0 -172 18v141q112 -18 175 -18q52 0 72 9.5t20 32.5q0 19 -17.5 27t-67.5 8h-97v116h97q52 0 68.5 6.5t16.5 27.5q0 25 -19.5 33.5t-72.5 8.5q-59 0 -171 -18v141q105 17 168 17q141 0 201 -33t60 -119q0 -22 -3.5 -40.5t-11 -31t-14 -21.5t-16.5 -15
t-16 -8.5t-14.5 -5.5t-9.5 -3q1 0 9.5 -3t14.5 -5.5t15.5 -8.5t17 -14.5t14.5 -20.5t10.5 -29.5t3.5 -39.5q0 -86 -60 -119t-201 -33z" />
    <glyph glyph-name="uni0438" unicode="&#x438;" horiz-adv-x="616" 
d="M60 0v530h164v-300l183 300h149v-530h-164v300l-183 -300h-149z" />
    <glyph glyph-name="uni0439" unicode="&#x439;" horiz-adv-x="616" 
d="M308 560q-107 0 -158 35.5t-52 119.5h133q1 -34 18 -46.5t59 -12.5t59 12.5t18 46.5h133q-1 -84 -52 -119.5t-158 -35.5zM60 0v530h164v-300l183 300h149v-530h-164v300l-183 -300h-149z" />
    <glyph glyph-name="uni043A" unicode="&#x43a;" horiz-adv-x="586" 
d="M582 0h-194l-164 259v-259h-164v530h164v-255l153 255h193l-174 -259z" />
    <glyph glyph-name="uni043B" unicode="&#x43b;" horiz-adv-x="630" 
d="M101 -10q-42 0 -79 6v129q13 -3 41 -3q55 0 55 57v351h452v-530h-164v389h-136v-253q0 -58 -37.5 -102t-131.5 -44z" />
    <glyph glyph-name="uni043C" unicode="&#x43c;" horiz-adv-x="709" 
d="M60 0v530h190l105 -157l100 157h194v-530h-162v340l-132 -189l-133 189v-340h-162z" />
    <glyph glyph-name="uni043D" unicode="&#x43d;" horiz-adv-x="608" 
d="M384 530h164v-530h-164v195h-160v-195h-164v530h164v-189h160v189z" />
    <glyph glyph-name="uni043E" unicode="&#x43e;" horiz-adv-x="608" 
d="M304 -10q-130 0 -197 60.5t-67 214.5q0 151 67.5 213t196.5 62t196.5 -62t67.5 -213q0 -154 -67 -214.5t-197 -60.5zM304 134q51 0 74.5 26.5t23.5 104.5q0 77 -23.5 104t-74.5 27t-74.5 -27t-23.5 -104q0 -78 23.5 -104.5t74.5 -26.5z" />
    <glyph glyph-name="uni043F" unicode="&#x43f;" horiz-adv-x="608" 
d="M548 530v-530h-164v384h-160v-384h-164v530h488z" />
    <glyph glyph-name="uni0440" unicode="&#x440;" horiz-adv-x="624" 
d="M361 540q109 0 166 -61t57 -214q0 -137 -51.5 -206t-170.5 -69q-79 0 -138 33v-223h-164v730h164v-37q53 47 137 47zM316 133q59 0 80.5 28t21.5 104q0 77 -21.5 105t-80.5 28q-56 0 -92 -18v-228q35 -19 92 -19z" />
    <glyph glyph-name="uni0441" unicode="&#x441;" horiz-adv-x="512" 
d="M315 -10q-140 0 -207.5 61t-67.5 214t67.5 214t207.5 61q78 0 151 -19v-147q-62 20 -128 20q-70 0 -101 -26.5t-31 -102.5t31 -102.5t101 -26.5q66 0 128 20v-147q-73 -19 -151 -19z" />
    <glyph glyph-name="uni0442" unicode="&#x442;" horiz-adv-x="497" 
d="M489 530l-15 -140h-143v-390h-164v390h-159v140h481z" />
    <glyph glyph-name="uni0443" unicode="&#x443;" horiz-adv-x="556" 
d="M373 530h175l-148 -422q-21 -60 -41.5 -102t-54 -86.5t-83 -76.5t-116.5 -53l-59 130q112 47 151 107l-189 503h171l102 -334z" />
    <glyph glyph-name="uni0444" unicode="&#x444;" horiz-adv-x="792" 
d="M473 540q147 0 218 -61t71 -214q0 -155 -70.5 -215t-218.5 -60v-190h-155v190q-147 0 -217.5 60t-70.5 215q0 153 71 214t217 61v180h155v-180zM318 134v262q-68 0 -96.5 -26.5t-28.5 -104.5q0 -79 28 -105t97 -26zM473 134q70 0 98 26t28 105q0 78 -28.5 104.5
t-97.5 26.5v-262z" />
    <glyph glyph-name="uni0445" unicode="&#x445;" horiz-adv-x="572" 
d="M8 0l181 273l-177 257h188l87 -148l90 148h183l-175 -260l179 -270h-189l-88 149l-90 -149h-189z" />
    <glyph glyph-name="uni0446" unicode="&#x446;" horiz-adv-x="634" 
d="M537 140h81v-264h-164v124h-394v530h164v-384h149v384h164v-390z" />
    <glyph glyph-name="uni0447" unicode="&#x447;" horiz-adv-x="589" 
d="M218 142q-89 0 -136 42t-47 120v226h164v-182q0 -62 85 -62q53 0 81 18v226h164v-530h-164v188q-61 -46 -147 -46z" />
    <glyph glyph-name="uni0448" unicode="&#x448;" horiz-adv-x="852" 
d="M628 530h164v-530h-732v530h164v-384h125v384h164v-384h115v384z" />
    <glyph glyph-name="uni0449" unicode="&#x449;" horiz-adv-x="875" 
d="M792 140h67v-264h-164v124h-635v530h164v-384h125v384h164v-384h115v384h164v-390z" />
    <glyph glyph-name="uni044A" unicode="&#x44a;" horiz-adv-x="643" 
d="M386 382q64 0 104 -7t72 -27t46.5 -58t14.5 -99t-14.5 -99t-46.5 -58t-72 -27t-104 -7h-244v390h-122v140h286v-148h80zM377 134q52 0 67.5 11.5t15.5 45.5t-15.5 45.5t-67.5 11.5h-71v-114h71z" />
    <glyph glyph-name="uni044B" unicode="&#x44b;" horiz-adv-x="790" 
d="M284 382q64 0 104 -7t72 -27t46.5 -58t14.5 -99t-14.5 -99t-46.5 -58t-72 -27t-104 -7h-224v530h164v-148h60zM566 530h164v-530h-164v530zM275 134q52 0 67.5 11.5t15.5 45.5t-15.5 45.5t-67.5 11.5h-51v-114h51z" />
    <glyph glyph-name="uni044C" unicode="&#x44c;" horiz-adv-x="561" 
d="M304 382q64 0 104 -7t72 -27t46.5 -58t14.5 -99t-14.5 -99t-46.5 -58t-72 -27t-104 -7h-244v530h164v-148h80zM295 134q52 0 67.5 11.5t15.5 45.5t-15.5 45.5t-67.5 11.5h-71v-114h71z" />
    <glyph glyph-name="uni044D" unicode="&#x44d;" horiz-adv-x="512" 
d="M197 -10q-88 0 -161 19v147q63 -20 138 -20q58 0 88 16.5t39 61.5h-196v102h196q-9 45 -39 61.5t-88 16.5q-76 0 -138 -20v147q73 19 161 19q140 0 207.5 -61t67.5 -214t-67.5 -214t-207.5 -61z" />
    <glyph glyph-name="uni044E" unicode="&#x44e;" horiz-adv-x="832" 
d="M539 540q127 0 190 -61.5t63 -213.5q0 -154 -63 -214.5t-190 -60.5q-113 0 -173 45.5t-73 159.5h-69v-195h-164v530h164v-195h69q13 113 73.5 159t172.5 46zM539 134q49 0 70 26t21 105q0 78 -21 104.5t-70 26.5t-70 -26.5t-21 -104.5q0 -79 20.5 -105t70.5 -26z" />
    <glyph glyph-name="uni044F" unicode="&#x44f;" horiz-adv-x="582" 
d="M522 531v-530h-164v161h-38l-111 -162h-184l129 173q-57 14 -85 52.5t-28 113.5q0 61 14.5 99.5t46.5 58.5t72 27t104 7h244zM287 397q-52 0 -67.5 -11.5t-15.5 -45.5t15.5 -45.5t67.5 -11.5h71v114h-71z" />
    <glyph glyph-name="uni0450" unicode="&#x450;" horiz-adv-x="565" 
d="M357 590h-135l-114 150h168zM298 -10q-134 0 -196 63.5t-62 213.5q0 149 63.5 211t187.5 62q122 0 178 -61t56 -205q0 -39 -4 -61h-321q1 -50 30 -69t97 -19q79 0 167 35v-136q-66 -34 -196 -34zM200 318h170q-1 50 -19 72t-61 22q-48 0 -68 -22t-22 -72z" />
    <glyph glyph-name="uni0451" unicode="&#x451;" horiz-adv-x="565" 
d="M114 581v139h142v-139h-142zM310 581v139h142v-139h-142zM298 -10q-134 0 -196 63.5t-62 213.5q0 149 63.5 211t187.5 62q122 0 178 -61t56 -205q0 -39 -4 -61h-321q1 -50 30 -69t97 -19q79 0 167 35v-136q-66 -34 -196 -34zM200 318h170q-1 50 -19 72t-61 22
q-48 0 -68 -22t-22 -72z" />
    <glyph glyph-name="uni0452" unicode="&#x452;" horiz-adv-x="613" 
d="M393 540q165 0 165 -151v-453q0 -76 -45.5 -111t-119.5 -35q-67 0 -115 18v135q35 -10 75 -10q20 0 30.5 8.5t10.5 32.5v360q0 30 -16.5 46t-60.5 16q-56 0 -93 -20v-376h-164v587h-52v86h52v47h164v-47h141v-86h-141v-101q65 54 169 54z" />
    <glyph glyph-name="uni0453" unicode="&#x453;" horiz-adv-x="442" 
d="M398 740l-114 -150h-135l81 150h168zM422 530v-146h-198v-384h-164v530h362z" />
    <glyph glyph-name="uni0454" unicode="&#x454;" horiz-adv-x="512" 
d="M315 -10q-140 0 -207.5 61t-67.5 214t67.5 214t207.5 61q88 0 161 -19v-147q-63 20 -138 20q-58 0 -88 -16.5t-39 -61.5h196v-102h-196q9 -45 39 -61.5t88 -16.5q75 0 138 20v-147q-73 -19 -161 -19z" />
    <glyph glyph-name="uni0455" unicode="&#x455;" horiz-adv-x="508" 
d="M243 -10q-105 0 -192 25v148q117 -35 198 -35q44 0 59 6t15 22q0 14 -9.5 21.5t-36.5 15.5l-104 29q-72 20 -102.5 55.5t-30.5 108.5q0 87 54.5 120.5t176.5 33.5q109 0 176 -20v-145q-85 29 -174 29q-45 0 -59.5 -5.5t-14.5 -19.5q0 -13 9 -20t34 -14l96 -27
q75 -21 107.5 -55.5t32.5 -106.5q0 -94 -53.5 -130t-181.5 -36z" />
    <glyph glyph-name="uni0456" unicode="&#x456;" horiz-adv-x="278" 
d="M53 580v140h172v-140h-172zM57 0v530h164v-530h-164z" />
    <glyph glyph-name="uni0457" unicode="&#x457;" horiz-adv-x="276" 
d="M-31 581v139h142v-139h-142zM165 581v139h142v-139h-142zM56 0v530h164v-530h-164z" />
    <glyph glyph-name="uni0458" unicode="&#x458;" horiz-adv-x="277" 
d="M52 580v140h172v-140h-172zM66 -210l-117 107q72 79 89.5 121.5t17.5 119.5v392h164v-402q0 -99 -28 -169t-126 -169z" />
    <glyph glyph-name="uni0459" unicode="&#x459;" horiz-adv-x="887" 
d="M630 382q64 0 104 -7t72 -27t46.5 -58t14.5 -99t-14.5 -99t-46.5 -58t-72 -27t-104 -7h-224v389h-136v-253q0 -58 -37.5 -102t-131.5 -44q-42 0 -79 6v129q13 -3 41 -3q55 0 55 57v351h452v-148h60zM621 134q52 0 67.5 11.5t15.5 45.5t-15.5 45.5t-67.5 11.5h-51v-114h51
z" />
    <glyph glyph-name="uni045A" unicode="&#x45a;" horiz-adv-x="855" 
d="M598 382q64 0 104 -7t72 -27t46.5 -58t14.5 -99t-14.5 -99t-46.5 -58t-72 -27t-104 -7h-224v195h-150v-195h-164v530h164v-189h150v189h164v-148h60zM589 134q52 0 67.5 11.5t15.5 45.5t-15.5 45.5t-67.5 11.5h-51v-114h51z" />
    <glyph glyph-name="uni045B" unicode="&#x45b;" horiz-adv-x="613" 
d="M393 540q165 0 165 -151v-389h-164v334q0 30 -16.5 46t-60.5 16q-56 0 -93 -20v-376h-164v587h-52v86h52v47h164v-47h141v-86h-141v-101q65 54 169 54z" />
    <glyph glyph-name="uni045C" unicode="&#x45c;" horiz-adv-x="586" 
d="M451 740l-114 -150h-135l81 150h168zM582 0h-194l-164 259v-259h-164v530h164v-255l153 255h193l-174 -259z" />
    <glyph glyph-name="uni045D" unicode="&#x45d;" horiz-adv-x="616" 
d="M415 590h-135l-114 150h168zM60 0v530h164v-300l183 300h149v-530h-164v300l-183 -300h-149z" />
    <glyph glyph-name="uni045E" unicode="&#x45e;" horiz-adv-x="556" 
d="M270 560q-107 0 -158 35.5t-52 119.5h133q1 -34 18 -46.5t59 -12.5t59 12.5t18 46.5h133q-1 -84 -52 -119.5t-158 -35.5zM373 530h175l-148 -422q-21 -60 -41.5 -102t-54 -86.5t-83 -76.5t-116.5 -53l-59 130q112 47 151 107l-189 503h171l102 -334z" />
    <glyph glyph-name="uni045F" unicode="&#x45f;" horiz-adv-x="608" 
d="M384 530h164v-530h-162v-124h-164v124h-162v530h164v-384h160v384z" />
    <glyph glyph-name="uni0462" unicode="&#x462;" horiz-adv-x="726" 
d="M454 437q115 0 176 -46.5t61 -166.5q0 -124 -61.5 -174t-175.5 -50h-303v528h-146v152h146v150h166v-150h221l-23 -152h-198v-91h137zM428 152q52 0 73.5 17.5t21.5 54.5t-21.5 54.5t-73.5 17.5h-111v-144h111z" />
    <glyph glyph-name="uni0463" unicode="&#x463;" horiz-adv-x="599" 
d="M342 372q63 0 103.5 -7t72.5 -26.5t46.5 -56.5t14.5 -96t-14.5 -96t-46.5 -56.5t-72.5 -26.5t-103.5 -7h-244v419h-88v111h88v190h164v-190h237v-111h-237v-47h80zM333 134q52 0 67.5 11t15.5 41t-15.5 41t-67.5 11h-71v-104h71z" />
    <glyph glyph-name="uni0472" unicode="&#x472;" 
d="M342 690q162 0 229.5 -78t67.5 -272t-68 -272t-229 -78t-229 78t-68 272t68 272t229 78zM342 534q-62 0 -90.5 -29t-35.5 -94h252q-7 65 -35.5 94t-90.5 29zM342 145q62 0 90.5 29t35.5 95h-252q7 -66 35.5 -95t90.5 -29z" />
    <glyph glyph-name="uni0473" unicode="&#x473;" horiz-adv-x="608" 
d="M304 540q129 0 196.5 -62t67.5 -213q0 -154 -67 -214.5t-197 -60.5t-197 60.5t-67 214.5q0 151 67.5 213t196.5 62zM304 396q-44 0 -67 -19t-29 -72h192q-6 53 -29 72t-67 19zM304 134q43 0 66 17.5t29 68.5h-190q6 -51 29 -68.5t66 -17.5z" />
    <glyph glyph-name="uni0474" unicode="&#x474;" horiz-adv-x="702" 
d="M635 690q40 0 62 -6v-156q-16 2 -23 2q-58 0 -80 -21.5t-39 -84.5l-118 -424h-217l-215 680h177l147 -511l78 332q25 105 75 147t153 42z" />
    <glyph glyph-name="uni0475" unicode="&#x475;" horiz-adv-x="583" 
d="M188 0l-180 530h170l105 -364l64 222q20 78 68 115t141 37q13 0 25 -2v-157h-18q-26 0 -45.5 -15.5t-34.5 -57.5l-105 -308h-190z" />
    <glyph glyph-name="uni0490" unicode="&#x490;" horiz-adv-x="550" 
d="M380 850h165v-322h-309v-528h-166v680h310v170z" />
    <glyph glyph-name="uni0491" unicode="&#x491;" horiz-adv-x="442" 
d="M270 624h152v-240h-198v-384h-164v530h210v94z" />
    <glyph glyph-name="uni0492" unicode="&#x492;" horiz-adv-x="569" 
d="M519 528h-263v-145h186v-152h-186v-231h-166v231h-80v152h80v297h459z" />
    <glyph glyph-name="uni0493" unicode="&#x493;" horiz-adv-x="471" 
d="M451 384h-198v-101h142v-133h-142v-150h-164v150h-79v133h79v247h362v-146z" />
    <glyph glyph-name="uni0496" unicode="&#x496;" horiz-adv-x="1004" 
d="M840 153h154v-322h-161v169h-84l-191 297v-297h-166v297l-191 -297h-197l234 338l-216 342h196l174 -303v303h166v-303l174 303h196l-216 -342z" />
    <glyph glyph-name="uni0497" unicode="&#x497;" horiz-adv-x="882" 
d="M742 140h130v-264h-164v124h-66l-144 258v-258h-164v258l-144 -258h-186l166 271l-154 259h185l133 -253v253h164v-253l133 253h185l-154 -259z" />
    <glyph glyph-name="uni0498" unicode="&#x498;" horiz-adv-x="580" 
d="M430 340q44 -19 62 -38q38 -40 38 -114q0 -86 -41 -131t-130 -59v-167h-166v160q-81 5 -153 20v152q124 -23 205 -23q67 0 93 14t26 54q0 34 -22.5 48.5t-82.5 14.5h-119v137h119q60 0 82.5 14.5t22.5 48.5q0 40 -26.5 54.5t-92.5 14.5q-65 0 -195 -24v152q108 22 192 22
q153 0 220.5 -44.5t67.5 -154.5q0 -42 -10.5 -71.5t-31.5 -46t-30 -21.5t-28 -12z" />
    <glyph glyph-name="uni0499" unicode="&#x499;" horiz-adv-x="508" 
d="M383 263q1 0 9.5 -3t14.5 -5.5t15.5 -8.5t17 -14.5t14.5 -20.5t10.5 -29.5t3.5 -39.5q0 -65 -34 -99t-108 -46v-121h-164v115q-42 3 -127 17v141q112 -18 175 -18q52 0 72 9.5t20 32.5q0 19 -17.5 27t-67.5 8h-97v116h97q52 0 68.5 6.5t16.5 27.5q0 25 -19.5 33.5
t-72.5 8.5q-59 0 -171 -18v141q105 17 168 17q141 0 201 -33t60 -119q0 -22 -3.5 -40.5t-11 -31t-14 -21.5t-16.5 -15t-16 -8.5t-14.5 -5.5t-9.5 -3z" />
    <glyph glyph-name="uni049A" unicode="&#x49a;" horiz-adv-x="709" 
d="M548 153h151v-322h-161v169h-76l-226 308v-308h-166v680h166v-315l209 315h203l-243 -342z" />
    <glyph glyph-name="uni049B" unicode="&#x49b;" horiz-adv-x="608" 
d="M486 140h107v-264h-164v124h-41l-164 259v-259h-164v530h164v-255l153 255h193l-174 -259z" />
    <glyph glyph-name="uni049C" unicode="&#x49c;" horiz-adv-x="693" 
d="M492 0l-155 265h-17v-155h-56v155h-28v-265h-166v680h166v-264h28v153h56v-153h19l136 264h203l-193 -342l211 -338h-204z" />
    <glyph glyph-name="uni049D" unicode="&#x49d;" horiz-adv-x="621" 
d="M428 0l-101 199h-20v-110h-53v110h-30v-199h-164v530h164v-201h30v116h53v-116h15l99 201h181l-138 -263l153 -267h-189z" />
    <glyph glyph-name="uni04A0" unicode="&#x4a0;" horiz-adv-x="745" 
d="M748 0h-204l-226 308v-308h-166v528h-147v152h313v-315l209 315h203l-243 -342z" />
    <glyph glyph-name="uni04A1" unicode="&#x4a1;" horiz-adv-x="668" 
d="M664 0h-194l-164 259v-259h-164v390h-122v140h286v-255l153 255h193l-174 -259z" />
    <glyph glyph-name="uni04A2" unicode="&#x4a2;" horiz-adv-x="770" 
d="M627 153h137v-322h-161v169h-142v264h-225v-264h-166v680h166v-264h225v264h166v-527z" />
    <glyph glyph-name="uni04A3" unicode="&#x4a3;" horiz-adv-x="638" 
d="M548 140h74v-264h-164v124h-74v195h-160v-195h-164v530h164v-189h160v189h164v-390z" />
    <glyph glyph-name="uni04A4" unicode="&#x4a4;" horiz-adv-x="897" 
d="M892 680l-24 -152h-241v-528h-166v264h-225v-264h-166v680h166v-264h225v264h431z" />
    <glyph glyph-name="uni04A5" unicode="&#x4a5;" horiz-adv-x="762" 
d="M762 530v-146h-214v-384h-164v195h-160v-195h-164v530h164v-189h160v189h378z" />
    <glyph glyph-name="uni04AA" unicode="&#x4aa;" horiz-adv-x="593" 
d="M375 534q-87 0 -124.5 -40.5t-37.5 -153.5t37.5 -153.5t124.5 -40.5q85 0 168 23v-158q-55 -13 -118 -18v-162h-166v167q-107 20 -160.5 98.5t-53.5 243.5q0 104 21 173.5t64.5 107.5t99 53.5t134.5 15.5q92 0 179 -21v-158q-83 23 -168 23z" />
    <glyph glyph-name="uni04AB" unicode="&#x4ab;" horiz-adv-x="512" 
d="M338 394q-70 0 -101 -26.5t-31 -102.5t31 -102.5t101 -26.5q66 0 128 20v-147q-50 -13 -86 -16v-117h-164v123q-88 18 -132 80.5t-44 185.5q0 153 67.5 214t207.5 61q78 0 151 -19v-147q-62 20 -128 20z" />
    <glyph glyph-name="uni04AE" unicode="&#x4ae;" horiz-adv-x="632" 
d="M233 0v243l-225 437h182l126 -264l125 264h183l-225 -437v-243h-166z" />
    <glyph glyph-name="uni04AF" unicode="&#x4af;" horiz-adv-x="566" 
d="M558 530l-193 -511v-219h-164v219l-193 511h170l105 -344l105 344h170z" />
    <glyph glyph-name="uni04B0" unicode="&#x4b0;" horiz-adv-x="632" 
d="M624 680l-200 -388h93v-152h-118v-140h-166v140h-118v152h93l-200 388h182l126 -264l125 264h183z" />
    <glyph glyph-name="uni04B1" unicode="&#x4b1;" horiz-adv-x="566" 
d="M558 530l-153 -404h102v-126h-142v-200h-164v200h-142v126h102l-153 404h170l105 -344l105 344h170z" />
    <glyph glyph-name="uni04B2" unicode="&#x4b2;" horiz-adv-x="674" 
d="M536 153h148v-322h-161v169h-86l-114 209l-114 -209h-189l198 337l-206 343h187l124 -217l124 217h187l-206 -343z" />
    <glyph glyph-name="uni04B3" unicode="&#x4b3;" horiz-adv-x="595" 
d="M471 140h124v-264h-164v124h-56l-88 149l-90 -149h-189l181 273l-177 257h188l87 -148l90 148h183l-175 -260z" />
    <glyph glyph-name="uni04B6" unicode="&#x4b6;" horiz-adv-x="710" 
d="M581 153h123v-322h-161v169h-128v247q-65 -38 -171 -38q-94 0 -146.5 44t-52.5 127v300h164v-255q0 -72 91 -72q77 0 115 20v307h166v-527z" />
    <glyph glyph-name="uni04B7" unicode="&#x4b7;" horiz-adv-x="657" 
d="M529 140h112v-264h-164v124h-112v188q-61 -46 -147 -46q-89 0 -136 42t-47 120v226h164v-182q0 -62 85 -62q53 0 81 18v226h164v-390z" />
    <glyph glyph-name="uni04B8" unicode="&#x4b8;" horiz-adv-x="651" 
d="M415 680h166v-680h-166v247q-32 -19 -72 -28v-139h-59v130q-6 0 -19.5 -0.5t-20.5 -0.5q-94 0 -146.5 44t-52.5 127v300h164v-255q0 -66 75 -71v149h59v-147q48 5 72 17v307z" />
    <glyph glyph-name="uni04B9" unicode="&#x4b9;" horiz-adv-x="589" 
d="M365 530h164v-530h-164v188q-26 -20 -57 -32v-82h-53v70q-22 -2 -37 -2q-89 0 -136 42t-47 120v226h164v-182q0 -49 56 -60v102h53v-103q37 3 57 17v226z" />
    <glyph glyph-name="uni04BA" unicode="&#x4ba;" horiz-adv-x="651" 
d="M70 0v680h166v-247q65 38 171 38q94 0 146.5 -44t52.5 -127v-300h-164v255q0 72 -91 72q-77 0 -115 -20v-307h-166z" />
    <glyph glyph-name="uni04BB" unicode="&#x4bb;" horiz-adv-x="613" 
d="M393 540q165 0 165 -151v-389h-164v334q0 30 -16.5 46t-60.5 16q-56 0 -93 -20v-376h-164v720h164v-234q65 54 169 54z" />
    <glyph glyph-name="uni04C0" unicode="&#x4c0;" horiz-adv-x="306" 
d="M70 0v680h166v-680h-166z" />
    <glyph glyph-name="uni04C1" unicode="&#x4c1;" horiz-adv-x="943" 
d="M475 720q-107 0 -158 35.5t-52 119.5h133q1 -34 18 -46.5t59 -12.5t59 12.5t18 46.5h133q-1 -84 -52 -119.5t-158 -35.5zM946 0h-197l-191 297v-297h-166v297l-191 -297h-197l234 338l-216 342h196l174 -303v303h166v-303l174 303h196l-216 -342z" />
    <glyph glyph-name="uni04C2" unicode="&#x4c2;" horiz-adv-x="832" 
d="M416 560q-107 0 -158 35.5t-52 119.5h133q1 -34 18 -46.5t59 -12.5t59 12.5t18 46.5h133q-1 -84 -52 -119.5t-158 -35.5zM828 0h-186l-144 258v-258h-164v258l-144 -258h-186l166 271l-154 259h185l133 -253v253h164v-253l133 253h185l-154 -259z" />
    <glyph glyph-name="uni04CF" unicode="&#x4cf;" horiz-adv-x="284" 
d="M60 0v720h164v-720h-164z" />
    <glyph glyph-name="uni04D0" unicode="&#x4d0;" 
d="M342 720q-107 0 -158 35.5t-52 119.5h133q1 -34 18 -46.5t59 -12.5t59 12.5t18 46.5h133q-1 -84 -52 -119.5t-158 -35.5zM507 0l-42 131h-248l-42 -131h-170l235 680h205l234 -680h-172zM262 271h158l-79 248z" />
    <glyph glyph-name="uni04D1" unicode="&#x4d1;" horiz-adv-x="565" 
d="M294 560q-107 0 -158 35.5t-52 119.5h133q1 -34 18 -46.5t59 -12.5t59 12.5t18 46.5h133q-1 -84 -52 -119.5t-158 -35.5zM217 -10q-98 0 -140 43t-42 134q0 87 46 119.5t148 32.5q64 0 117 -17v38q0 33 -24 48t-79 15q-86 0 -157 -17v135q85 19 180 19q119 0 181.5 -38.5
t62.5 -132.5v-369h-128l-18 44q-53 -54 -147 -54zM262 115q55 0 84 12v81q-40 9 -84 9q-34 0 -47 -12t-13 -38q0 -29 13 -40.5t47 -11.5z" />
    <glyph glyph-name="uni04D2" unicode="&#x4d2;" 
d="M315 870v-139h-142v139h142zM511 870v-139h-142v139h142zM507 0l-42 131h-248l-42 -131h-170l235 680h205l234 -680h-172zM262 271h158l-79 248z" />
    <glyph glyph-name="uni04D3" unicode="&#x4d3;" horiz-adv-x="565" 
d="M115 581v139h142v-139h-142zM311 581v139h142v-139h-142zM217 -10q-98 0 -140 43t-42 134q0 87 46 119.5t148 32.5q64 0 117 -17v38q0 33 -24 48t-79 15q-86 0 -157 -17v135q85 19 180 19q119 0 181.5 -38.5t62.5 -132.5v-369h-128l-18 44q-53 -54 -147 -54zM262 115
q55 0 84 12v81q-40 9 -84 9q-34 0 -47 -12t-13 -38q0 -29 13 -40.5t47 -11.5z" />
    <glyph glyph-name="uni04D4" unicode="&#x4d4;" horiz-adv-x="910" 
d="M580 152h286l-32 -152h-420v134h-196l-40 -134h-173l213 680h631v-152h-269v-111h252v-146h-252v-119zM264 286h150v242h-77z" />
    <glyph glyph-name="uni04D5" unicode="&#x4d5;" horiz-adv-x="854" 
d="M814 274q0 -39 -4 -61h-300q1 -50 28 -69t89 -19q72 0 157 35v-136q-66 -34 -178 -34q-129 0 -190 65q-76 -65 -199 -65q-94 0 -138 44t-44 133q0 86 48 118.5t148 32.5h119v17q0 68 -114 68q-85 0 -153 -17v135q81 19 161 19q136 0 181 -74q43 74 165 74q120 0 172 -59
t52 -207zM510 318h149q-1 53 -15.5 73.5t-54.5 20.5q-42 0 -60.5 -20t-18.5 -66v-8zM260 115q45 0 105 30q-10 30 -13 72h-81q-69 0 -69 -50q0 -28 13.5 -40t44.5 -12z" />
    <glyph glyph-name="uni04D6" unicode="&#x4d6;" horiz-adv-x="596" 
d="M311 720q-107 0 -158 35.5t-52 119.5h133q1 -34 18 -46.5t59 -12.5t59 12.5t18 46.5h133q-1 -84 -52 -119.5t-158 -35.5zM236 152h316l-32 -152h-450v680h465v-152h-299v-111h282v-146h-282v-119z" />
    <glyph glyph-name="uni04D7" unicode="&#x4d7;" horiz-adv-x="565" 
d="M284 560q-107 0 -158 35.5t-52 119.5h133q1 -34 18 -46.5t59 -12.5t59 12.5t18 46.5h133q-1 -84 -52 -119.5t-158 -35.5zM298 -10q-134 0 -196 63.5t-62 213.5q0 149 63.5 211t187.5 62q122 0 178 -61t56 -205q0 -39 -4 -61h-321q1 -50 30 -69t97 -19q79 0 167 35v-136
q-66 -34 -196 -34zM200 318h170q-1 50 -19 72t-61 22q-48 0 -68 -22t-22 -72z" />
    <glyph glyph-name="uni04D8" unicode="&#x4d8;" horiz-adv-x="673" 
d="M304 690q186 0 255 -76t69 -274q0 -191 -65.5 -270.5t-226.5 -79.5q-156 0 -220 65t-71 226v125h411q-5 70 -36.5 99.5t-112.5 29.5q-57 0 -209 -15v152q113 18 206 18zM336 146q67 0 91.5 27t28.5 97h-241q2 -66 27 -95t94 -29z" />
    <glyph glyph-name="uni04D9" unicode="&#x4d9;" horiz-adv-x="565" 
d="M267 540q134 0 196 -63.5t62 -213.5q0 -149 -63.5 -211t-187.5 -62q-122 0 -178 61t-56 205q0 39 4 61h321q-1 50 -30 69t-97 19q-79 0 -167 -35v136q66 34 196 34zM365 212h-170q1 -50 19 -72t61 -22q48 0 68 22t22 72z" />
    <glyph glyph-name="uni04DC" unicode="&#x4dc;" horiz-adv-x="943" 
d="M448 870v-139h-142v139h142zM644 870v-139h-142v139h142zM946 0h-197l-191 297v-297h-166v297l-191 -297h-197l234 338l-216 342h196l174 -303v303h166v-303l174 303h196l-216 -342z" />
    <glyph glyph-name="uni04DD" unicode="&#x4dd;" horiz-adv-x="832" 
d="M389 720v-139h-142v139h142zM585 720v-139h-142v139h142zM828 0h-186l-144 258v-258h-164v258l-144 -258h-186l166 271l-154 259h185l133 -253v253h164v-253l133 253h185l-154 -259z" />
    <glyph glyph-name="uni04DE" unicode="&#x4de;" horiz-adv-x="580" 
d="M107 731v139h142v-139h-142zM303 731v139h142v-139h-142zM242 -10q-98 0 -202 21v152q124 -23 205 -23q67 0 93 14t26 54q0 34 -22.5 48.5t-82.5 14.5h-119v137h119q60 0 82.5 14.5t22.5 48.5q0 40 -26.5 54.5t-92.5 14.5q-65 0 -195 -24v152q108 22 192 22
q153 0 220.5 -44.5t67.5 -154.5q0 -42 -10.5 -71.5t-31.5 -46t-30 -21.5t-28 -12q44 -19 62 -38q38 -40 38 -114q0 -110 -67.5 -154t-220.5 -44z" />
    <glyph glyph-name="uni04DF" unicode="&#x4df;" horiz-adv-x="508" 
d="M83 581v139h142v-139h-142zM279 581v139h142v-139h-142zM207 -10q-62 0 -172 18v141q112 -18 175 -18q52 0 72 9.5t20 32.5q0 19 -17.5 27t-67.5 8h-97v116h97q52 0 68.5 6.5t16.5 27.5q0 25 -19.5 33.5t-72.5 8.5q-59 0 -171 -18v141q105 17 168 17q141 0 201 -33
t60 -119q0 -22 -3.5 -40.5t-11 -31t-14 -21.5t-16.5 -15t-16 -8.5t-14.5 -5.5t-9.5 -3q1 0 9.5 -3t14.5 -5.5t15.5 -8.5t17 -14.5t14.5 -20.5t10.5 -29.5t3.5 -39.5q0 -86 -60 -119t-201 -33z" />
    <glyph glyph-name="uni04E2" unicode="&#x4e2;" horiz-adv-x="699" 
d="M188 750v120h324v-120h-324zM629 0h-166v407l-252 -407h-141v680h166v-400l249 400h144v-680z" />
    <glyph glyph-name="uni04E3" unicode="&#x4e3;" horiz-adv-x="616" 
d="M146 600v120h324v-120h-324zM60 0v530h164v-300l183 300h149v-530h-164v300l-183 -300h-149z" />
    <glyph glyph-name="uni04E4" unicode="&#x4e4;" horiz-adv-x="699" 
d="M181 731v139h142v-139h-142zM377 731v139h142v-139h-142zM629 0h-166v407l-252 -407h-141v680h166v-400l249 400h144v-680z" />
    <glyph glyph-name="uni04E5" unicode="&#x4e5;" horiz-adv-x="616" 
d="M139 581v139h142v-139h-142zM335 581v139h142v-139h-142zM60 0v530h164v-300l183 300h149v-530h-164v300l-183 -300h-149z" />
    <glyph glyph-name="uni04E6" unicode="&#x4e6;" 
d="M173 731v139h142v-139h-142zM369 731v139h142v-139h-142zM342 -10q-161 0 -229 78t-68 272t68 272t229 78q162 0 229.5 -78t67.5 -272t-68 -272t-229 -78zM342 145q76 0 102.5 44t26.5 151t-26 150.5t-103 43.5q-76 0 -102.5 -43.5t-26.5 -150.5t26.5 -151t102.5 -44z
" />
    <glyph glyph-name="uni04E7" unicode="&#x4e7;" horiz-adv-x="608" 
d="M135 581v139h142v-139h-142zM331 581v139h142v-139h-142zM304 -10q-130 0 -197 60.5t-67 214.5q0 151 67.5 213t196.5 62t196.5 -62t67.5 -213q0 -154 -67 -214.5t-197 -60.5zM304 134q51 0 74.5 26.5t23.5 104.5q0 77 -23.5 104t-74.5 27t-74.5 -27t-23.5 -104
q0 -78 23.5 -104.5t74.5 -26.5z" />
    <glyph glyph-name="uni04E8" unicode="&#x4e8;" 
d="M342 690q162 0 229.5 -78t67.5 -272t-68 -272t-229 -78t-229 78t-68 272t68 272t229 78zM342 534q-62 0 -90.5 -29t-35.5 -94h252q-7 65 -35.5 94t-90.5 29zM342 145q62 0 90.5 29t35.5 95h-252q7 -66 35.5 -95t90.5 -29z" />
    <glyph glyph-name="uni04E9" unicode="&#x4e9;" horiz-adv-x="608" 
d="M304 540q129 0 196.5 -62t67.5 -213q0 -154 -67 -214.5t-197 -60.5t-197 60.5t-67 214.5q0 151 67.5 213t196.5 62zM304 396q-44 0 -67 -19t-29 -72h192q-6 53 -29 72t-67 19zM304 134q43 0 66 17.5t29 68.5h-190q6 -51 29 -68.5t66 -17.5z" />
    <glyph glyph-name="uni04EE" unicode="&#x4ee;" horiz-adv-x="648" 
d="M167 750v120h324v-120h-324zM638 680l-267 -576q-53 -114 -158 -114q-46 0 -92 10v156q27 -7 59 -7q39 0 58 36l12 23l-230 472h182l133 -295l120 295h183z" />
    <glyph glyph-name="uni04EF" unicode="&#x4ef;" horiz-adv-x="556" 
d="M440 720v-120h-324v120h324zM373 530h175l-148 -422q-21 -60 -41.5 -102t-54 -86.5t-83 -76.5t-116.5 -53l-59 130q112 47 151 107l-189 503h171l102 -334z" />
    <glyph glyph-name="uni04F0" unicode="&#x4f0;" horiz-adv-x="648" 
d="M160 731v139h142v-139h-142zM356 731v139h142v-139h-142zM638 680l-267 -576q-53 -114 -158 -114q-46 0 -92 10v156q27 -7 59 -7q39 0 58 36l12 23l-230 472h182l133 -295l120 295h183z" />
    <glyph glyph-name="uni04F1" unicode="&#x4f1;" horiz-adv-x="556" 
d="M251 720v-139h-142v139h142zM447 720v-139h-142v139h142zM373 530h175l-148 -422q-21 -60 -41.5 -102t-54 -86.5t-83 -76.5t-116.5 -53l-59 130q112 47 151 107l-189 503h171l102 -334z" />
    <glyph glyph-name="uni04F2" unicode="&#x4f2;" horiz-adv-x="648" 
d="M144 740l81 150h168l-114 -150h-135zM354 740l81 150h168l-114 -150h-135zM638 680l-267 -576q-53 -114 -158 -114q-46 0 -92 10v156q27 -7 59 -7q39 0 58 36l12 23l-230 472h182l133 -295l120 295h183z" />
    <glyph glyph-name="uni04F3" unicode="&#x4f3;" horiz-adv-x="556" 
d="M324 740l-114 -150h-135l81 150h168zM420 590h-135l81 150h168zM373 530h175l-148 -422q-21 -60 -41.5 -102t-54 -86.5t-83 -76.5t-116.5 -53l-59 130q112 47 151 107l-189 503h171l102 -334z" />
    <glyph glyph-name="uni04F4" unicode="&#x4f4;" horiz-adv-x="651" 
d="M144 731v139h142v-139h-142zM340 731v139h142v-139h-142zM581 680v-680h-166v247q-65 -38 -171 -38q-94 0 -146.5 44t-52.5 127v300h164v-255q0 -72 91 -72q77 0 115 20v307h166z" />
    <glyph glyph-name="uni04F5" unicode="&#x4f5;" horiz-adv-x="589" 
d="M113 581v139h142v-139h-142zM309 581v139h142v-139h-142zM218 142q-89 0 -136 42t-47 120v226h164v-182q0 -62 85 -62q53 0 81 18v226h164v-530h-164v188q-61 -46 -147 -46z" />
    <glyph glyph-name="uni04F8" unicode="&#x4f8;" horiz-adv-x="895" 
d="M421 870v-139h-142v139h142zM475 731v139h142v-139h-142zM343 468q115 0 176 -52t61 -182t-61 -182t-176 -52h-273v680h166v-212h107zM659 680h166v-680h-166v680zM317 152q53 0 74 19t21 63t-21 63t-74 19h-81v-164h81z" />
    <glyph glyph-name="uni04F9" unicode="&#x4f9;" horiz-adv-x="790" 
d="M368 720v-139h-142v139h142zM422 581v139h142v-139h-142zM284 382q64 0 104 -7t72 -27t46.5 -58t14.5 -99t-14.5 -99t-46.5 -58t-72 -27t-104 -7h-224v530h164v-148h60zM566 530h164v-530h-164v530zM275 134q52 0 67.5 11.5t15.5 45.5t-15.5 45.5t-67.5 11.5h-51v-114h51
z" />
    <glyph glyph-name="Wgrave" unicode="&#x1e80;" horiz-adv-x="928" 
d="M526 740h-135l-114 150h168zM743 0h-177l-102 378l-102 -378h-177l-170 680h164l103 -458l115 458h134l115 -458l103 458h164z" />
    <glyph glyph-name="wgrave" unicode="&#x1e81;" horiz-adv-x="831" 
d="M496 590h-135l-114 150h168zM691 0h-189l-87 322l-86 -322h-189l-132 530h159l76 -360l87 360h170l87 -360l77 360h159z" />
    <glyph glyph-name="Wacute" unicode="&#x1e82;" horiz-adv-x="928" 
d="M402 740l81 150h168l-114 -150h-135zM185 0l-170 680h164l103 -458l115 458h134l115 -458l103 458h164l-170 -680h-177l-102 378l-102 -378h-177z" />
    <glyph glyph-name="wacute" unicode="&#x1e83;" horiz-adv-x="831" 
d="M335 590l81 150h168l-114 -150h-135zM140 0l-132 530h159l77 -360l87 360h170l87 -360l76 360h159l-132 -530h-189l-86 322l-87 -322h-189z" />
    <glyph glyph-name="Wdieresis" unicode="&#x1e84;" horiz-adv-x="928" 
d="M295 731v139h142v-139h-142zM491 731v139h142v-139h-142zM185 0l-170 680h164l103 -458l115 458h134l115 -458l103 458h164l-170 -680h-177l-102 378l-102 -378h-177z" />
    <glyph glyph-name="wdieresis" unicode="&#x1e85;" horiz-adv-x="831" 
d="M247 581v139h142v-139h-142zM443 581v139h142v-139h-142zM140 0l-132 530h159l77 -360l87 360h170l87 -360l76 360h159l-132 -530h-189l-86 322l-87 -322h-189z" />
    <glyph glyph-name="uni1E9E" unicode="&#x1e9e;" horiz-adv-x="685" 
d="M400 -10q-55 0 -111 7v149q48 -7 110 -7q83 0 83 66q0 33 -20.5 50t-73.5 17q-54 0 -93 -6v116l122 135q-20 30 -79 30q-58 0 -83.5 -25.5t-25.5 -74.5v-447h-166v439q0 126 63.5 188.5t213.5 62.5q205 0 286 -147l-147 -160q10 2 23 2q63 0 105.5 -46t42.5 -138
q0 -122 -59 -166.5t-191 -44.5z" />
    <glyph glyph-name="uni1EA0" unicode="&#x1ea0;" 
d="M679 0h-172l-42 131h-248l-42 -131h-170l235 680h205zM262 271h158l-79 248zM256 -200v140h172v-140h-172z" />
    <glyph glyph-name="uni1EA1" unicode="&#x1ea1;" horiz-adv-x="565" 
d="M217 -10q-98 0 -140 43t-42 134q0 87 46 119.5t148 32.5q64 0 117 -17v38q0 33 -24 48t-79 15q-86 0 -157 -17v135q85 19 180 19q119 0 181.5 -38.5t62.5 -132.5v-369h-128l-18 44q-53 -54 -147 -54zM262 115q55 0 84 12v81q-40 9 -84 9q-34 0 -47 -12t-13 -38
q0 -29 13 -40.5t47 -11.5zM206 -200v140h172v-140h-172z" />
    <glyph glyph-name="uni1EA2" unicode="&#x1ea2;" 
d="M348 834q0 27 -42 27q-30 0 -78 -9v90q43 8 91 8q58 0 94.5 -22.5t36.5 -71.5q0 -103 -126 -133l-44 67q25 4 46.5 16.5t21.5 27.5zM507 0l-42 131h-248l-42 -131h-170l235 680h205l234 -680h-172zM262 271h158l-79 248z" />
    <glyph glyph-name="uni1EA3" unicode="&#x1ea3;" horiz-adv-x="565" 
d="M268 573l-44 67q25 4 46.5 16.5t21.5 27.5q0 27 -42 27q-30 0 -78 -9v90q43 8 91 8q58 0 94.5 -22.5t36.5 -71.5q0 -103 -126 -133zM217 -10q-98 0 -140 43t-42 134q0 87 46 119.5t148 32.5q64 0 117 -17v38q0 33 -24 48t-79 15q-86 0 -157 -17v135q85 19 180 19
q119 0 181.5 -38.5t62.5 -132.5v-369h-128l-18 44q-53 -54 -147 -54zM262 115q55 0 84 12v81q-40 9 -84 9q-34 0 -47 -12t-13 -38q0 -29 13 -40.5t47 -11.5z" />
    <glyph glyph-name="uni1EA4" unicode="&#x1ea4;" horiz-adv-x="694" 
d="M689 978l-109 -130h-130l74 130h165zM340 780l-48 -50h-156l139 133h130l135 -133h-157zM240 680h205l234 -680h-172l-42 131h-248l-42 -131h-170zM262 271h158l-79 248z" />
    <glyph glyph-name="uni1EA5" unicode="&#x1ea5;" horiz-adv-x="565" 
d="M398 698l74 130h165l-109 -130h-130zM84 580l139 133h130l135 -133h-157l-43 50l-48 -50h-156zM217 -10q-98 0 -140 43t-42 134q0 87 46 119.5t148 32.5q64 0 117 -17v38q0 33 -24 48t-79 15q-86 0 -157 -17v135q85 19 180 19q119 0 181.5 -38.5t62.5 -132.5v-369h-128
l-18 44q-53 -54 -147 -54zM262 115q55 0 84 12v81q-40 9 -84 9q-34 0 -47 -12t-13 -38q0 -29 13 -40.5t47 -11.5z" />
    <glyph glyph-name="uni1EA6" unicode="&#x1ea6;" 
d="M599 848h-130l-109 130h165zM343 780l-43 -50h-157l135 133h130l139 -133h-156zM507 0l-42 131h-248l-42 -131h-170l235 680h205l234 -680h-172zM262 271h158l-79 248z" />
    <glyph glyph-name="uni1EA7" unicode="&#x1ea7;" horiz-adv-x="565" 
d="M534 698h-130l-109 130h165zM482 580h-156l-48 50l-43 -50h-157l135 133h130zM217 -10q-98 0 -140 43t-42 134q0 87 46 119.5t148 32.5q64 0 117 -17v38q0 33 -24 48t-79 15q-86 0 -157 -17v135q85 19 180 19q119 0 181.5 -38.5t62.5 -132.5v-369h-128l-18 44
q-53 -54 -147 -54zM262 115q55 0 84 12v81q-40 9 -84 9q-34 0 -47 -12t-13 -38q0 -29 13 -40.5t47 -11.5z" />
    <glyph glyph-name="uni1EA8" unicode="&#x1ea8;" 
d="M500 915q0 25 -35 25q-37 0 -62 -6v99q36 10 84 10q54 0 95.5 -25t41.5 -71q0 -99 -127 -130l-46 69q49 5 49 29zM344 780l-48 -50h-156l139 133h130l135 -133h-157zM507 0l-42 131h-248l-42 -131h-170l235 680h205l234 -680h-172zM262 271h158l-79 248z" />
    <glyph glyph-name="uni1EA9" unicode="&#x1ea9;" horiz-adv-x="565" 
d="M438 667l-46 69q49 5 49 29q0 25 -35 25q-36 0 -62 -6v99q36 10 84 10q54 0 95.5 -25t41.5 -71q0 -99 -127 -130zM81 580l139 133h130l135 -133h-157l-43 50l-48 -50h-156zM217 -10q-98 0 -140 43t-42 134q0 87 46 119.5t148 32.5q64 0 117 -17v38q0 33 -24 48t-79 15
q-86 0 -157 -17v135q85 19 180 19q119 0 181.5 -38.5t62.5 -132.5v-369h-128l-18 44q-53 -54 -147 -54zM262 115q55 0 84 12v81q-40 9 -84 9q-34 0 -47 -12t-13 -38q0 -29 13 -40.5t47 -11.5z" />
    <glyph glyph-name="uni1EAA" unicode="&#x1eaa;" 
d="M286 914q-11 0 -15 -6t-6 -24h-96q0 80 25.5 107t80.5 27q34 0 71.5 -19t46.5 -19q11 0 15 6t6 24h96q0 -80 -25.5 -107t-80.5 -27q-34 0 -72 19t-46 19zM344 774l-48 -44h-156l139 116h130l135 -116h-157zM507 0l-42 131h-248l-42 -131h-170l235 680h205l234 -680h-172z
M262 271h158l-79 248z" />
    <glyph glyph-name="uni1EAB" unicode="&#x1eab;" horiz-adv-x="565" 
d="M359 860h96q0 -80 -25.5 -107t-80.5 -27q-34 0 -72 19t-46 19q-11 0 -15 -6t-6 -24h-96q0 80 25.5 107t80.5 27q34 0 71.5 -19t46.5 -19q11 0 15 6t6 24zM85 580l139 116h130l135 -116h-157l-43 44l-48 -44h-156zM217 -10q-98 0 -140 43t-42 134q0 87 46 119.5t148 32.5
q64 0 117 -17v38q0 33 -24 48t-79 15q-86 0 -157 -17v135q85 19 180 19q119 0 181.5 -38.5t62.5 -132.5v-369h-128l-18 44q-53 -54 -147 -54zM262 115q55 0 84 12v81q-40 9 -84 9q-34 0 -47 -12t-13 -38q0 -29 13 -40.5t47 -11.5z" />
    <glyph glyph-name="uni1EAC" unicode="&#x1eac;" 
d="M344 796l-48 -56h-154l137 150h130l133 -150h-155zM679 0h-172l-42 131h-248l-42 -131h-170l235 680h205zM262 271h158l-79 248zM256 -200v140h172v-140h-172z" />
    <glyph glyph-name="uni1EAD" unicode="&#x1ead;" horiz-adv-x="565" 
d="M85 590l137 150h130l133 -150h-155l-43 56l-48 -56h-154zM217 -10q-98 0 -140 43t-42 134q0 87 46 119.5t148 32.5q64 0 117 -17v38q0 33 -24 48t-79 15q-86 0 -157 -17v135q85 19 180 19q119 0 181.5 -38.5t62.5 -132.5v-369h-128l-18 44q-53 -54 -147 -54zM262 115
q55 0 84 12v81q-40 9 -84 9q-34 0 -47 -12t-13 -38q0 -29 13 -40.5t47 -11.5zM197 -200v140h172v-140h-172z" />
    <glyph glyph-name="uni1EAE" unicode="&#x1eae;" 
d="M514 1020l-109 -130h-130l74 130h165zM342 732q-98 0 -141 27t-43 104h118q0 -26 16.5 -35t49.5 -9t49.5 9t16.5 35h118q0 -78 -43 -104.5t-141 -26.5zM507 0l-42 131h-248l-42 -131h-170l235 680h205l234 -680h-172zM262 271h158l-79 248z" />
    <glyph glyph-name="uni1EAF" unicode="&#x1eaf;" horiz-adv-x="565" 
d="M228 740l74 130h165l-109 -130h-130zM295 582q-98 0 -141 27t-43 104h118q0 -26 16.5 -35t49.5 -9t49.5 9t16.5 35h118q0 -78 -43 -104.5t-141 -26.5zM217 -10q-98 0 -140 43t-42 134q0 87 46 119.5t148 32.5q64 0 117 -17v38q0 33 -24 48t-79 15q-86 0 -157 -17v135
q85 19 180 19q119 0 181.5 -38.5t62.5 -132.5v-369h-128l-18 44q-53 -54 -147 -54zM262 115q55 0 84 12v81q-40 9 -84 9q-34 0 -47 -12t-13 -38q0 -29 13 -40.5t47 -11.5z" />
    <glyph glyph-name="uni1EB0" unicode="&#x1eb0;" 
d="M409 890h-130l-109 130h165zM342 732q-98 0 -141 26.5t-43 104.5h118q0 -26 16.5 -35t49.5 -9t49.5 9t16.5 35h118q0 -77 -43 -104t-141 -27zM509 0l-42 131h-248l-42 -131h-172l234 680h205l235 -680h-170zM264 271h158l-79 248z" />
    <glyph glyph-name="uni1EB1" unicode="&#x1eb1;" horiz-adv-x="565" 
d="M360 740h-130l-109 130h165zM293 582q-98 0 -141 26.5t-43 104.5h118q0 -26 16.5 -35t49.5 -9t49.5 9t16.5 35h118q0 -77 -43 -104t-141 -27zM217 -10q-98 0 -140 43t-42 134q0 87 46 119.5t148 32.5q64 0 117 -17v38q0 33 -24 48t-79 15q-86 0 -157 -17v135
q85 19 180 19q119 0 181.5 -38.5t62.5 -132.5v-369h-128l-18 44q-53 -54 -147 -54zM262 115q55 0 84 12v81q-40 9 -84 9q-34 0 -47 -12t-13 -38q0 -29 13 -40.5t47 -11.5z" />
    <glyph glyph-name="uni1EB2" unicode="&#x1eb2;" 
d="M353 983q0 27 -42 27q-30 0 -78 -9v90q43 8 91 8q58 0 94.5 -22.5t36.5 -71.5q0 -103 -126 -133l-44 67q25 4 46.5 16.5t21.5 27.5zM342 732q-98 0 -141 27t-43 104h118q0 -26 16.5 -35t49.5 -9t49.5 9t16.5 35h118q0 -78 -43 -104.5t-141 -26.5zM507 0l-42 131h-248
l-42 -131h-170l235 680h205l234 -680h-172zM262 271h158l-79 248z" />
    <glyph glyph-name="uni1EB3" unicode="&#x1eb3;" horiz-adv-x="565" 
d="M276 722l-44 67q25 4 46.5 16.5t21.5 27.5q0 27 -42 27q-30 0 -78 -9v90q43 8 91 8q58 0 94.5 -22.5t36.5 -71.5q0 -103 -126 -133zM289 582q-98 0 -141 27t-43 104h118q0 -26 16.5 -35t49.5 -9t49.5 9t16.5 35h118q0 -78 -43 -104.5t-141 -26.5zM217 -10q-98 0 -140 43
t-42 134q0 87 46 119.5t148 32.5q64 0 117 -17v38q0 33 -24 48t-79 15q-86 0 -157 -17v135q85 19 180 19q119 0 181.5 -38.5t62.5 -132.5v-369h-128l-18 44q-53 -54 -147 -54zM262 115q55 0 84 12v81q-40 9 -84 9q-34 0 -47 -12t-13 -38q0 -29 13 -40.5t47 -11.5z" />
    <glyph glyph-name="uni1EB4" unicode="&#x1eb4;" 
d="M284 923q-11 0 -15 -6t-6 -24h-96q0 80 25.5 107t80.5 27q34 0 71.5 -19t46.5 -19q11 0 15 6t6 24h96q0 -80 -25.5 -107t-80.5 -27q-34 0 -72 19t-46 19zM342 732q-98 0 -141 27t-43 104h118q0 -26 16.5 -35t49.5 -9t49.5 9t16.5 35h118q0 -78 -43 -104.5t-141 -26.5z
M507 0l-42 131h-248l-42 -131h-170l235 680h205l234 -680h-172zM262 271h158l-79 248z" />
    <glyph glyph-name="uni1EB5" unicode="&#x1eb5;" horiz-adv-x="565" 
d="M358 869h96q0 -80 -25.5 -107t-80.5 -27q-34 0 -72 19t-46 19q-11 0 -15 -6t-6 -24h-96q0 80 25.5 107t80.5 27q34 0 71.5 -19t46.5 -19q11 0 15 6t6 24zM288 582q-98 0 -141 27t-43 104h118q0 -26 16.5 -35t49.5 -9t49.5 9t16.5 35h118q0 -78 -43 -104.5t-141 -26.5z
M217 -10q-98 0 -140 43t-42 134q0 87 46 119.5t148 32.5q64 0 117 -17v38q0 33 -24 48t-79 15q-86 0 -157 -17v135q85 19 180 19q119 0 181.5 -38.5t62.5 -132.5v-369h-128l-18 44q-53 -54 -147 -54zM262 115q55 0 84 12v81q-40 9 -84 9q-34 0 -47 -12t-13 -38
q0 -29 13 -40.5t47 -11.5z" />
    <glyph glyph-name="uni1EB6" unicode="&#x1eb6;" 
d="M342 730q-95 0 -139 32.5t-45 112.5h123q1 -28 15.5 -39.5t45.5 -11.5t45.5 11.5t15.5 39.5h123q-1 -80 -45 -112.5t-139 -32.5zM679 0h-172l-42 131h-248l-42 -131h-170l235 680h205zM262 271h158l-79 248zM256 -200v140h172v-140h-172z" />
    <glyph glyph-name="uni1EB7" unicode="&#x1eb7;" horiz-adv-x="565" 
d="M288 580q-95 0 -139 32.5t-45 112.5h123q1 -28 15.5 -39.5t45.5 -11.5t45.5 11.5t15.5 39.5h123q-1 -80 -45 -112.5t-139 -32.5zM217 -10q-98 0 -140 43t-42 134q0 87 46 119.5t148 32.5q64 0 117 -17v38q0 33 -24 48t-79 15q-86 0 -157 -17v135q85 19 180 19
q119 0 181.5 -38.5t62.5 -132.5v-369h-128l-18 44q-53 -54 -147 -54zM262 115q55 0 84 12v81q-40 9 -84 9q-34 0 -47 -12t-13 -38q0 -29 13 -40.5t47 -11.5zM183 -200v140h172v-140h-172z" />
    <glyph glyph-name="uni1EB8" unicode="&#x1eb8;" horiz-adv-x="596" 
d="M236 152h316l-32 -152h-450v680h465v-152h-299v-111h282v-146h-282v-119zM219 -200v140h172v-140h-172z" />
    <glyph glyph-name="uni1EB9" unicode="&#x1eb9;" horiz-adv-x="565" 
d="M298 -10q-134 0 -196 63.5t-62 213.5q0 149 63.5 211t187.5 62q122 0 178 -61t56 -205q0 -39 -4 -61h-321q1 -50 30 -69t97 -19q79 0 167 35v-136q-66 -34 -196 -34zM200 318h170q-1 50 -19 72t-61 22q-48 0 -68 -22t-22 -72zM197 -200v140h172v-140h-172z" />
    <glyph glyph-name="uni1EBA" unicode="&#x1eba;" horiz-adv-x="596" 
d="M286 723l-44 67q25 4 46.5 16.5t21.5 27.5q0 27 -42 27q-30 0 -78 -9v90q43 8 91 8q58 0 94.5 -22.5t36.5 -71.5q0 -103 -126 -133zM236 152h316l-32 -152h-450v680h465v-152h-299v-111h282v-146h-282v-119z" />
    <glyph glyph-name="uni1EBB" unicode="&#x1ebb;" horiz-adv-x="565" 
d="M260 573l-44 67q25 4 46.5 16.5t21.5 27.5q0 27 -42 27q-30 0 -78 -9v90q43 8 91 8q58 0 94.5 -22.5t36.5 -71.5q0 -103 -126 -133zM298 -10q-134 0 -196 63.5t-62 213.5q0 149 63.5 211t187.5 62q122 0 178 -61t56 -205q0 -39 -4 -61h-321q1 -50 30 -69t97 -19
q79 0 167 35v-136q-66 -34 -196 -34zM200 318h170q-1 50 -19 72t-61 22q-48 0 -68 -22t-22 -72z" />
    <glyph glyph-name="uni1EBC" unicode="&#x1ebc;" horiz-adv-x="596" 
d="M392 886h97q0 -82 -26.5 -112t-83.5 -30q-37 0 -76 22.5t-49 22.5q-13 0 -17.5 -7t-6.5 -30h-97q0 82 26.5 112t83.5 30q37 0 76 -22.5t49 -22.5q13 0 17.5 7t6.5 30zM236 152h316l-32 -152h-450v680h465v-152h-299v-111h282v-146h-282v-119z" />
    <glyph glyph-name="uni1EBD" unicode="&#x1ebd;" horiz-adv-x="565" 
d="M364 736h97q0 -82 -26.5 -112t-83.5 -30q-37 0 -76 22.5t-49 22.5q-13 0 -17.5 -7t-6.5 -30h-97q0 82 26.5 112t83.5 30q37 0 76 -22.5t49 -22.5q13 0 17.5 7t6.5 30zM298 -10q-134 0 -196 63.5t-62 213.5q0 149 63.5 211t187.5 62q122 0 178 -61t56 -205q0 -39 -4 -61
h-321q1 -50 30 -69t97 -19q79 0 167 35v-136q-66 -34 -196 -34zM200 318h170q-1 50 -19 72t-61 22q-48 0 -68 -22t-22 -72z" />
    <glyph glyph-name="uni1EBE" unicode="&#x1ebe;" horiz-adv-x="596" 
d="M500 978h165l-109 -130h-130zM316 780l-48 -50h-156l139 133h130l135 -133h-157zM236 271v-119h316l-32 -152h-450v680h465v-152h-299v-111h282v-146h-282z" />
    <glyph glyph-name="uni1EBF" unicode="&#x1ebf;" horiz-adv-x="565" 
d="M385 698l74 130h165l-109 -130h-130zM71 580l139 133h130l135 -133h-157l-43 50l-48 -50h-156zM298 -10q-134 0 -196 63.5t-62 213.5q0 149 63.5 211t187.5 62q122 0 178 -61t56 -205q0 -39 -4 -61h-321q1 -50 30 -69t97 -19q79 0 167 35v-136q-66 -34 -196 -34zM200 318
h170q-1 50 -19 72t-61 22q-48 0 -68 -22t-22 -72z" />
    <glyph glyph-name="uni1EC0" unicode="&#x1ec0;" horiz-adv-x="596" 
d="M556 848h-130l-109 130h165zM300 780l-43 -50h-157l135 133h130l139 -133h-156zM236 271v-119h316l-32 -152h-450v680h465v-152h-299v-111h282v-146h-282z" />
    <glyph glyph-name="uni1EC1" unicode="&#x1ec1;" horiz-adv-x="565" 
d="M545 698h-130l-109 130h165zM493 580h-156l-48 50l-43 -50h-157l135 133h130zM298 -10q-134 0 -196 63.5t-62 213.5q0 149 63.5 211t187.5 62q122 0 178 -61t56 -205q0 -39 -4 -61h-321q1 -50 30 -69t97 -19q79 0 167 35v-136q-66 -34 -196 -34zM200 318h170
q-1 50 -19 72t-61 22q-48 0 -68 -22t-22 -72z" />
    <glyph glyph-name="uni1EC2" unicode="&#x1ec2;" horiz-adv-x="596" 
d="M449 1043q54 0 95.5 -25t41.5 -71q0 -99 -127 -130l-46 69q49 5 49 29q0 25 -35 25q-37 0 -62 -6v99q36 10 84 10zM306 780l-48 -50h-156l139 133h130l135 -133h-157zM236 271v-119h316l-32 -152h-450v680h465v-152h-299v-111h282v-146h-282z" />
    <glyph glyph-name="uni1EC3" unicode="&#x1ec3;" horiz-adv-x="565" 
d="M445 667l-46 69q49 5 49 29q0 25 -35 25q-37 0 -62 -6v99q36 10 84 10q54 0 95.5 -25t41.5 -71q0 -99 -127 -130zM88 580l139 133h130l135 -133h-157l-43 50l-48 -50h-156zM298 -10q-134 0 -196 63.5t-62 213.5q0 149 63.5 211t187.5 62q122 0 178 -61t56 -205
q0 -39 -4 -61h-321q1 -50 30 -69t97 -19q79 0 167 35v-136q-66 -34 -196 -34zM200 318h170q-1 50 -19 72t-61 22q-48 0 -68 -22t-22 -72z" />
    <glyph glyph-name="uni1EC4" unicode="&#x1ec4;" horiz-adv-x="596" 
d="M248 914q-11 0 -15 -6t-6 -24h-96q0 80 25.5 107t80.5 27q34 0 71.5 -19t46.5 -19q11 0 15 6t6 24h96q0 -80 -25.5 -107t-80.5 -27q-34 0 -72 19t-46 19zM306 774l-48 -44h-156l139 116h130l135 -116h-157zM236 152h316l-32 -152h-450v680h465v-152h-299v-111h282v-146
h-282v-119z" />
    <glyph glyph-name="uni1EC5" unicode="&#x1ec5;" horiz-adv-x="565" 
d="M355 860h96q0 -80 -25.5 -107t-80.5 -27q-34 0 -72 19t-46 19q-11 0 -15 -6t-6 -24h-96q0 80 25.5 107t80.5 27q34 0 71.5 -19t46.5 -19q11 0 15 6t6 24zM81 580l139 116h130l135 -116h-157l-43 44l-48 -44h-156zM298 -10q-134 0 -196 63.5t-62 213.5q0 149 63.5 211
t187.5 62q122 0 178 -61t56 -205q0 -39 -4 -61h-321q1 -50 30 -69t97 -19q79 0 167 35v-136q-66 -34 -196 -34zM200 318h170q-1 50 -19 72t-61 22q-48 0 -68 -22t-22 -72z" />
    <glyph glyph-name="uni1EC6" unicode="&#x1ec6;" horiz-adv-x="596" 
d="M313 796l-48 -56h-154l137 150h130l133 -150h-155zM236 152h316l-32 -152h-450v680h465v-152h-299v-111h282v-146h-282v-119zM225 -200v140h172v-140h-172z" />
    <glyph glyph-name="uni1EC7" unicode="&#x1ec7;" horiz-adv-x="565" 
d="M83 590l137 150h130l133 -150h-155l-43 56l-48 -56h-154zM298 -10q-134 0 -196 63.5t-62 213.5q0 149 63.5 211t187.5 62q122 0 178 -61t56 -205q0 -39 -4 -61h-321q1 -50 30 -69t97 -19q79 0 167 35v-136q-66 -34 -196 -34zM200 318h170q-1 50 -19 72t-61 22
q-48 0 -68 -22t-22 -72zM197 -200v140h172v-140h-172z" />
    <glyph glyph-name="uni1EC8" unicode="&#x1ec8;" horiz-adv-x="306" 
d="M138 723l-44 67q25 4 46.5 16.5t21.5 27.5q0 27 -42 27q-30 0 -78 -9v90q43 8 91 8q58 0 94.5 -22.5t36.5 -71.5q0 -103 -126 -133zM69 0v680h166v-680h-166z" />
    <glyph glyph-name="uni1EC9" unicode="&#x1ec9;" horiz-adv-x="276" 
d="M123 573l-44 67q25 4 46.5 16.5t21.5 27.5q0 27 -42 27q-30 0 -78 -9v90q43 8 91 8q58 0 94.5 -22.5t36.5 -71.5q0 -103 -126 -133zM55 0v530h164v-530h-164z" />
    <glyph glyph-name="uni1ECA" unicode="&#x1eca;" horiz-adv-x="306" 
d="M70 0v680h166v-680h-166zM67 -200v140h172v-140h-172z" />
    <glyph glyph-name="uni1ECB" unicode="&#x1ecb;" horiz-adv-x="279" 
d="M54 580v140h172v-140h-172zM58 0v530h164v-530h-164zM53 -200v140h172v-140h-172z" />
    <glyph glyph-name="uni1ECC" unicode="&#x1ecc;" 
d="M342 -10q-161 0 -229 78t-68 272t68 272t229 78q162 0 229.5 -78t67.5 -272t-68 -272t-229 -78zM342 145q76 0 102.5 44t26.5 151t-26 150.5t-103 43.5q-76 0 -102.5 -43.5t-26.5 -150.5t26.5 -151t102.5 -44zM256 -200v140h172v-140h-172z" />
    <glyph glyph-name="uni1ECD" unicode="&#x1ecd;" horiz-adv-x="608" 
d="M304 -10q-130 0 -197 60.5t-67 214.5q0 151 67.5 213t196.5 62t196.5 -62t67.5 -213q0 -154 -67 -214.5t-197 -60.5zM304 134q51 0 74.5 26.5t23.5 104.5q0 77 -23.5 104t-74.5 27t-74.5 -27t-23.5 -104q0 -78 23.5 -104.5t74.5 -26.5zM218 -200v140h172v-140h-172z" />
    <glyph glyph-name="uni1ECE" unicode="&#x1ece;" 
d="M343 723l-44 67q25 4 46.5 16.5t21.5 27.5q0 27 -42 27q-30 0 -78 -9v90q43 8 91 8q58 0 94.5 -22.5t36.5 -71.5q0 -103 -126 -133zM342 -10q-161 0 -229 78t-68 272t68 272t229 78q162 0 229.5 -78t67.5 -272t-68 -272t-229 -78zM342 145q76 0 102.5 44t26.5 151
t-26 150.5t-103 43.5q-76 0 -102.5 -43.5t-26.5 -150.5t26.5 -151t102.5 -44z" />
    <glyph glyph-name="uni1ECF" unicode="&#x1ecf;" horiz-adv-x="608" 
d="M294 573l-44 67q25 4 46.5 16.5t21.5 27.5q0 27 -42 27q-30 0 -78 -9v90q43 8 91 8q58 0 94.5 -22.5t36.5 -71.5q0 -103 -126 -133zM304 -10q-130 0 -197 60.5t-67 214.5q0 151 67.5 213t196.5 62t196.5 -62t67.5 -213q0 -154 -67 -214.5t-197 -60.5zM304 134
q51 0 74.5 26.5t23.5 104.5q0 77 -23.5 104t-74.5 27t-74.5 -27t-23.5 -104q0 -78 23.5 -104.5t74.5 -26.5z" />
    <glyph glyph-name="uni1ED0" unicode="&#x1ed0;" horiz-adv-x="694" 
d="M461 848l74 130h165l-109 -130h-130zM147 730l139 133h130l135 -133h-157l-43 50l-48 -50h-156zM342 -10q-161 0 -229 78t-68 272t68 272t229 78q162 0 229.5 -78t67.5 -272t-68 -272t-229 -78zM342 145q76 0 102.5 44t26.5 151t-26 150.5t-103 43.5q-76 0 -102.5 -43.5
t-26.5 -150.5t26.5 -151t102.5 -44z" />
    <glyph glyph-name="uni1ED1" unicode="&#x1ed1;" horiz-adv-x="608" 
d="M416 698l74 130h165l-109 -130h-130zM102 580l139 133h130l135 -133h-157l-43 50l-48 -50h-156zM304 -10q-130 0 -197 60.5t-67 214.5q0 151 67.5 213t196.5 62t196.5 -62t67.5 -213q0 -154 -67 -214.5t-197 -60.5zM304 134q51 0 74.5 26.5t23.5 104.5q0 77 -23.5 104
t-74.5 27t-74.5 -27t-23.5 -104q0 -78 23.5 -104.5t74.5 -26.5z" />
    <glyph glyph-name="uni1ED2" unicode="&#x1ed2;" 
d="M602 848h-130l-109 130h165zM550 730h-156l-48 50l-43 -50h-157l135 133h130zM342 -10q-161 0 -229 78t-68 272t68 272t229 78q162 0 229.5 -78t67.5 -272t-68 -272t-229 -78zM342 145q76 0 102.5 44t26.5 151t-26 150.5t-103 43.5q-76 0 -102.5 -43.5t-26.5 -150.5
t26.5 -151t102.5 -44z" />
    <glyph glyph-name="uni1ED3" unicode="&#x1ed3;" horiz-adv-x="608" 
d="M558 698h-130l-109 130h165zM506 580h-156l-48 50l-43 -50h-157l135 133h130zM304 -10q-130 0 -197 60.5t-67 214.5q0 151 67.5 213t196.5 62t196.5 -62t67.5 -213q0 -154 -67 -214.5t-197 -60.5zM304 134q51 0 74.5 26.5t23.5 104.5q0 77 -23.5 104t-74.5 27t-74.5 -27
t-23.5 -104q0 -78 23.5 -104.5t74.5 -26.5z" />
    <glyph glyph-name="uni1ED4" unicode="&#x1ed4;" 
d="M492 817l-46 69q49 5 49 29q0 25 -35 25q-36 0 -62 -6v99q36 10 84 10q54 0 95.5 -25t41.5 -71q0 -99 -127 -130zM135 730l139 133h130l135 -133h-157l-43 50l-48 -50h-156zM342 -10q-161 0 -229 78t-68 272t68 272t229 78q162 0 229.5 -78t67.5 -272t-68 -272t-229 -78z
M342 145q76 0 102.5 44t26.5 151t-26 150.5t-103 43.5q-76 0 -102.5 -43.5t-26.5 -150.5t26.5 -151t102.5 -44z" />
    <glyph glyph-name="uni1ED5" unicode="&#x1ed5;" horiz-adv-x="608" 
d="M459 667l-46 69q49 5 49 29q0 25 -35 25q-37 0 -62 -6v99q36 10 84 10q54 0 95.5 -25t41.5 -71q0 -99 -127 -130zM102 580l139 133h130l135 -133h-157l-43 50l-48 -50h-156zM304 -10q-130 0 -197 60.5t-67 214.5q0 151 67.5 213t196.5 62t196.5 -62t67.5 -213
q0 -154 -67 -214.5t-197 -60.5zM304 134q51 0 74.5 26.5t23.5 104.5q0 77 -23.5 104t-74.5 27t-74.5 -27t-23.5 -104q0 -78 23.5 -104.5t74.5 -26.5z" />
    <glyph glyph-name="uni1ED6" unicode="&#x1ed6;" 
d="M414 1010h96q0 -80 -25.5 -107t-80.5 -27q-34 0 -72 19t-46 19q-11 0 -15 -6t-6 -24h-96q0 80 25.5 107t80.5 27q34 0 71.5 -19t46.5 -19q11 0 15 6t6 24zM140 730l139 116h130l135 -116h-157l-43 44l-48 -44h-156zM342 -10q-161 0 -229 78t-68 272t68 272t229 78
q162 0 229.5 -78t67.5 -272t-68 -272t-229 -78zM342 145q76 0 102.5 44t26.5 151t-26 150.5t-103 43.5q-76 0 -102.5 -43.5t-26.5 -150.5t26.5 -151t102.5 -44z" />
    <glyph glyph-name="uni1ED7" unicode="&#x1ed7;" horiz-adv-x="608" 
d="M376 860h96q0 -80 -25.5 -107t-80.5 -27q-34 0 -72 19t-46 19q-11 0 -15 -6t-6 -24h-96q0 80 25.5 107t80.5 27q34 0 71.5 -19t46.5 -19q11 0 15 6t6 24zM102 580l139 116h130l135 -116h-157l-43 44l-48 -44h-156zM304 -10q-130 0 -197 60.5t-67 214.5q0 151 67.5 213
t196.5 62t196.5 -62t67.5 -213q0 -154 -67 -214.5t-197 -60.5zM304 134q51 0 74.5 26.5t23.5 104.5q0 77 -23.5 104t-74.5 27t-74.5 -27t-23.5 -104q0 -78 23.5 -104.5t74.5 -26.5z" />
    <glyph glyph-name="uni1ED8" unicode="&#x1ed8;" 
d="M142 740l137 150h130l133 -150h-155l-43 56l-48 -56h-154zM342 -10q-161 0 -229 78t-68 272t68 272t229 78q162 0 229.5 -78t67.5 -272t-68 -272t-229 -78zM342 145q76 0 102.5 44t26.5 151t-26 150.5t-103 43.5q-76 0 -102.5 -43.5t-26.5 -150.5t26.5 -151t102.5 -44z
M256 -200v140h172v-140h-172z" />
    <glyph glyph-name="uni1ED9" unicode="&#x1ed9;" horiz-adv-x="608" 
d="M104 590l137 150h130l133 -150h-155l-43 56l-48 -56h-154zM304 -10q-130 0 -197 60.5t-67 214.5q0 151 67.5 213t196.5 62t196.5 -62t67.5 -213q0 -154 -67 -214.5t-197 -60.5zM304 134q51 0 74.5 26.5t23.5 104.5q0 77 -23.5 104t-74.5 27t-74.5 -27t-23.5 -104
q0 -78 23.5 -104.5t74.5 -26.5zM218 -200v140h172v-140h-172z" />
    <glyph glyph-name="uni1EDA" unicode="&#x1eda;" 
d="M479 890l-114 -150h-135l81 150h168zM639 750q0 -81 -68 -138q68 -78 68 -272t-68 -272t-229 -78t-229 78t-68 272t68 272t229 78q77 0 131 -16q19 29 19 100q0 19 -2 36h145q4 -27 4 -60zM342 145q76 0 102.5 44t26.5 151t-26 150.5t-103 43.5q-76 0 -102.5 -43.5
t-26.5 -150.5t26.5 -151t102.5 -44z" />
    <glyph glyph-name="uni1EDB" unicode="&#x1edb;" horiz-adv-x="608" 
d="M410 740l-114 -150h-135l81 150h168zM508 470q60 -66 60 -205q0 -154 -67 -214.5t-197 -60.5t-197 60.5t-67 214.5q0 151 67.5 213t196.5 62q59 0 100 -11q16 31 16 95q0 19 -2 36h145q4 -27 4 -60q0 -76 -59 -130zM304 134q51 0 74.5 26.5t23.5 104.5q0 77 -23.5 104
t-74.5 27t-74.5 -27t-23.5 -104q0 -78 23.5 -104.5t74.5 -26.5z" />
    <glyph glyph-name="uni1EDC" unicode="&#x1edc;" 
d="M429 740h-135l-114 150h168zM639 750q0 -81 -68 -138q68 -78 68 -272t-68 -272t-229 -78t-229 78t-68 272t68 272t229 78q77 0 131 -16q19 29 19 100q0 19 -2 36h145q4 -27 4 -60zM342 145q76 0 102.5 44t26.5 151t-26 150.5t-103 43.5q-76 0 -102.5 -43.5t-26.5 -150.5
t26.5 -151t102.5 -44z" />
    <glyph glyph-name="uni1EDD" unicode="&#x1edd;" horiz-adv-x="608" 
d="M353 590h-135l-114 150h168zM508 470q60 -66 60 -205q0 -154 -67 -214.5t-197 -60.5t-197 60.5t-67 214.5q0 151 67.5 213t196.5 62q59 0 100 -11q16 31 16 95q0 19 -2 36h145q4 -27 4 -60q0 -76 -59 -130zM304 134q51 0 74.5 26.5t23.5 104.5q0 77 -23.5 104t-74.5 27
t-74.5 -27t-23.5 -104q0 -78 23.5 -104.5t74.5 -26.5z" />
    <glyph glyph-name="uni1EDE" unicode="&#x1ede;" 
d="M351 834q0 27 -42 27q-30 0 -78 -9v90q43 8 91 8q58 0 94.5 -22.5t36.5 -71.5q0 -103 -126 -133l-44 67q25 4 46.5 16.5t21.5 27.5zM639 750q0 -81 -68 -138q68 -78 68 -272t-68 -272t-229 -78t-229 78t-68 272t68 272t229 78q77 0 131 -16q19 29 19 100q0 19 -2 36h145
q4 -27 4 -60zM342 145q76 0 102.5 44t26.5 151t-26 150.5t-103 43.5q-76 0 -102.5 -43.5t-26.5 -150.5t26.5 -151t102.5 -44z" />
    <glyph glyph-name="uni1EDF" unicode="&#x1edf;" horiz-adv-x="608" 
d="M288 684q0 27 -42 27q-30 0 -78 -9v90q43 8 91 8q58 0 94.5 -22.5t36.5 -71.5q0 -103 -126 -133l-44 67q25 4 46.5 16.5t21.5 27.5zM508 470q60 -66 60 -205q0 -154 -67 -214.5t-197 -60.5t-197 60.5t-67 214.5q0 151 67.5 213t196.5 62q59 0 100 -11q16 31 16 95
q0 19 -2 36h145q4 -27 4 -60q0 -76 -59 -130zM304 134q51 0 74.5 26.5t23.5 104.5q0 77 -23.5 104t-74.5 27t-74.5 -27t-23.5 -104q0 -78 23.5 -104.5t74.5 -26.5z" />
    <glyph glyph-name="uni1EE0" unicode="&#x1ee0;" 
d="M230 789q-13 0 -17.5 -7t-6.5 -30h-97q0 82 26.5 112t83.5 30q37 0 76 -22.5t49 -22.5q13 0 17.5 7t6.5 30h97q0 -82 -26.5 -112t-83.5 -30q-37 0 -76 22.5t-49 22.5zM639 750q0 -81 -68 -138q68 -78 68 -272t-68 -272t-229 -78t-229 78t-68 272t68 272t229 78
q77 0 131 -16q19 29 19 100q0 19 -2 36h145q4 -27 4 -60zM342 145q76 0 102.5 44t26.5 151t-26 150.5t-103 43.5q-76 0 -102.5 -43.5t-26.5 -150.5t26.5 -151t102.5 -44z" />
    <glyph glyph-name="uni1EE1" unicode="&#x1ee1;" horiz-adv-x="608" 
d="M161 639q-13 0 -17.5 -7t-6.5 -30h-97q0 82 26.5 112t83.5 30q36 0 76 -22.5t49 -22.5q13 0 17.5 7t6.5 30h97q0 -82 -26.5 -112t-83.5 -30q-36 0 -76 22.5t-49 22.5zM508 470q60 -66 60 -205q0 -154 -67 -214.5t-197 -60.5t-197 60.5t-67 214.5q0 151 67.5 213t196.5 62
q59 0 100 -11q16 31 16 95q0 19 -2 36h145q4 -27 4 -60q0 -76 -59 -130zM304 134q51 0 74.5 26.5t23.5 104.5q0 77 -23.5 104t-74.5 27t-74.5 -27t-23.5 -104q0 -78 23.5 -104.5t74.5 -26.5z" />
    <glyph glyph-name="uni1EE2" unicode="&#x1ee2;" 
d="M639 750q0 -81 -68 -138q68 -78 68 -272t-68 -272t-229 -78t-229 78t-68 272t68 272t229 78q77 0 131 -16q19 29 19 100q0 19 -2 36h145q4 -27 4 -60zM342 145q76 0 102.5 44t26.5 151t-26 150.5t-103 43.5q-76 0 -102.5 -43.5t-26.5 -150.5t26.5 -151t102.5 -44z
M261 -200v140h172v-140h-172z" />
    <glyph glyph-name="uni1EE3" unicode="&#x1ee3;" horiz-adv-x="608" 
d="M508 470q60 -66 60 -205q0 -154 -67 -214.5t-197 -60.5t-197 60.5t-67 214.5q0 151 67.5 213t196.5 62q59 0 100 -11q16 31 16 95q0 19 -2 36h145q4 -27 4 -60q0 -76 -59 -130zM304 134q51 0 74.5 26.5t23.5 104.5q0 77 -23.5 104t-74.5 27t-74.5 -27t-23.5 -104
q0 -78 23.5 -104.5t74.5 -26.5zM218 -200v140h172v-140h-172z" />
    <glyph glyph-name="uni1EE4" unicode="&#x1ee4;" 
d="M342 -10q-139 0 -209 52.5t-70 188.5v449h166v-420q0 -67 23.5 -90.5t89.5 -23.5t89.5 23.5t23.5 90.5v420h166v-449q0 -136 -70 -188.5t-209 -52.5zM256 -200v140h172v-140h-172z" />
    <glyph glyph-name="uni1EE5" unicode="&#x1ee5;" horiz-adv-x="609" 
d="M228 -10q-87 0 -130 40t-43 111v389h164v-334q0 -30 16 -46t59 -16q49 0 91 24v372h164v-530h-140l-13 46q-70 -56 -168 -56zM216 -200v140h172v-140h-172z" />
    <glyph glyph-name="uni1EE6" unicode="&#x1ee6;" 
d="M328 723l-44 67q25 4 46.5 16.5t21.5 27.5q0 27 -42 27q-30 0 -78 -9v90q43 8 91 8q58 0 94.5 -22.5t36.5 -71.5q0 -103 -126 -133zM342 -10q-139 0 -209 52.5t-70 188.5v449h166v-420q0 -67 23.5 -90.5t89.5 -23.5t89.5 23.5t23.5 90.5v420h166v-449q0 -136 -70 -188.5
t-209 -52.5z" />
    <glyph glyph-name="uni1EE7" unicode="&#x1ee7;" horiz-adv-x="609" 
d="M292 573l-44 67q25 4 46.5 16.5t21.5 27.5q0 27 -42 27q-30 0 -78 -9v90q43 8 91 8q58 0 94.5 -22.5t36.5 -71.5q0 -103 -126 -133zM228 -10q-87 0 -130 40t-43 111v389h164v-334q0 -30 16 -46t59 -16q49 0 91 24v372h164v-530h-140l-13 46q-70 -56 -168 -56z" />
    <glyph glyph-name="uni1EE8" unicode="&#x1ee8;" horiz-adv-x="695" 
d="M510 890l-114 -150h-135l81 150h168zM737 730q0 -58 -27.5 -92t-88.5 -49v-358q0 -136 -70 -188.5t-209 -52.5t-209 52.5t-70 188.5v449h166v-420q0 -67 23.5 -90.5t89.5 -23.5t89.5 23.5t23.5 90.5v420h68q42 0 58 15t16 61q0 26 -3 54h138q5 -38 5 -80z" />
    <glyph glyph-name="uni1EE9" unicode="&#x1ee9;" horiz-adv-x="660" 
d="M464 740l-114 -150h-135l81 150h168zM668 580q0 -59 -28.5 -93.5t-90.5 -48.5v-438h-140l-13 46q-70 -56 -168 -56q-87 0 -130 40t-43 111v389h164v-334q0 -30 16 -46t59 -16q49 0 91 24v372h69q42 0 58 15t16 61q0 26 -3 54h138q5 -38 5 -80z" />
    <glyph glyph-name="uni1EEA" unicode="&#x1eea;" horiz-adv-x="695" 
d="M428 740h-135l-114 150h168zM737 730q0 -58 -27.5 -92t-88.5 -49v-358q0 -136 -70 -188.5t-209 -52.5t-209 52.5t-70 188.5v449h166v-420q0 -67 23.5 -90.5t89.5 -23.5t89.5 23.5t23.5 90.5v420h68q42 0 58 15t16 61q0 26 -3 54h138q5 -38 5 -80z" />
    <glyph glyph-name="uni1EEB" unicode="&#x1eeb;" horiz-adv-x="660" 
d="M384 590h-135l-114 150h168zM668 580q0 -59 -28.5 -93.5t-90.5 -48.5v-438h-140l-13 46q-70 -56 -168 -56q-87 0 -130 40t-43 111v389h164v-334q0 -30 16 -46t59 -16q49 0 91 24v372h69q42 0 58 15t16 61q0 26 -3 54h138q5 -38 5 -80z" />
    <glyph glyph-name="uni1EEC" unicode="&#x1eec;" horiz-adv-x="695" 
d="M350 834q0 27 -42 27q-30 0 -78 -9v90q43 8 91 8q58 0 94.5 -22.5t36.5 -71.5q0 -103 -126 -133l-44 67q25 4 46.5 16.5t21.5 27.5zM737 730q0 -58 -27.5 -92t-88.5 -49v-358q0 -136 -70 -188.5t-209 -52.5t-209 52.5t-70 188.5v449h166v-420q0 -67 23.5 -90.5
t89.5 -23.5t89.5 23.5t23.5 90.5v420h68q42 0 58 15t16 61q0 26 -3 54h138q5 -38 5 -80z" />
    <glyph glyph-name="uni1EED" unicode="&#x1eed;" horiz-adv-x="660" 
d="M315 684q0 27 -42 27q-30 0 -78 -9v90q43 8 91 8q58 0 94.5 -22.5t36.5 -71.5q0 -103 -126 -133l-44 67q25 4 46.5 16.5t21.5 27.5zM668 580q0 -59 -28.5 -93.5t-90.5 -48.5v-438h-140l-13 46q-70 -56 -168 -56q-87 0 -130 40t-43 111v389h164v-334q0 -30 16 -46t59 -16
q49 0 91 24v372h69q42 0 58 15t16 61q0 26 -3 54h138q5 -38 5 -80z" />
    <glyph glyph-name="uni1EEE" unicode="&#x1eee;" horiz-adv-x="695" 
d="M281 789q-13 0 -17.5 -7t-6.5 -30h-97q0 82 26.5 112t83.5 30q36 0 76 -22.5t49 -22.5q13 0 17.5 7t6.5 30h97q0 -82 -26.5 -112t-83.5 -30q-36 0 -76 22.5t-49 22.5zM737 730q0 -58 -27.5 -92t-88.5 -49v-358q0 -136 -70 -188.5t-209 -52.5t-209 52.5t-70 188.5v449h166
v-420q0 -67 23.5 -90.5t89.5 -23.5t89.5 23.5t23.5 90.5v420h68q42 0 58 15t16 61q0 26 -3 54h138q5 -38 5 -80z" />
    <glyph glyph-name="uni1EEF" unicode="&#x1eef;" horiz-adv-x="660" 
d="M236 639q-13 0 -17.5 -7t-6.5 -30h-97q0 82 26.5 112t83.5 30q37 0 76 -22.5t49 -22.5q13 0 17.5 7t6.5 30h97q0 -82 -26.5 -112t-83.5 -30q-37 0 -76 22.5t-49 22.5zM668 580q0 -59 -28.5 -93.5t-90.5 -48.5v-438h-140l-13 46q-70 -56 -168 -56q-87 0 -130 40t-43 111
v389h164v-334q0 -30 16 -46t59 -16q49 0 91 24v372h69q42 0 58 15t16 61q0 26 -3 54h138q5 -38 5 -80z" />
    <glyph glyph-name="uni1EF0" unicode="&#x1ef0;" horiz-adv-x="695" 
d="M737 730q0 -58 -27.5 -92t-88.5 -49v-358q0 -136 -70 -188.5t-209 -52.5t-209 52.5t-70 188.5v449h166v-420q0 -67 23.5 -90.5t89.5 -23.5t89.5 23.5t23.5 90.5v420h68q42 0 58 15t16 61q0 26 -3 54h138q5 -38 5 -80zM256 -200v140h172v-140h-172z" />
    <glyph glyph-name="uni1EF1" unicode="&#x1ef1;" horiz-adv-x="660" 
d="M668 580q0 -59 -28.5 -93.5t-90.5 -48.5v-438h-140l-13 46q-70 -56 -168 -56q-87 0 -130 40t-43 111v389h164v-334q0 -30 16 -46t59 -16q49 0 91 24v372h69q42 0 58 15t16 61q0 26 -3 54h138q5 -38 5 -80zM204 -200v140h172v-140h-172z" />
    <glyph glyph-name="Ygrave" unicode="&#x1ef2;" horiz-adv-x="632" 
d="M392 740h-135l-114 150h168zM399 0h-166v243l-225 437h183l125 -264l126 264h182l-225 -437v-243z" />
    <glyph glyph-name="ygrave" unicode="&#x1ef3;" horiz-adv-x="556" 
d="M364 590h-135l-114 150h168zM373 530h175l-148 -422q-21 -60 -41.5 -102t-54 -86.5t-83 -76.5t-116.5 -53l-59 130q112 47 151 107l-189 503h171l102 -334z" />
    <glyph glyph-name="uni1EF4" unicode="&#x1ef4;" horiz-adv-x="632" 
d="M233 0v243l-225 437h182l126 -264l125 264h183l-225 -437v-243h-166zM230 -200v140h172v-140h-172z" />
    <glyph glyph-name="uni1EF5" unicode="&#x1ef5;" horiz-adv-x="556" 
d="M548 530l-148 -422q-21 -60 -41.5 -102t-54 -86.5t-83 -76.5t-116.5 -53l-59 130q112 47 151 107l-189 503h171l102 -334l92 334h175zM364 -200v140h172v-140h-172z" />
    <glyph glyph-name="uni1EF6" unicode="&#x1ef6;" horiz-adv-x="632" 
d="M306 723l-44 67q25 4 46.5 16.5t21.5 27.5q0 27 -42 27q-30 0 -78 -9v90q43 8 91 8q58 0 94.5 -22.5t36.5 -71.5q0 -103 -126 -133zM233 0v243l-225 437h182l126 -264l125 264h183l-225 -437v-243h-166z" />
    <glyph glyph-name="uni1EF7" unicode="&#x1ef7;" horiz-adv-x="556" 
d="M285 684q0 27 -42 27q-30 0 -78 -9v90q43 8 91 8q58 0 94.5 -22.5t36.5 -71.5q0 -103 -126 -133l-44 67q25 4 46.5 16.5t21.5 27.5zM373 530h175l-148 -422q-21 -60 -41.5 -102t-54 -86.5t-83 -76.5t-116.5 -53l-59 130q112 47 151 107l-189 503h171l102 -334z" />
    <glyph glyph-name="uni1EF8" unicode="&#x1ef8;" horiz-adv-x="632" 
d="M397 886h97q0 -82 -26.5 -112t-83.5 -30q-36 0 -76 22.5t-49 22.5q-13 0 -17.5 -7t-6.5 -30h-97q0 82 26.5 112t83.5 30q36 0 76 -22.5t49 -22.5q13 0 17.5 7t6.5 30zM233 0v243l-225 437h182l126 -264l125 264h183l-225 -437v-243h-166z" />
    <glyph glyph-name="uni1EF9" unicode="&#x1ef9;" horiz-adv-x="556" 
d="M221 639q-13 0 -17.5 -7t-6.5 -30h-97q0 82 26.5 112t83.5 30q37 0 76.5 -22.5t48.5 -22.5q13 0 17.5 7t6.5 30h97q0 -82 -26.5 -112t-83.5 -30q-36 0 -76 22.5t-49 22.5zM373 530h175l-148 -422q-21 -60 -41.5 -102t-54 -86.5t-83 -76.5t-116.5 -53l-59 130
q112 47 151 107l-189 503h171l102 -334z" />
    <glyph glyph-name="endash" unicode="&#x2013;" horiz-adv-x="611" 
d="M60 231v149h491v-149h-491z" />
    <glyph glyph-name="emdash" unicode="&#x2014;" horiz-adv-x="790" 
d="M60 231v149h670v-149h-670z" />
    <glyph glyph-name="quoteleft" unicode="&#x2018;" horiz-adv-x="284" 
d="M244 720l-34 -289h-170l72 289h132z" />
    <glyph glyph-name="quoteright" unicode="&#x2019;" horiz-adv-x="284" 
d="M40 431l34 289h170l-72 -289h-132z" />
    <glyph glyph-name="quotesinglbase" unicode="&#x201a;" horiz-adv-x="284" 
d="M40 -167l34 289h170l-72 -289h-132z" />
    <glyph glyph-name="quotedblleft" unicode="&#x201c;" horiz-adv-x="513" 
d="M244 720l-34 -289h-170l72 289h132zM473 720l-34 -289h-170l72 289h132z" />
    <glyph glyph-name="quotedblright" unicode="&#x201d;" horiz-adv-x="513" 
d="M40 431l34 289h170l-72 -289h-132zM269 431l34 289h170l-72 -289h-132z" />
    <glyph glyph-name="quotedblbase" unicode="&#x201e;" horiz-adv-x="513" 
d="M40 -167l34 289h170l-72 -289h-132zM269 -167l34 289h170l-72 -289h-132z" />
    <glyph glyph-name="dagger" unicode="&#x2020;" horiz-adv-x="540" 
d="M500 600v-130h-157v-360h-146v360h-157v130h157v120h146v-120h157z" />
    <glyph glyph-name="daggerdbl" unicode="&#x2021;" horiz-adv-x="540" 
d="M500 470h-157v-110h157v-130h-157v-120h-146v120h-157v130h157v110h-157v130h157v120h146v-120h157v-130z" />
    <glyph glyph-name="bullet" unicode="&#x2022;" horiz-adv-x="350" 
d="M175 200q-80 0 -105 23.5t-25 107.5q0 83 25 106.5t105 23.5q79 0 104.5 -23.5t25.5 -106.5t-25.5 -107t-104.5 -24z" />
    <glyph glyph-name="ellipsis" unicode="&#x2026;" horiz-adv-x="718" 
d="M45 0v169h168v-169h-168zM275 0v169h168v-169h-168zM505 0v169h168v-169h-168z" />
    <glyph glyph-name="perthousand" unicode="&#x2030;" horiz-adv-x="1069" 
d="M185 390q-80 0 -110 32.5t-30 117.5t30 117.5t110 32.5t110 -32.5t30 -117.5t-30 -117.5t-110 -32.5zM140 0l367 680h120l-364 -680h-123zM185 478q24 0 32.5 13.5t8.5 48.5t-8.5 48.5t-32.5 13.5t-32.5 -13.5t-8.5 -48.5t8.5 -48.5t32.5 -13.5zM585 -10q-80 0 -110 32.5
t-30 117.5t30 117.5t110 32.5t110 -32.5t30 -117.5t-30 -117.5t-110 -32.5zM924 -10q-80 0 -110 32.5t-30 117.5t30 117.5t110 32.5t110 -32.5t30 -117.5t-30 -117.5t-110 -32.5zM585 78q24 0 32.5 13.5t8.5 48.5t-8.5 48.5t-32.5 13.5t-32.5 -13.5t-8.5 -48.5t8.5 -48.5
t32.5 -13.5zM924 78q24 0 32.5 13.5t8.5 48.5t-8.5 48.5t-32.5 13.5t-32.5 -13.5t-8.5 -48.5t8.5 -48.5t32.5 -13.5z" />
    <glyph glyph-name="guilsinglleft" unicode="&#x2039;" horiz-adv-x="363" 
d="M145 59l-105 253l120 253h163l-105 -253l92 -253h-165z" />
    <glyph glyph-name="guilsinglright" unicode="&#x203a;" horiz-adv-x="398" 
d="M253 59h-165l92 253l-105 253h163l120 -253z" />
    <glyph glyph-name="fraction" unicode="&#x2044;" horiz-adv-x="134" 
d="M-230 0l466 680h108l-461 -680h-113z" />
    <glyph glyph-name="uni2070" unicode="&#x2070;" horiz-adv-x="352" 
d="M177 282q-85 0 -124 47t-39 158q0 110 38.5 156.5t124.5 46.5q85 0 123 -46.5t38 -156.5q0 -111 -38 -158t-123 -47zM177 382q33 0 44.5 22t11.5 83q0 63 -11 83t-45 20q-35 0 -46.5 -20t-11.5 -83q0 -61 12 -83t46 -22z" />
    <glyph glyph-name="uni2074" unicode="&#x2074;" horiz-adv-x="352" 
d="M218 496h103v-203h-103v63h-188v83l126 242h107l-120 -238h75v53z" />
    <glyph glyph-name="uni2075" unicode="&#x2075;" horiz-adv-x="352" 
d="M201 535q120 0 120 -124q0 -66 -36.5 -97.5t-118.5 -31.5q-54 0 -126 12v91q60 -12 125 -12q54 0 54 41q0 24 -12.5 33.5t-40.5 9.5q-60 0 -122 -5v228h257v-96h-161v-52q42 3 61 3z" />
    <glyph glyph-name="uni2076" unicode="&#x2076;" horiz-adv-x="352" 
d="M174 283q-145 0 -145 162q0 108 59.5 164t168.5 82l26 -86q-125 -30 -147 -82q33 14 66 14q64 0 94 -34t30 -89q0 -70 -39 -100.5t-113 -30.5zM177 367q28 0 39 11t11 36q0 49 -48 49q-31 0 -53 -10q-1 -5 -1 -14q0 -38 11.5 -55t40.5 -17z" />
    <glyph glyph-name="uni2077" unicode="&#x2077;" horiz-adv-x="352" 
d="M37 680h278v-110q0 -28 -19.5 -53.5t-43.5 -42.5t-43.5 -42.5t-19.5 -53.5v-86h-100v86q0 42 19 75.5t42 50.5t42 35.5t19 34.5v14h-174v92z" />
    <glyph glyph-name="uni2078" unicode="&#x2078;" horiz-adv-x="352" 
d="M176 283q-154 0 -154 116q0 41 15 63t46 37q-46 25 -46 87q0 56 33.5 80t105.5 24t105.5 -24t33.5 -80q0 -62 -46 -87q31 -15 46 -37t15 -63q0 -116 -154 -116zM176 537q47 0 47 40q0 39 -47 39t-47 -39q0 -40 47 -40zM176 364q52 0 52 46q0 44 -52 44t-52 -44
q0 -46 52 -46z" />
    <glyph glyph-name="uni2079" unicode="&#x2079;" horiz-adv-x="352" 
d="M184 691q145 0 145 -162q0 -108 -59.5 -164t-168.5 -82l-26 86q125 30 147 82q-33 -14 -66 -14q-64 0 -94 34t-30 89q0 70 39 100.5t113 30.5zM181 607q-28 0 -39 -11t-11 -36q0 -49 48 -49q31 0 53 10q1 5 1 14q0 38 -11.5 55t-40.5 17z" />
    <glyph glyph-name="uni2080" unicode="&#x2080;" horiz-adv-x="352" 
d="M177 -134q-85 0 -124 47t-39 158q0 110 38.5 156.5t124.5 46.5q85 0 123 -46.5t38 -156.5q0 -111 -38 -158t-123 -47zM177 -34q33 0 44.5 22t11.5 83q0 63 -11 83t-45 20q-35 0 -46.5 -20t-11.5 -83q0 -61 12 -83t46 -22z" />
    <glyph glyph-name="uni2081" unicode="&#x2081;" horiz-adv-x="352" 
d="M239 -32h77v-92h-264v92h84v188l-82 -12v97l185 33v-306z" />
    <glyph glyph-name="uni2082" unicode="&#x2082;" horiz-adv-x="352" 
d="M39 -124v71l144 136q13 12 19 18.5t11 17.5t5 24q0 18 -13.5 25.5t-49.5 7.5q-45 0 -115 -19v98q70 19 139 19q78 0 110 -26.5t32 -82.5q0 -45 -14.5 -71t-50.5 -62l-59 -58h125l-17 -98h-266z" />
    <glyph glyph-name="uni2083" unicode="&#x2083;" horiz-adv-x="352" 
d="M218 101q106 0 106 -109q0 -72 -37.5 -99t-125.5 -27q-62 0 -122 12v96q74 -14 122 -14q32 0 46 7t14 27t-12 29t-40 9q-33 0 -64 -4l-18 74l96 65h-140v97h246l31 -83l-108 -80h6z" />
    <glyph glyph-name="uni2084" unicode="&#x2084;" horiz-adv-x="352" 
d="M218 79h103v-203h-103v63h-188v83l126 242h107l-120 -238h75v53z" />
    <glyph glyph-name="uni2085" unicode="&#x2085;" horiz-adv-x="352" 
d="M201 119q120 0 120 -124q0 -66 -36.5 -97.5t-118.5 -31.5q-54 0 -126 12v91q60 -12 125 -12q54 0 54 41q0 24 -12.5 33.5t-40.5 9.5q-60 0 -122 -5v228h257v-96h-161v-52q42 3 61 3z" />
    <glyph glyph-name="uni2086" unicode="&#x2086;" horiz-adv-x="352" 
d="M174 -134q-145 0 -145 162q0 108 59.5 164t168.5 82l26 -86q-125 -30 -147 -82q33 14 66 14q64 0 94 -34t30 -89q0 -70 -39 -100.5t-113 -30.5zM177 -50q28 0 39 11t11 36q0 49 -48 49q-31 0 -53 -10q-1 -5 -1 -14q0 -38 11.5 -55t40.5 -17z" />
    <glyph glyph-name="uni2087" unicode="&#x2087;" horiz-adv-x="352" 
d="M37 264h278v-110q0 -28 -19.5 -53.5t-43.5 -42.5t-43.5 -42.5t-19.5 -53.5v-86h-100v86q0 42 19 75.5t42 50.5t42 35.5t19 34.5v14h-174v92z" />
    <glyph glyph-name="uni2088" unicode="&#x2088;" horiz-adv-x="352" 
d="M176 -134q-154 0 -154 116q0 41 15 63t46 37q-46 25 -46 87q0 56 33.5 80t105.5 24t105.5 -24t33.5 -80q0 -62 -46 -87q31 -15 46 -37t15 -63q0 -116 -154 -116zM176 120q47 0 47 40q0 39 -47 39t-47 -39q0 -40 47 -40zM176 -53q52 0 52 46q0 44 -52 44t-52 -44
q0 -46 52 -46z" />
    <glyph glyph-name="uni2089" unicode="&#x2089;" horiz-adv-x="352" 
d="M184 274q145 0 145 -162q0 -108 -59.5 -164t-168.5 -82l-26 86q125 30 147 82q-33 -14 -66 -14q-64 0 -94 34t-30 89q0 70 39 100.5t113 30.5zM181 190q-28 0 -39 -11t-11 -36q0 -49 48 -49q31 0 53 10q1 5 1 14q0 38 -11.5 55t-40.5 17z" />
    <glyph glyph-name="dong" unicode="&#x20ab;" horiz-adv-x="576" 
d="M451 661h88v-66h-88v-476h-99l-17 40q-44 -48 -121 -48q-35 0 -63 8.5t-54.5 30.5t-41.5 66.5t-15 109.5q0 214 174 214q66 0 107 -37v92h-124v66h124v59h130v-59zM321 236v177q-38 9 -67 9q-42 0 -59 -21t-17 -75q0 -57 17 -77t59 -20q30 0 67 7zM46 0v71h407v-71h-407z
" />
    <glyph glyph-name="Euro" unicode="&#x20ac;" horiz-adv-x="643" 
d="M426 534q-60 0 -88 -17.5t-38 -71.5h176l-20 -80h-163v-25v-25h152l-20 -80h-125q11 -54 38.5 -71.5t87.5 -17.5q86 0 167 23v-158q-72 -21 -167 -21q-128 0 -200 55t-91 190h-93v80h86v25v25h-88v80h95q19 135 91.5 190t199.5 55q95 0 167 -21v-158q-80 23 -167 23z" />
    <glyph glyph-name="uni20BA" unicode="&#x20ba;" horiz-adv-x="652" 
d="M467 275h167q-4 -115 -75.5 -195t-209.5 -80h-215v264l-87 -34v80l87 34v50l-89 -34v80l89 34v206h166v-142l161 62v-80l-161 -62v-50l161 62v-80l-161 -62v-176h34q72 0 99.5 31t33.5 92z" />
    <glyph glyph-name="uni20BD" unicode="&#x20bd;" horiz-adv-x="726" 
d="M480 284h-133v-69h184v-116h-184v-99h-166v99h-101v116h101v69h-101v116h101v280h283q114 0 175.5 -44t61.5 -154q0 -59 -18 -99.5t-50.5 -61t-69 -29t-83.5 -8.5zM347 554v-154h91q58 0 75.5 18.5t17.5 64.5q0 42 -19.5 56.5t-73.5 14.5h-91z" />
    <glyph glyph-name="uni2113" unicode="&#x2113;" horiz-adv-x="520" 
d="M309 -10q-92 0 -133 42t-41 136v43q-20 -6 -75 -18v106q53 16 75 24v208q0 85 39 122t135 37q77 0 114 -31.5t37 -98.5q0 -155 -181 -276v-79q0 -38 17.5 -55t55.5 -17q36 0 80 16v-141q-44 -18 -123 -18zM279 423q51 72 51 121q0 29 -26 29q-25 0 -25 -30v-120z" />
    <glyph glyph-name="uni2116" unicode="&#x2116;" horiz-adv-x="1204" 
d="M939 199q-108 0 -166.5 54.5t-58.5 191.5q0 134 58.5 189.5t166.5 55.5t166.5 -55.5t58.5 -189.5q0 -136 -58.5 -191t-166.5 -55zM70 0v680h144l250 -390v390h166v-680h-141l-253 387v-387h-166zM939 340q39 0 56 22.5t17 82.5q0 59 -17 81.5t-56 22.5q-38 0 -55 -22.5
t-17 -81.5q0 -60 17 -82.5t55 -22.5z" />
    <glyph glyph-name="trademark" unicode="&#x2122;" horiz-adv-x="770" 
d="M136 390v203h-96v87h286v-87h-100v-203h-90zM372 390v290h120l60 -79l64 79h114v-290h-90v190l-88 -125l-90 125v-190h-90z" />
    <glyph glyph-name="uni2126" unicode="&#x2126;" horiz-adv-x="690" 
d="M45 0v152h102q-41 39 -65 103t-24 135q0 158 63 229t224 71t224 -71t63 -229q0 -71 -24 -135t-65 -103h102v-152h-262v142q79 98 79 248q0 76 -24.5 110t-92.5 34t-92.5 -34t-24.5 -110q0 -150 79 -248v-142h-262z" />
    <glyph glyph-name="estimated" unicode="&#x212e;" horiz-adv-x="643" 
d="M321 -10q-126 0 -203.5 76t-77.5 199q0 122 78 198.5t203 76.5q119 0 197.5 -71t84.5 -204h-440v-188q67 -52 158 -52q71 0 128.5 31t85.5 69l24 -27q-32 -41 -97 -74.5t-141 -33.5zM163 300h317v148q-68 57 -160 57q-95 0 -157 -58v-147z" />
    <glyph glyph-name="uni2153" unicode="&#x2153;" horiz-adv-x="932" 
d="M309 293h-264v92h84v188l-82 -12v97l185 33v-306h77v-92zM623 680h108l-461 -680h-113zM762 225q106 0 106 -109q0 -72 -37.5 -99t-125.5 -27q-62 0 -122 12v96q74 -14 122 -14q32 0 46 7t14 27t-12 29t-40 9q-33 0 -64 -4l-18 74l96 65h-140v97h246l31 -83l-108 -80h6z
" />
    <glyph glyph-name="uni2154" unicode="&#x2154;" horiz-adv-x="932" 
d="M334 391l-17 -98h-266v71l144 136q13 12 19 18.5t11 17.5t5 24q0 18 -13.5 25.5t-49.5 7.5q-45 0 -115 -19v98q70 19 139 19q78 0 110 -26.5t32 -82.5q0 -45 -14.5 -71t-50.5 -62l-59 -58h125zM638 680h108l-461 -680h-113zM779 225q106 0 106 -109q0 -72 -37.5 -99
t-125.5 -27q-62 0 -122 12v96q74 -14 122 -14q32 0 46 7t14 27t-12 29t-40 9q-33 0 -64 -4l-18 74l96 65h-140v97h246l31 -83l-108 -80h6z" />
    <glyph glyph-name="uni2155" unicode="&#x2155;" horiz-adv-x="932" 
d="M314 293h-264v92h84v188l-82 -12v97l185 33v-306h77v-92zM626 680h108l-461 -680h-113zM755 243q120 0 120 -124q0 -66 -36.5 -97.5t-118.5 -31.5q-54 0 -126 12v91q60 -12 125 -12q54 0 54 41q0 24 -12.5 33.5t-40.5 9.5q-60 0 -122 -5v228h257v-96h-161v-52q42 3 61 3z
" />
    <glyph glyph-name="uni2156" unicode="&#x2156;" horiz-adv-x="932" 
d="M332 391l-17 -98h-266v71l144 136q13 12 19 18.5t11 17.5t5 24q0 18 -13.5 25.5t-49.5 7.5q-45 0 -115 -19v98q70 19 139 19q78 0 110 -26.5t32 -82.5q0 -45 -14.5 -71t-50.5 -62l-59 -58h125zM642 680h108l-461 -680h-113zM770 243q120 0 120 -124q0 -66 -36.5 -97.5
t-118.5 -31.5q-54 0 -126 12v91q60 -12 125 -12q54 0 54 41q0 24 -12.5 33.5t-40.5 9.5q-60 0 -122 -5v228h257v-96h-161v-52q42 3 61 3z" />
    <glyph glyph-name="uni2157" unicode="&#x2157;" horiz-adv-x="932" 
d="M355 408q0 -72 -37.5 -99t-125.5 -27q-62 0 -122 12v96q74 -14 122 -14q32 0 46 7t14 27t-12 29t-40 9q-33 0 -64 -4l-18 74l96 65h-140v97h246l31 -83l-108 -80h6q106 0 106 -109zM643 680h108l-461 -680h-113zM771 243q120 0 120 -124q0 -66 -36.5 -97.5t-118.5 -31.5
q-54 0 -126 12v91q60 -12 125 -12q54 0 54 41q0 24 -12.5 33.5t-40.5 9.5q-60 0 -122 -5v228h257v-96h-161v-52q42 3 61 3z" />
    <glyph glyph-name="uni2158" unicode="&#x2158;" horiz-adv-x="932" 
d="M236 293v63h-188v83l126 242h107l-120 -238h75v53h103v-203h-103zM644 680h108l-461 -680h-113zM773 243q120 0 120 -124q0 -66 -36.5 -97.5t-118.5 -31.5q-54 0 -126 12v91q60 -12 125 -12q54 0 54 41q0 24 -12.5 33.5t-40.5 9.5q-60 0 -122 -5v228h257v-96h-161v-52
q42 3 61 3z" />
    <glyph glyph-name="uni2159" unicode="&#x2159;" horiz-adv-x="932" 
d="M334 293h-264v92h84v188l-82 -12v97l185 33v-306h77v-92zM642 680h108l-461 -680h-113zM694 244q64 0 94 -34t30 -89q0 -70 -39 -100.5t-113 -30.5q-145 0 -145 162q0 108 59.5 164t168.5 82l26 -86q-125 -30 -147 -82q33 14 66 14zM669 74q28 0 39 11t11 36q0 49 -48 49
q-31 0 -53 -10q-1 -5 -1 -14q0 -38 11.5 -55t40.5 -17z" />
    <glyph glyph-name="uni215A" unicode="&#x215a;" horiz-adv-x="932" 
d="M345 411q0 -66 -36.5 -97.5t-118.5 -31.5q-54 0 -126 12v91q60 -12 125 -12q54 0 54 41q0 24 -12.5 33.5t-40.5 9.5q-60 0 -122 -5v228h257v-96h-161v-52q42 3 61 3q120 0 120 -124zM652 680h108l-461 -680h-113zM724 244q64 0 94 -34t30 -89q0 -70 -39 -100.5
t-113 -30.5q-145 0 -145 162q0 108 59.5 164t168.5 82l26 -86q-125 -30 -147 -82q33 14 66 14zM699 74q28 0 39 11t11 36q0 49 -48 49q-31 0 -53 -10q-1 -5 -1 -14q0 -38 11.5 -55t40.5 -17z" />
    <glyph glyph-name="oneeighth" unicode="&#x215b;" horiz-adv-x="932" 
d="M332 293h-264v92h84v188l-82 -12v97l185 33v-306h77v-92zM656 680h108l-461 -680h-113zM814 206q31 -15 46 -37t15 -63q0 -116 -154 -116t-154 116q0 41 15 63t46 37q-46 25 -46 87q0 56 33.5 80t105.5 24t105.5 -24t33.5 -80q0 -62 -46 -87zM721 323q-47 0 -47 -39
q0 -40 47 -40t47 40q0 39 -47 39zM721 71q52 0 52 46q0 44 -52 44t-52 -44q0 -46 52 -46z" />
    <glyph glyph-name="threeeighths" unicode="&#x215c;" horiz-adv-x="932" 
d="M361 408q0 -72 -37.5 -99t-125.5 -27q-62 0 -122 12v96q74 -14 122 -14q32 0 46 7t14 27t-12 29t-40 9q-33 0 -64 -4l-18 74l96 65h-140v97h246l31 -83l-108 -80h6q106 0 106 -109zM641 680h108l-461 -680h-113zM805 206q31 -15 46 -37t15 -63q0 -116 -154 -116t-154 116
q0 41 15 63t46 37q-46 25 -46 87q0 56 33.5 80t105.5 24t105.5 -24t33.5 -80q0 -62 -46 -87zM712 323q-47 0 -47 -39q0 -40 47 -40t47 40q0 39 -47 39zM712 71q52 0 52 46q0 44 -52 44t-52 -44q0 -46 52 -46z" />
    <glyph glyph-name="fiveeighths" unicode="&#x215d;" horiz-adv-x="932" 
d="M654 681h108l-461 -680h-113zM345 411q0 -66 -36.5 -97.5t-118.5 -31.5q-54 0 -126 12v91q60 -12 125 -12q54 0 54 41q0 24 -12.5 33.5t-40.5 9.5q-60 0 -122 -5v228h257v-96h-161v-52q42 3 61 3q120 0 120 -124zM820 206q31 -15 46 -37t15 -63q0 -116 -154 -116
t-154 116q0 41 15 63t46 37q-46 25 -46 87q0 56 33.5 80t105.5 24t105.5 -24t33.5 -80q0 -62 -46 -87zM727 323q-47 0 -47 -39q0 -40 47 -40t47 40q0 39 -47 39zM727 71q52 0 52 46q0 44 -52 44t-52 -44q0 -46 52 -46z" />
    <glyph glyph-name="seveneighths" unicode="&#x215e;" horiz-adv-x="932" 
d="M262 575v14h-174v92h278v-110q0 -28 -19.5 -53.5t-43.5 -42.5t-43.5 -42.5t-19.5 -53.5v-86h-100v86q0 42 19 75.5t42 50.5t42 35.5t19 34.5zM600 680h108l-461 -680h-113zM779 206q31 -15 46 -37t15 -63q0 -116 -154 -116t-154 116q0 41 15 63t46 37q-46 25 -46 87
q0 56 33.5 80t105.5 24t105.5 -24t33.5 -80q0 -62 -46 -87zM686 323q-47 0 -47 -39q0 -40 47 -40t47 40q0 39 -47 39zM686 71q52 0 52 46q0 44 -52 44t-52 -44q0 -46 52 -46z" />
    <glyph glyph-name="arrowleft" unicode="&#x2190;" horiz-adv-x="760" 
d="M40 344l349 354l100 -99l-166 -172h397v-166h-397l166 -173l-100 -98z" />
    <glyph glyph-name="arrowup" unicode="&#x2191;" horiz-adv-x="788" 
d="M394 730l354 -349l-98 -100l-173 166v-397h-166v397l-172 -166l-99 100z" />
    <glyph glyph-name="arrowright" unicode="&#x2192;" horiz-adv-x="760" 
d="M720 344l-349 -354l-100 98l166 173h-397v166h397l-166 172l100 99z" />
    <glyph glyph-name="arrowdown" unicode="&#x2193;" horiz-adv-x="788" 
d="M394 -10l-354 349l98 100l173 -166v397h166v-397l172 166l99 -100z" />
    <glyph glyph-name="arrowboth" unicode="&#x2194;" horiz-adv-x="1110" 
d="M721 698l349 -354l-349 -354l-100 98l166 173h-464l166 -173l-100 -98l-349 354l349 354l100 -99l-166 -172h464l-166 172z" />
    <glyph glyph-name="arrowupdn" unicode="&#x2195;" horiz-adv-x="788" 
d="M477 83l173 166l98 -100l-354 -349l-354 349l99 100l172 -166v464l-172 -166l-99 100l354 349l354 -349l-98 -100l-173 166v-464z" />
    <glyph glyph-name="uni2196" unicode="&#x2196;" horiz-adv-x="623" 
d="M43 679l497 3l1 -141l-239 -4l281 -281l-118 -117l-280 281l-5 -240l-140 1z" />
    <glyph glyph-name="uni2197" unicode="&#x2197;" horiz-adv-x="623" 
d="M580 679l3 -498l-140 -1l-5 240l-280 -281l-118 117l281 281l-239 4l1 141z" />
    <glyph glyph-name="uni2198" unicode="&#x2198;" horiz-adv-x="623" 
d="M580 3l-497 -3l-1 141l239 4l-281 281l118 117l280 -281l5 240l140 -1z" />
    <glyph glyph-name="uni2199" unicode="&#x2199;" horiz-adv-x="623" 
d="M43 3l-3 498l140 1l5 -240l280 281l118 -117l-281 -281l239 -4l-1 -141z" />
    <glyph glyph-name="partialdiff" unicode="&#x2202;" horiz-adv-x="577" 
d="M302 -10q-129 0 -195.5 49t-66.5 178q0 91 47 152t147 61q66 0 117 -22q-13 30 -42 55.5t-72 44.5t-78.5 31.5t-84.5 26.5l43 124q88 -21 161.5 -56.5t133 -86.5t92.5 -123.5t33 -159.5q0 -274 -235 -274zM296 131q81 0 81 101q0 34 -12 56q-33 18 -88 18q-73 0 -73 -84
q0 -47 20 -69t72 -22z" />
    <glyph glyph-name="emptyset" unicode="&#x2205;" 
d="M565 619q74 -78 74 -279q0 -194 -68 -272t-229 -78q-109 0 -172 33l-15 -23h-93l48 72q-65 79 -65 268q0 194 68 272t229 78q97 0 158 -26l11 16h94zM213 340q0 -64 8 -100l186 283q-27 11 -65 11q-76 0 -102.5 -43.5t-26.5 -150.5zM342 145q76 0 102.5 44t26.5 151
q0 79 -12 119l-195 -295q28 -19 78 -19z" />
    <glyph glyph-name="uni2206" unicode="&#x2206;" horiz-adv-x="637" 
d="M427 680l205 -680h-627l205 680h217zM223 152h192l-96 359z" />
    <glyph glyph-name="product" unicode="&#x220f;" horiz-adv-x="707" 
d="M637 680v-680h-166v528h-235v-528h-166v680h567z" />
    <glyph glyph-name="summation" unicode="&#x2211;" horiz-adv-x="646" 
d="M576 680v-152h-311l176 -188l-176 -188h311v-152h-506v162l169 178l-169 178v162h506z" />
    <glyph glyph-name="minus" unicode="&#x2212;" horiz-adv-x="522" 
d="M40 231v150h442v-150h-442z" />
    <glyph glyph-name="uni2215" unicode="&#x2215;" horiz-adv-x="584" 
d="M5 0l466 680h108l-461 -680h-113z" />
    <glyph glyph-name="uni2219" unicode="&#x2219;" horiz-adv-x="258" 
d="M45 217v169h168v-169h-168z" />
    <glyph glyph-name="radical" unicode="&#x221a;" horiz-adv-x="639" 
d="M187 0l-179 490h178l85 -315l187 505h173l-273 -680h-171z" />
    <glyph glyph-name="infinity" unicode="&#x221e;" horiz-adv-x="879" 
d="M631 531q107 0 157.5 -50t50.5 -158t-50.5 -158t-157.5 -50q-55 0 -100.5 27.5t-90.5 87.5q-46 -60 -91.5 -87.5t-100.5 -27.5q-107 0 -157.5 50t-50.5 158t50.5 158t157.5 50q55 0 100.5 -27.5t91.5 -87.5q45 60 90.5 87.5t100.5 27.5zM244 255q37 0 103 68
q-66 68 -103 68q-30 0 -43.5 -16t-13.5 -52t13.5 -52t43.5 -16zM635 255q30 0 43.5 16t13.5 52t-13.5 52t-43.5 16q-37 0 -103 -68q66 -68 103 -68z" />
    <glyph glyph-name="integral" unicode="&#x222b;" horiz-adv-x="426" 
d="M284 860l117 -107q-72 -79 -89.5 -121.5t-17.5 -119.5v-392q0 -94 -29 -163t-125 -167l-117 107q72 79 89.5 121.5t17.5 119.5v392q0 94 29 163t125 167z" />
    <glyph glyph-name="approxequal" unicode="&#x2248;" horiz-adv-x="483" 
d="M40 415q61 27 118 27q37 0 99 -17.5t83 -17.5q56 0 103 31v-138q-56 -29 -106 -29q-25 0 -86.5 17.5t-94.5 17.5q-55 0 -116 -28v137zM40 217q61 27 118 27q37 0 99 -17.5t83 -17.5q56 0 103 31v-138q-56 -29 -106 -29q-25 0 -86.5 17.5t-94.5 17.5q-55 0 -116 -28v137z
" />
    <glyph glyph-name="notequal" unicode="&#x2260;" horiz-adv-x="546" 
d="M486 345h-124l-30 -76h154v-145h-211l-48 -124h-150l48 124h-65v145h122l30 76h-152v145h208l37 94h150l-37 -94h68v-145z" />
    <glyph glyph-name="lessequal" unicode="&#x2264;" horiz-adv-x="520" 
d="M460 575v-139l-238 -57l238 -57v-139l-400 126v140zM460 0h-400v112h400v-112z" />
    <glyph glyph-name="greaterequal" unicode="&#x2265;" horiz-adv-x="480" 
d="M40 575l400 -126v-140l-400 -126v139l238 57l-238 57v139zM40 0v112h400v-112h-400z" />
    <glyph glyph-name="lozenge" unicode="&#x25ca;" horiz-adv-x="699" 
d="M435 680l219 -345l-219 -335h-171l-219 335l219 345h171zM350 147l126 188l-126 198l-127 -198z" />
    <glyph glyph-name="uniF8FF" unicode="&#xf8ff;" horiz-adv-x="304" 
d="M67 202v169h168v-169h-168z" />
    <glyph glyph-name="i.TRK" horiz-adv-x="278" 
d="M53 580v140h172v-140h-172zM57 0v530h164v-530h-164z" />
    <glyph glyph-name="germandbls.calt" horiz-adv-x="685" 
d="M400 -10q-55 0 -111 7v149q48 -7 110 -7q83 0 83 66q0 33 -20.5 50t-73.5 17q-54 0 -93 -6v116l122 135q-20 30 -79 30q-58 0 -83.5 -25.5t-25.5 -74.5v-447h-166v439q0 126 63.5 188.5t213.5 62.5q205 0 286 -147l-147 -160q10 2 23 2q63 0 105.5 -46t42.5 -138
q0 -122 -59 -166.5t-191 -44.5z" />
    <glyph glyph-name="uni0424.001" horiz-adv-x="834" 
d="M337 -10v84q-169 0 -238 62.5t-69 221.5q0 162 69 225t238 63v74h160v-74q169 0 238 -63t69 -225q0 -159 -69 -221.5t-238 -62.5v-84h-160zM337 214h6v291h-6q-84 1 -111.5 -31t-27.5 -116q0 -81 28 -112.5t111 -31.5zM491 214h6q83 0 111 31.5t28 112.5q0 84 -27.5 116
t-111.5 31h-6v-291z" />
    <glyph glyph-name="uni0414.alt" horiz-adv-x="724" 
d="M631 152h91v-321h-166v169h-388v-169h-166v321h91l167 528h205zM258 152h203l-100 364z" />
    <glyph glyph-name="uni041B.alt" 
d="M679 0h-176l-162 516l-166 -516h-170l235 680h205z" />
    <glyph glyph-name="uni041C.alt" horiz-adv-x="876" 
d="M70 0v680h212l157 -251l152 251h215v-680h-166v475l-201 -308l-203 308v-475h-166z" />
    <glyph glyph-name="uni0409.alt" horiz-adv-x="1018" 
d="M741 468q115 0 176 -52t61 -182t-61 -182t-176 -52h-238l-162 516l-166 -516h-170l235 680h205l73 -212h223zM715 146q53 0 74 20t21 68q0 49 -21 69t-74 20h-147l61 -177h86z" />
    <glyph glyph-name="uni041B.loclBGR" 
d="M679 0h-172l-166 519l-166 -519h-170l235 680h205z" />
    <glyph glyph-name="uni0424.loclBGR" horiz-adv-x="674" 
d="M264 -90v114q-119 15 -171.5 89t-52.5 227t52.5 227t171.5 89v114h146v-114q119 -15 171.5 -89t52.5 -227t-52.5 -227t-171.5 -89v-114h-146zM264 184v311q-36 -2 -50.5 -32t-14.5 -123t14.5 -123t50.5 -33zM410 184q36 2 50.5 32.5t14.5 123.5t-14.5 123t-50.5 32v-311z
" />
    <glyph glyph-name="uni0434.alt" horiz-adv-x="609" 
d="M525 140h80v-264h-164v124h-273v-124h-164v264h81l125 390h190zM247 140h116l-58 224z" />
    <glyph glyph-name="uni043B.alt" horiz-adv-x="558" 
d="M377 530l177 -530h-169l-106 358l-106 -358h-169l177 530h196z" />
    <glyph glyph-name="uni0459.alt" horiz-adv-x="801" 
d="M781 191q0 -59 -14 -97t-44.5 -58.5t-69.5 -28t-99 -7.5h-169l-106 358l-106 -358h-169l177 530h196l49 -148h118q64 0 104 -7t72 -27t46.5 -58t14.5 -99zM535 134q52 0 67.5 11.5t15.5 45.5t-15.5 45.5t-67.5 11.5h-64l38 -114h26z" />
    <glyph glyph-name="uni0432.loclBGR" horiz-adv-x="603" 
d="M308 -10q-151 0 -207 53.5t-56 165.5v265q0 112 54.5 164t205.5 52q128 0 181.5 -37.5t53.5 -130.5q0 -81 -24.5 -116.5t-82.5 -46.5q66 -10 95.5 -49t29.5 -122q0 -107 -57 -152.5t-193 -45.5zM209 421h90q43 0 61.5 13.5t18.5 54.5q0 36 -15.5 47.5t-62.5 11.5
q-56 0 -74 -21t-18 -71v-35zM310 134q48 0 67 16t19 57q0 50 -20.5 65.5t-76.5 15.5h-90v-56q0 -53 21.5 -75.5t79.5 -22.5z" />
    <glyph glyph-name="uni0433.loclBGR" horiz-adv-x="508" 
d="M275 -10q-128 0 -181.5 36t-53.5 130q0 72 32.5 106.5t107.5 55.5l96 27q25 7 34 14t9 20q0 14 -14.5 19.5t-59.5 5.5q-89 0 -174 -29v145q67 20 176 20q122 0 176.5 -33.5t54.5 -120.5q0 -73 -30.5 -108.5t-102.5 -55.5l-104 -29q-27 -8 -36.5 -15.5t-9.5 -21.5
q0 -16 15 -22t59 -6q81 0 198 35v-148q-87 -25 -192 -25z" />
    <glyph glyph-name="uni0434.loclBGR" horiz-adv-x="623" 
d="M107 -210v141q144 6 214 24q49 12 67.5 31t18.5 52v19q-63 -34 -145 -34q-108 0 -165 59t-57 199q0 125 51.5 192t169.5 67q44 0 81 -15t57 -33v38h164v-456q0 -65 -11.5 -107t-43.5 -76t-90 -54.5t-150 -32.5q-90 -12 -161 -14zM307 162q50 0 92 18v198q-44 19 -92 19
q-58 0 -80 -26.5t-22 -89.5q0 -67 23 -93t79 -26z" />
    <glyph glyph-name="uni0436.loclBGR" horiz-adv-x="832" 
d="M828 0h-186l-144 258v-258h-164v258l-144 -258h-186l166 271l-154 259h185l133 -253v443h164v-443l133 253h185l-154 -259z" />
    <glyph glyph-name="uni0437.loclBGR" horiz-adv-x="504" 
d="M203 -210q-91 0 -173 15v141q79 -15 176 -15q92 0 92 84q0 48 -22.5 66t-82.5 18h-78v141h78q59 0 82 18.5t23 63.5q0 44 -23 61t-69 17q-80 0 -172 -17v142q78 15 169 15q141 0 201 -44t60 -159q0 -136 -95 -174q95 -46 95 -168q0 -115 -60 -160t-201 -45z" />
    <glyph glyph-name="uni0438.loclBGR" horiz-adv-x="609" 
d="M228 -10q-87 0 -130 40t-43 111v389h164v-334q0 -30 16 -46t59 -16q49 0 91 24v372h164v-530h-140l-13 46q-70 -56 -168 -56z" />
    <glyph glyph-name="uni0439.loclBGR" horiz-adv-x="609" 
d="M302 560q-107 0 -158 35.5t-52 119.5h133q1 -34 18 -46.5t59 -12.5t59 12.5t18 46.5h133q-1 -84 -52 -119.5t-158 -35.5zM228 -10q-87 0 -130 40t-43 111v389h164v-334q0 -30 16 -46t59 -16q49 0 91 24v372h164v-530h-140l-13 46q-70 -56 -168 -56z" />
    <glyph glyph-name="uni045D.loclBGR" horiz-adv-x="609" 
d="M383 590h-135l-114 150h168zM228 -10q-87 0 -130 40t-43 111v389h164v-334q0 -30 16 -46t59 -16q49 0 91 24v372h164v-530h-140l-13 46q-70 -56 -168 -56z" />
    <glyph glyph-name="uni043A.loclBGR" horiz-adv-x="586" 
d="M582 0h-194l-164 259v-259h-164v720h164v-445l153 255h193l-174 -259z" />
    <glyph glyph-name="uni043B.loclBGR" horiz-adv-x="558" 
d="M374 530l180 -530h-170l-105 364l-105 -364h-170l180 530h190z" />
    <glyph glyph-name="uni043F.loclBGR" horiz-adv-x="613" 
d="M60 0v530h157v-50q64 60 176 60q165 0 165 -151v-389h-164v334q0 30 -16.5 46t-60.5 16q-56 0 -93 -20v-376h-164z" />
    <glyph glyph-name="uni0442.loclBGR" horiz-adv-x="927" 
d="M707 540q165 0 165 -151v-389h-164v334q0 30 -16.5 46t-60.5 16q-40 0 -83 -16v-380h-164v334q0 30 -16.5 46t-60.5 16q-40 0 -83 -16v-380h-164v530h157v-50q64 60 166 60q107 0 143 -61q66 61 181 61z" />
    <glyph glyph-name="uni0446.loclBGR" horiz-adv-x="665" 
d="M549 140h100v-264h-164v124h-76l-13 46q-70 -56 -168 -56q-87 0 -130 40t-43 111v389h164v-334q0 -30 16 -46t59 -16q49 0 91 24v372h164v-390z" />
    <glyph glyph-name="uni0448.loclBGR" horiz-adv-x="919" 
d="M695 530h164v-530h-140l-13 46q-64 -56 -158 -56q-101 0 -145 56q-66 -56 -175 -56q-87 0 -130 40t-43 111v389h164v-334q0 -30 16 -46t59 -16q52 0 81 24v372h164v-334q0 -30 16 -46t59 -16q52 0 81 24v372z" />
    <glyph glyph-name="uni0449.loclBGR" horiz-adv-x="976" 
d="M859 140h101v-264h-164v124h-77l-13 46q-64 -56 -158 -56q-101 0 -145 56q-66 -56 -175 -56q-87 0 -130 40t-43 111v389h164v-334q0 -30 16 -46t59 -16q52 0 81 24v372h164v-334q0 -30 16 -46t59 -16q52 0 81 24v372h164v-390z" />
    <glyph glyph-name="uni044E.loclBGR" horiz-adv-x="832" 
d="M539 540q127 0 190 -61.5t63 -213.5q0 -154 -63 -214.5t-190 -60.5q-113 0 -173 45.5t-73 159.5h-69v-195h-164v720h164v-385h69q13 113 73.5 159t172.5 46zM539 134q49 0 70 26t21 105q0 78 -21 104.5t-70 26.5t-70 -26.5t-21 -104.5q0 -79 20.5 -105t70.5 -26z" />
    <glyph glyph-name="uni0431.loclMKD" horiz-adv-x="607" 
d="M567 241q0 -140 -67 -195.5t-196 -55.5q-130 0 -197 55t-67 196q0 85 32.5 133.5t98.5 69.5q-55 15 -80.5 45.5t-25.5 83.5q0 62 42.5 89.5t132.5 35.5q40 4 97 11q24 3 36.5 10.5t25.5 30.5l129 -40q-8 -43 -27 -68t-62 -39q-31 -10 -128 -19q-53 -5 -68.5 -12
t-15.5 -25q0 -26 33 -39q19 -7 100 -26l30 -7.5t35.5 -11.5t40.5 -19t36.5 -29t34 -42t21.5 -57t9 -75zM304 135q51 0 76 21.5t25 84.5q0 62 -25.5 84.5t-75.5 22.5q-51 0 -76 -22.5t-25 -84.5q0 -63 24.5 -84.5t76.5 -21.5z" />
    <glyph glyph-name="uni0431.loclSRB" horiz-adv-x="590" 
d="M567 241q0 -140 -67 -195.5t-196 -55.5q-130 0 -197 55t-67 196q0 85 32.5 133.5t98.5 69.5q-55 15 -80.5 45.5t-25.5 83.5q0 62 42.5 89.5t132.5 35.5q40 4 97 11q24 3 36.5 10.5t25.5 30.5l129 -40q-8 -43 -27 -68t-62 -39q-31 -10 -128 -19q-53 -5 -68.5 -12
t-15.5 -25q0 -26 33 -39q19 -7 100 -26l30 -7.5t35.5 -11.5t40.5 -19t36.5 -29t34 -42t21.5 -57t9 -75zM304 135q51 0 76 21.5t25 84.5q0 62 -25.5 84.5t-75.5 22.5q-51 0 -76 -22.5t-25 -84.5q0 -63 24.5 -84.5t76.5 -21.5z" />
    <glyph glyph-name="zero.tf" horiz-adv-x="600" 
d="M295 -10q-145 0 -205 74.5t-60 275.5t60 275.5t205 74.5t205 -74.5t60 -275.5t-60 -275.5t-205 -74.5zM295 142q59 0 79 39.5t20 158.5t-20 158.5t-79 39.5t-79 -39.5t-20 -158.5t20 -158.5t79 -39.5z" />
    <glyph glyph-name="one.tf" horiz-adv-x="600" 
d="M413 152h135v-152h-451v152h152v360l-159 -22v146l323 54v-538z" />
    <glyph glyph-name="two.tf" horiz-adv-x="600" 
d="M55 0v132l258 238q29 27 40 45t11 52q0 42 -25.5 55t-99.5 13q-101 0 -181 -25v153q91 27 231 27q133 0 187 -49.5t54 -147.5q0 -78 -19.5 -116.5t-69.5 -86.5l-143 -138h254l-33 -152h-464z" />
    <glyph glyph-name="three.tf" horiz-adv-x="600" 
d="M379 397q84 0 129.5 -47.5t45.5 -141.5q0 -123 -66.5 -170.5t-221.5 -47.5q-102 0 -210 22v152q130 -24 213 -24q67 0 93 14.5t26 58.5q0 40 -22.5 55.5t-82.5 15.5q-51 0 -109 -6l-32 113l182 141h-263v148h422l56 -145l-180 -139q3 0 10 0.5t10 0.5z" />
    <glyph glyph-name="four.tf" horiz-adv-x="600" 
d="M390 389h164v-389h-164v122h-349v135l235 423h182l-229 -418h161v127z" />
    <glyph glyph-name="five.tf" horiz-adv-x="600" 
d="M337 426q208 0 208 -213q0 -115 -62.5 -169t-204.5 -54q-89 0 -215 21v153q126 -24 216 -24q57 0 78.5 16.5t21.5 55.5q0 42 -21.5 58.5t-77.5 16.5q-88 0 -205 -9v402h436v-148h-272v-109q36 3 98 3z" />
    <glyph glyph-name="six.tf" horiz-adv-x="600" 
d="M298 -10q-249 0 -249 280q0 170 95 271.5t298 148.5l43 -140q-128 -36 -185.5 -67.5t-76.5 -78.5q54 23 124 23q102 0 157.5 -55t55.5 -156q0 -115 -64 -170.5t-198 -55.5zM304 133q49 0 69.5 18.5t20.5 63.5q0 88 -86 88q-62 0 -96 -17q-1 -8 -1 -25q0 -71 21 -99.5
t72 -28.5z" />
    <glyph glyph-name="seven.tf" horiz-adv-x="600" 
d="M61 680h486v-191q0 -44 -23 -81.5t-55.5 -64.5t-65 -53.5t-55.5 -61.5t-23 -76v-152h-164v152q0 63 23 113.5t55.5 81t64.5 54.5t55 47t23 46v38h-321v148z" />
    <glyph glyph-name="eight.tf" horiz-adv-x="600" 
d="M300 -10q-138 0 -200.5 45t-62.5 151q0 70 27.5 111t91.5 57q-57 25 -79 59t-22 97q0 99 64 139.5t181 40.5t181 -40.5t64 -139.5q0 -63 -22 -97.5t-79 -58.5q64 -16 91.5 -57t27.5 -111q0 -106 -62.5 -151t-200.5 -45zM300 417q43 0 62.5 15.5t19.5 56.5q0 37 -19 51.5
t-63 14.5t-63 -14.5t-19 -51.5q0 -41 19.5 -56.5t62.5 -15.5zM300 132q51 0 74 16t23 57q0 42 -21.5 58t-75.5 16t-75.5 -16t-21.5 -58q0 -41 23.5 -57t73.5 -16z" />
    <glyph glyph-name="nine.tf" horiz-adv-x="600" 
d="M304 690q249 0 249 -280q0 -170 -95 -271.5t-298 -148.5l-43 140q128 36 185.5 67.5t76.5 78.5q-54 -23 -124 -23q-102 0 -157.5 55t-55.5 156q0 115 64 170.5t198 55.5zM298 547q-49 0 -69.5 -18.5t-20.5 -63.5q0 -88 86 -88q62 0 96 17q1 8 1 25q0 71 -21 99.5
t-72 28.5z" />
    <glyph glyph-name="zero.dnom" horiz-adv-x="352" 
d="M177 -10q-85 0 -124 47t-39 158q0 110 38.5 156.5t124.5 46.5q85 0 123 -46.5t38 -156.5q0 -111 -38 -158t-123 -47zM177 90q33 0 44.5 22t11.5 83q0 63 -11 83t-45 20q-35 0 -46.5 -20t-11.5 -83q0 -61 12 -83t46 -22z" />
    <glyph glyph-name="one.dnom" horiz-adv-x="352" 
d="M239 92h77v-92h-264v92h84v188l-82 -12v97l185 33v-306z" />
    <glyph glyph-name="two.dnom" horiz-adv-x="352" 
d="M39 0v71l144 136q13 12 19 18.5t11 17.5t5 24q0 18 -13.5 25.5t-49.5 7.5q-45 0 -115 -19v98q70 19 139 19q78 0 110 -26.5t32 -82.5q0 -45 -14.5 -71t-50.5 -62l-59 -58h125l-17 -98h-266z" />
    <glyph glyph-name="three.dnom" horiz-adv-x="352" 
d="M218 225q106 0 106 -109q0 -72 -37.5 -99t-125.5 -27q-62 0 -122 12v96q74 -14 122 -14q32 0 46 7t14 27t-12 29t-40 9q-33 0 -64 -4l-18 74l96 65h-140v97h246l31 -83l-108 -80h6z" />
    <glyph glyph-name="four.dnom" horiz-adv-x="352" 
d="M218 203h103v-203h-103v63h-188v83l126 242h107l-120 -238h75v53z" />
    <glyph glyph-name="five.dnom" horiz-adv-x="352" 
d="M201 243q120 0 120 -124q0 -66 -36.5 -97.5t-118.5 -31.5q-54 0 -126 12v91q60 -12 125 -12q54 0 54 41q0 24 -12.5 33.5t-40.5 9.5q-60 0 -122 -5v228h257v-96h-161v-52q42 3 61 3z" />
    <glyph glyph-name="six.dnom" horiz-adv-x="352" 
d="M174 -10q-145 0 -145 162q0 108 59.5 164t168.5 82l26 -86q-125 -30 -147 -82q33 14 66 14q64 0 94 -34t30 -89q0 -70 -39 -100.5t-113 -30.5zM177 74q28 0 39 11t11 36q0 49 -48 49q-31 0 -53 -10q-1 -5 -1 -14q0 -38 11.5 -55t40.5 -17z" />
    <glyph glyph-name="seven.dnom" horiz-adv-x="352" 
d="M37 388h278v-110q0 -28 -19.5 -53.5t-43.5 -42.5t-43.5 -42.5t-19.5 -53.5v-86h-100v86q0 42 19 75.5t42 50.5t42 35.5t19 34.5v14h-174v92z" />
    <glyph glyph-name="eight.dnom" horiz-adv-x="352" 
d="M176 -10q-154 0 -154 116q0 41 15 63t46 37q-46 25 -46 87q0 56 33.5 80t105.5 24t105.5 -24t33.5 -80q0 -62 -46 -87q31 -15 46 -37t15 -63q0 -116 -154 -116zM176 244q47 0 47 40q0 39 -47 39t-47 -39q0 -40 47 -40zM176 71q52 0 52 46q0 44 -52 44t-52 -44
q0 -46 52 -46z" />
    <glyph glyph-name="nine.dnom" horiz-adv-x="352" 
d="M184 398q145 0 145 -162q0 -108 -59.5 -164t-168.5 -82l-26 86q125 30 147 82q-33 -14 -66 -14q-64 0 -94 34t-30 89q0 70 39 100.5t113 30.5zM181 314q-28 0 -39 -11t-11 -36q0 -49 48 -49q31 0 53 10q1 5 1 14q0 38 -11.5 55t-40.5 17z" />
    <glyph glyph-name="zero.numr" horiz-adv-x="352" 
d="M177 283q-85 0 -124 47t-39 158q0 110 38.5 156.5t124.5 46.5q85 0 123 -46.5t38 -156.5q0 -111 -38 -158t-123 -47zM177 383q33 0 44.5 22t11.5 83q0 63 -11 83t-45 20q-35 0 -46.5 -20t-11.5 -83q0 -61 12 -83t46 -22z" />
    <glyph glyph-name="one.numr" horiz-adv-x="352" 
d="M239 385h77v-92h-264v92h84v188l-82 -12v97l185 33v-306z" />
    <glyph glyph-name="two.numr" horiz-adv-x="352" 
d="M39 293v71l144 136q13 12 19 18.5t11 17.5t5 24q0 18 -13.5 25.5t-49.5 7.5q-45 0 -115 -19v98q70 19 139 19q78 0 110 -26.5t32 -82.5q0 -45 -14.5 -71t-50.5 -62l-59 -58h125l-17 -98h-266z" />
    <glyph glyph-name="three.numr" horiz-adv-x="352" 
d="M218 517q106 0 106 -109q0 -72 -37.5 -99t-125.5 -27q-62 0 -122 12v96q74 -14 122 -14q32 0 46 7t14 27t-12 29t-40 9q-33 0 -64 -4l-18 74l96 65h-140v97h246l31 -83l-108 -80h6z" />
    <glyph glyph-name="four.numr" horiz-adv-x="352" 
d="M218 496h103v-203h-103v63h-188v83l126 242h107l-120 -238h75v53z" />
    <glyph glyph-name="five.numr" horiz-adv-x="352" 
d="M201 535q120 0 120 -124q0 -66 -36.5 -97.5t-118.5 -31.5q-54 0 -126 12v91q60 -12 125 -12q54 0 54 41q0 24 -12.5 33.5t-40.5 9.5q-60 0 -122 -5v228h257v-96h-161v-52q42 3 61 3z" />
    <glyph glyph-name="six.numr" horiz-adv-x="352" 
d="M174 283q-145 0 -145 162q0 108 59.5 164t168.5 82l26 -86q-125 -30 -147 -82q33 14 66 14q64 0 94 -34t30 -89q0 -70 -39 -100.5t-113 -30.5zM177 367q28 0 39 11t11 36q0 49 -48 49q-31 0 -53 -10q-1 -5 -1 -14q0 -38 11.5 -55t40.5 -17z" />
    <glyph glyph-name="seven.numr" horiz-adv-x="352" 
d="M37 681h278v-110q0 -28 -19.5 -53.5t-43.5 -42.5t-43.5 -42.5t-19.5 -53.5v-86h-100v86q0 42 19 75.5t42 50.5t42 35.5t19 34.5v14h-174v92z" />
    <glyph glyph-name="eight.numr" horiz-adv-x="352" 
d="M176 283q-154 0 -154 116q0 41 15 63t46 37q-46 25 -46 87q0 56 33.5 80t105.5 24t105.5 -24t33.5 -80q0 -62 -46 -87q31 -15 46 -37t15 -63q0 -116 -154 -116zM176 537q47 0 47 40q0 39 -47 39t-47 -39q0 -40 47 -40zM176 364q52 0 52 46q0 44 -52 44t-52 -44
q0 -46 52 -46z" />
    <glyph glyph-name="nine.numr" horiz-adv-x="352" 
d="M184 691q145 0 145 -162q0 -108 -59.5 -164t-168.5 -82l-26 86q125 30 147 82q-33 -14 -66 -14q-64 0 -94 34t-30 89q0 70 39 100.5t113 30.5zM181 607q-28 0 -39 -11t-11 -36q0 -49 48 -49q31 0 53 10q1 5 1 14q0 38 -11.5 55t-40.5 17z" />
    <glyph glyph-name="colon.tf" horiz-adv-x="300" 
d="M53 361v169h168v-169h-168zM53 0v169h168v-169h-168z" />
    <glyph glyph-name="comma.tf" horiz-adv-x="300" 
d="M46 -166l51 335h171l-75 -335h-147z" />
    <glyph glyph-name="period.tf" horiz-adv-x="300" 
d="M66 0v169h168v-169h-168z" />
    <glyph glyph-name="semicolon.tf" horiz-adv-x="300" 
d="M82 361v169h168v-169h-168zM31 -166l51 335h171l-75 -335h-147z" />
    <glyph glyph-name="periodcentered.upper" horiz-adv-x="258" 
d="M45 257v169h168v-169h-168z" />
    <glyph glyph-name="emdash.upper" horiz-adv-x="790" 
d="M60 281v149h670v-149h-670z" />
    <glyph glyph-name="endash.upper" horiz-adv-x="611" 
d="M60 281v149h491v-149h-491z" />
    <glyph glyph-name="hyphen.upper" horiz-adv-x="497" 
d="M60 281v151h377v-151h-377z" />
    <glyph glyph-name="circle_percent" horiz-adv-x="400" 
d="M200 390q-80 0 -110 32.5t-30 117.5t30 117.5t110 32.5t110 -32.5t30 -117.5t-30 -117.5t-110 -32.5zM200 478q24 0 32.5 13.5t8.5 48.5t-8.5 48.5t-32.5 13.5t-32.5 -13.5t-8.5 -48.5t8.5 -48.5t32.5 -13.5z" />
    <glyph glyph-name="acutecomb_viet" horiz-adv-x="0" 
d="M-322 740l74 130h165l-109 -130h-130z" />
    <glyph glyph-name="acutecomb.001" horiz-adv-x="0" 
d="M-329 590l81 150h168l-114 -150h-135z" />
    <glyph glyph-name="circumflexcomb_viet" horiz-adv-x="0" 
d="M-593 580l139 133h130l135 -133h-157l-43 50l-48 -50h-156z" />
    <glyph glyph-name="brevecomb_viet" horiz-adv-x="0" 
d="M-259 582q-98 0 -141 27t-43 104h118q0 -26 16.5 -35t49.5 -9t49.5 9t16.5 35h118q0 -78 -43 -104.5t-141 -26.5z" />
    </font>
</defs>
</svg>
